<?xml version="1.0" standalone="no"?>
<!DOCTYPE svg PUBLIC "-//W3C//DTD SVG 1.1//EN" "http://www.w3.org/Graphics/SVG/1.1/DTD/svg11.dtd" >
<svg>
<metadata>
Created by FontForge 20090914 at Thu Nov  3 20:55:15 2016
 By www-data
Copyright 2011 Canonical Ltd.  Licensed under the Ubuntu Font Licence 1.0
</metadata>
<defs>
<font id="UbuntuCondensed-Regular" horiz-adv-x="314" >
  <font-face 
    font-family="Ubuntu Condensed"
    font-weight="400"
    font-stretch="normal"
    units-per-em="1000"
    panose-1="2 11 5 6 3 6 2 3 2 4"
    ascent="800"
    descent="-200"
    x-height="524.999"
    cap-height="693"
    bbox="-113 -195.001 1329.01 973"
    underline-thickness="79"
    underline-position="-84"
    unicode-range="U+0008-U+FB04"
  />
<missing-glyph horiz-adv-x="500" 
d="M50 0v750h400v-750h-400zM400 50v650h-300v-650h300z" />
    <glyph glyph-name="f_f" unicode="ff" horiz-adv-x="612" 
d="M231 776c19.333 0 36.334 -2.00098 51.001 -6.00098s26.667 -8.33301 36 -13l-18 -68c-9.33301 4.66699 -19 8.16699 -29 10.5s-20.667 3.5 -32 3.5c-15.333 0 -28 -2.66699 -38 -8s-17.667 -12.666 -23 -21.999s-9 -20.5 -11 -33.5s-3 -26.833 -3 -41.5v-73h135v-74
h-135v-451h-86v598c0 56.667 12.667 100.5 38 131.5s63.666 46.5 114.999 46.5zM537.001 775.999c19.333 0 36.334 -2.00098 51.001 -6.00098s26.667 -8.33301 36 -13l-18 -68c-9.33301 4.66699 -19 8.16699 -29 10.5s-20.667 3.5 -32 3.5c-15.333 0 -28 -2.66699 -38 -8
s-17.667 -12.666 -23 -21.999s-9 -20.5 -11 -33.5s-3 -26.833 -3 -41.5v-73h135v-74h-135v-451h-86v598c0 56.667 12.667 100.5 38 131.5s63.666 46.5 114.999 46.5z" />
    <glyph glyph-name="f_i" unicode="fi" horiz-adv-x="538" 
d="M231 776c15.333 0 29.334 -1.33203 42.001 -3.99902s23.667 -6 33 -10l-16 -68c-17.333 6 -34.333 9 -51 9c-24 0 -42.5 -7.83301 -55.5 -23.5s-19.5 -42.834 -19.5 -81.501v-73h135v-74h-135v-451h-86v598c0 56.667 12.667 100.5 38 131.5s63.666 46.5 114.999 46.5z
M460.001 0.000976562h-86v525h86v-525zM417.001 618.001c-15.333 0 -28.5 5.16699 -39.5 15.5s-16.5 24.166 -16.5 41.499s5.5 31.166 16.5 41.499s24.167 15.5 39.5 15.5s28.5 -5.16699 39.5 -15.5s16.5 -24.166 16.5 -41.499s-5.5 -31.166 -16.5 -41.499
s-24.167 -15.5 -39.5 -15.5z" />
    <glyph glyph-name="f_l" unicode="fl" horiz-adv-x="549" 
d="M520 -10c-49.333 1.33301 -84.666 13.499 -105.999 36.499s-32 59.5 -32 109.5v625l86 15v-642c0 -23.333 4.66699 -40.166 14 -50.499s25.666 -17.5 48.999 -21.5zM231 775.999c15.333 0 29.334 -1.33203 42.001 -3.99902s23.667 -6 33 -10l-16 -68
c-17.333 6 -34.333 9 -51 9c-24 0 -42.5 -7.83301 -55.5 -23.5s-19.5 -42.834 -19.5 -81.501v-73h135v-74h-135v-451h-86v598c0 56.667 12.667 100.5 38 131.5s63.666 46.5 114.999 46.5z" />
    <glyph glyph-name="f_f_i" unicode="ffi" horiz-adv-x="844" 
d="M537 776c15.333 0 29.334 -1.33203 42.001 -3.99902s23.667 -6 33 -10l-16 -68c-17.333 6 -34.333 9 -51 9c-24 0 -42.5 -7.83301 -55.5 -23.5s-19.5 -42.834 -19.5 -81.501v-73h135v-74h-135v-451h-86v598c0 56.667 12.667 100.5 38 131.5s63.666 46.5 114.999 46.5z
M766.001 0.000976562h-86v525h86v-525zM723.001 618.001c-15.333 0 -28.5 5.16699 -39.5 15.5s-16.5 24.166 -16.5 41.499s5.5 31.166 16.5 41.499s24.167 15.5 39.5 15.5s28.5 -5.16699 39.5 -15.5s16.5 -24.166 16.5 -41.499s-5.5 -31.166 -16.5 -41.499
s-24.167 -15.5 -39.5 -15.5zM231.001 776.001c19.333 0 36.334 -2.00098 51.001 -6.00098s26.667 -8.33301 36 -13l-18 -68c-9.33301 4.66699 -19 8.16699 -29 10.5s-20.667 3.5 -32 3.5c-15.333 0 -28 -2.66699 -38 -8s-17.667 -12.666 -23 -21.999s-9 -20.5 -11 -33.5
s-3 -26.833 -3 -41.5v-73h135v-74h-135v-451h-86v598c0 56.667 12.667 100.5 38 131.5s63.666 46.5 114.999 46.5z" />
    <glyph glyph-name="f_f_l" unicode="ffl" horiz-adv-x="855" 
d="M231 776c19.333 0 36.334 -2.00098 51.001 -6.00098s26.667 -8.33301 36 -13l-18 -68c-9.33301 4.66699 -19 8.16699 -29 10.5s-20.667 3.5 -32 3.5c-15.333 0 -28 -2.66699 -38 -8s-17.667 -12.666 -23 -21.999s-9 -20.5 -11 -33.5s-3 -26.833 -3 -41.5v-73h135v-74
h-135v-451h-86v598c0 56.667 12.667 100.5 38 131.5s63.666 46.5 114.999 46.5zM826.001 -10.001c-49.333 1.33301 -84.666 13.499 -105.999 36.499s-32 59.5 -32 109.5v625l86 15v-642c0 -23.333 4.66699 -40.166 14 -50.499s25.666 -17.5 48.999 -21.5zM537.001 775.998
c15.333 0 29.334 -1.33203 42.001 -3.99902s23.667 -6 33 -10l-16 -68c-17.333 6 -34.333 9 -51 9c-24 0 -42.5 -7.83301 -55.5 -23.5s-19.5 -42.834 -19.5 -81.501v-73h135v-74h-135v-451h-86v598c0 56.667 12.667 100.5 38 131.5s63.666 46.5 114.999 46.5z" />
    <glyph glyph-name=".notdef" horiz-adv-x="500" 
d="M50 0v750h400v-750h-400zM400 50v650h-300v-650h300z" />
    <glyph glyph-name=".null" horiz-adv-x="0" 
 />
    <glyph glyph-name=".null" horiz-adv-x="0" 
 />
    <glyph glyph-name=".null" horiz-adv-x="0" 
 />
    <glyph glyph-name="nonmarkingreturn" unicode="&#x9;" horiz-adv-x="195" 
 />
    <glyph glyph-name="nonmarkingreturn" unicode="&#xd;" horiz-adv-x="195" 
 />
    <glyph glyph-name="space" unicode=" " horiz-adv-x="195" 
 />
    <glyph glyph-name="exclam" unicode="!" horiz-adv-x="263" 
d="M178 505c0 -56 -2 -106.833 -6 -152.5s-9 -91.167 -15 -136.5h-51c-6 45.333 -11 90.833 -15 136.5s-6 96.5 -6 152.5v188h93v-188zM191 46c0 -15.333 -5.5 -29 -16.5 -41s-25.5 -18 -43.5 -18s-32.333 6 -43 18s-16 25.667 -16 41c0 16 5.33301 30 16 42s25 18 43 18
s32.5 -6 43.5 -18s16.5 -26 16.5 -42z" />
    <glyph glyph-name="quotedbl" unicode="&#x22;" horiz-adv-x="378" 
d="M152 760v-50c0 -32.667 -1.66699 -66.667 -5 -102s-8 -71 -14 -107h-44c-6 36 -10.667 71.5 -14 106.5s-5 69.5 -5 103.5v49h82zM308 760v-50c0 -32.667 -1.66699 -66.667 -5 -102s-8 -71 -14 -107h-44c-6 36 -10.667 71.5 -14 106.5s-5 69.5 -5 103.5v49h82z" />
    <glyph glyph-name="numbersign" unicode="#" horiz-adv-x="567" 
d="M137 250l26 193h-116v66h125l25 184h72l-26 -184h124l26 184h72l-26 -184h81v-66h-90l-26 -193h116v-66h-125l-25 -184h-72l25 184h-124l-25 -184h-71l25 184h-81v66h90zM208 250h124l26 193h-124z" />
    <glyph glyph-name="dollar" unicode="$" horiz-adv-x="430" 
d="M375 183c0 -37.333 -9.83203 -71.1709 -29.499 -101.504s-49.834 -50.166 -90.501 -59.499v-131h-77v126c-25.333 2.66699 -48.833 7.83398 -70.5 15.501s-39.167 16.834 -52.5 27.501l25 67c15.333 -10.667 33 -19.5 53 -26.5s41.333 -10.5 64 -10.5
c29.333 0 51 8.5 65 25.5s21 39.167 21 66.5c0 16 -2.5 30.333 -7.5 43s-11.833 24 -20.5 34s-18.5 19.167 -29.5 27.5s-22.5 16.5 -34.5 24.5l-45.5 31c-15 10.667 -28.5 23.167 -40.5 37.5s-21.833 31 -29.5 50s-11.5 41.833 -11.5 68.5c0 16.667 2.5 33.5 7.5 50.5
s12.333 32.667 22 47s21.5 27 35.5 38s30.333 19.167 49 24.5v118h77v-111c18 -2 35.167 -5.5 51.5 -10.5s31.166 -11.167 44.499 -18.5l-24 -68c-13.333 7.33301 -27.333 13.5 -42 18.5s-29.667 7.5 -45 7.5c-24 0 -44.167 -7.66699 -60.5 -23s-24.5 -39.666 -24.5 -72.999
c0 -16 3 -30 9 -42s14 -23 24 -33s21.5 -19.167 34.5 -27.5l39.5 -26.5l41.5 -31c13.667 -10.667 25.834 -23.167 36.501 -37.5s19.167 -31 25.5 -50s9.5 -41.5 9.5 -67.5z" />
    <glyph glyph-name="percent" unicode="%" horiz-adv-x="645" 
d="M363 169c0 60 9.83301 105.667 29.5 137s48.834 47 87.501 47s67.834 -15.667 87.501 -47s29.5 -77 29.5 -137s-9.83301 -105.667 -29.5 -137s-48.834 -47 -87.501 -47s-67.834 15.667 -87.501 47s-29.5 77 -29.5 137zM524 169c0 44.667 -3.66699 76 -11 94
s-18.333 27 -33 27s-25.667 -9 -33 -27s-11 -49.333 -11 -94s3.66699 -76 11 -94s18.333 -27 33 -27s25.667 9 33 27s11 49.333 11 94zM498 693l-279 -693h-78l279 693h78zM48 523c0 60 9.83301 105.667 29.5 137s48.834 47 87.501 47s67.834 -15.667 87.501 -47
s29.5 -77 29.5 -137s-9.83301 -105.667 -29.5 -137s-48.834 -47 -87.501 -47s-67.834 15.667 -87.501 47s-29.5 77 -29.5 137zM209 523c0 44.667 -3.66699 76 -11 94s-18.333 27 -33 27s-25.667 -9 -33 -27s-11 -49.333 -11 -94s3.66699 -76 11 -94s18.333 -27 33 -27
s25.667 9 33 27s11 49.333 11 94z" />
    <glyph glyph-name="ampersand" unicode="&#x26;" horiz-adv-x="511" 
d="M483 353c-3.33301 -42 -9.66699 -80.832 -19 -116.499s-21.333 -67.834 -36 -96.501c15.333 -22.667 29.333 -46.167 42 -70.5s23.334 -47.5 32.001 -69.5h-87c-8.66699 21.333 -20 44.666 -34 69.999c-21.333 -25.333 -45 -44.833 -71 -58.5s-52.333 -20.5 -79 -20.5
c-33.333 0 -61.833 5.33301 -85.5 16s-43 24.5 -58 41.5s-26 36.167 -33 57.5s-10.5 42.333 -10.5 63c0 26 3.16699 49.5 9.5 70.5s14.666 39.833 24.999 56.5s22.333 32 36 46s28.167 27 43.5 39c-17.333 25.333 -32.5 52.166 -45.5 80.499s-19.5 59.166 -19.5 92.499
c0 46.667 13 84.167 39 112.5s61 42.5 105 42.5c24 0 44.667 -3.83301 62 -11.5s31.5 -18.167 42.5 -31.5s19 -28.666 24 -45.999s7.5 -35.666 7.5 -54.999c0 -22.667 -3.16699 -43.167 -9.5 -61.5s-14.666 -35.166 -24.999 -50.499s-22.333 -29.333 -36 -42
s-27.5 -24.667 -41.5 -36l119 -168c7.33301 21.333 13.666 45 18.999 71s9.33301 54.333 12 85zM233.999 64.001c19.333 0 38.168 5.5 56.501 16.5s35.166 27.5 50.499 49.5l-142 195c-20 -18 -36.333 -38.667 -49 -62s-19 -52.333 -19 -87c0 -32 8.66699 -58.667 26 -80
s43 -32 77 -32zM171.001 555.001c0 -22.667 4.83301 -43.833 14.5 -63.5s21.5 -39.5 35.5 -59.5c20.667 17.333 38.167 36.333 52.5 57s21.5 46 21.5 76c0 25.333 -5.5 44.333 -16.5 57s-25.5 19 -43.5 19c-21.333 0 -37.333 -7.5 -48 -22.5s-16 -36.167 -16 -63.5z" />
    <glyph glyph-name="quotesingle" unicode="'" horiz-adv-x="222" 
d="M152 760v-50c0 -32.667 -1.66699 -66.667 -5 -102s-8 -71 -14 -107h-44c-6 36 -10.667 71.5 -14 106.5s-5 69.5 -5 103.5v49h82z" />
    <glyph glyph-name="parenleft" unicode="(" horiz-adv-x="285" 
d="M162 299c0 -85.333 10.333 -165.668 31 -241.001s49.667 -144.333 87 -207l-69 -38c-41.333 64.667 -74.166 138 -98.499 220s-36.5 170.667 -36.5 266s12.167 184 36.5 266s57.166 155.333 98.499 220l69 -38c-37.333 -62.667 -66.333 -131.667 -87 -207
s-31 -155.666 -31 -240.999z" />
    <glyph glyph-name="parenright" unicode=")" horiz-adv-x="285" 
d="M123 299c0 85.333 -10.333 165.668 -31 241.001s-49.667 144.333 -87 207l69 38c41.333 -64.667 74.166 -138 98.499 -220s36.5 -170.667 36.5 -266s-12.167 -184 -36.5 -266s-57.166 -155.333 -98.499 -220l-69 38c37.333 62.667 66.333 131.667 87 207
s31 155.666 31 240.999z" />
    <glyph glyph-name="asterisk" unicode="*" horiz-adv-x="387" 
d="M66 641c19.333 -6.66699 38.5 -16.001 57.5 -28.001s35.833 -23.333 50.5 -34l-15.5 58.5c-5.66699 21.667 -8.5 42.5 -8.5 62.5v7h88v-7c0 -20 -2.83301 -40.833 -8.5 -62.5s-11.167 -41.167 -16.5 -58.5l50 33.5c18 12.333 36.667 21.5 56 27.5l7 2l26 -84l-5 -2
c-19.333 -6 -40 -9.66699 -62 -11s-41.667 -2.66602 -59 -3.99902l45.5 -37.5c17 -13.667 31.167 -28.5 42.5 -44.5l4 -5l-71 -52l-3 6c-12 16 -22 34.333 -30 55l-22 56l-22 -56c-8 -20.667 -17.667 -38.667 -29 -54l-4 -6l-71 52l5 5c11.333 16 25.833 31 43.5 45l46.5 38
c-18 1.33301 -38 2.33301 -60 3s-42.667 4.66699 -62 12l-4 3l25 82z" />
    <glyph glyph-name="plus" unicode="+" horiz-adv-x="430" 
d="M43 336h135v144h74v-144h135v-73h-135v-145h-74v145h-135v73z" />
    <glyph glyph-name="comma" unicode="," horiz-adv-x="232" 
d="M165 114c0.666992 -5.33301 1 -10.5 1 -15.5v-15.5c0 -42.667 -6 -83.667 -18 -123s-28.333 -77.333 -49 -114l-61 18c16.667 34 27.667 68.5 33 103.5s8 67.833 8 98.5c0 8.66699 -0.166992 17 -0.5 25s-0.833008 15.667 -1.5 23h88z" />
    <glyph glyph-name="hyphen" unicode="-" horiz-adv-x="233" 
d="M24 340h185v-81h-185v81z" />
    <glyph glyph-name="period" unicode="." horiz-adv-x="232" 
d="M176 46c0 -15.333 -5.5 -29 -16.5 -41s-25.5 -18 -43.5 -18s-32.333 6 -43 18s-16 25.667 -16 41c0 16 5.33301 30 16 42s25 18 43 18s32.5 -6 43.5 -18s16.5 -26 16.5 -42z" />
    <glyph glyph-name="slash" unicode="/" horiz-adv-x="270" 
d="M54 -185h-80l242 968h80z" />
    <glyph glyph-name="zero" unicode="0" horiz-adv-x="430" 
d="M52 347c0 68 3 125.167 9 171.5s15.667 83.5 29 111.5s30.166 48.167 50.499 60.5s45.166 18.5 74.499 18.5c28.667 0 53.334 -6.16699 74.001 -18.5s37.667 -32.5 51 -60.5s23 -65.167 29 -111.5s9 -103.5 9 -171.5s-3 -125.167 -9 -171.5s-15.667 -83.5 -29 -111.5
s-30.333 -48.167 -51 -60.5s-45.334 -18.5 -74.001 -18.5c-29.333 0 -54.166 6.16699 -74.499 18.5s-37.166 32.5 -50.499 60.5s-23 65.167 -29 111.5s-9 103.5 -9 171.5zM288 347c0 54.667 -1.33301 100.334 -4 137.001s-6.83398 66 -12.501 88s-13.167 37.667 -22.5 47
s-20.666 14 -33.999 14s-24.666 -4.66699 -33.999 -14s-16.833 -25 -22.5 -47s-9.83398 -51.333 -12.501 -88s-4 -82.334 -4 -137.001s1.33301 -100.334 4 -137.001s6.83398 -66 12.501 -88s13.167 -37.667 22.5 -47s20.666 -14 33.999 -14s24.666 4.66699 33.999 14
s16.833 25 22.5 47s9.83398 51.333 12.501 88s4 82.334 4 137.001z" />
    <glyph glyph-name="one" unicode="1" horiz-adv-x="430" 
d="M70 555c12.667 7.33301 25.832 16.333 39.499 27s26.834 22.167 39.501 34.5s24.5 25 35.5 38s20.167 25.833 27.5 38.5h66v-693h-86v557c-11.333 -12 -24.5 -23.333 -39.5 -34s-30.833 -20.667 -47.5 -30z" />
    <glyph glyph-name="two" unicode="2" horiz-adv-x="430" 
d="M44 650c39.333 39.333 87.333 58.998 144 58.998c54 0 95.333 -14.167 124 -42.5s43 -72.5 43 -132.5c0 -28 -4.66699 -54.667 -14 -80s-21 -49.833 -35 -73.5s-29.333 -47.167 -46 -70.5s-32.667 -47.166 -48 -71.499s-28.666 -49.666 -39.999 -75.999
s-18.333 -54.5 -21 -84.5h218v-78h-310v19c0 44.667 5.16699 84.334 15.5 119.001s23 66 38 94s31.5 54 49.5 78s34.5 47.5 49.5 70.5s27.667 46.667 38 71s15.5 51.166 15.5 80.499c0 35.333 -7 60.833 -21 76.5s-35 23.5 -63 23.5c-19.333 0 -36.833 -3.83301 -52.5 -11.5
s-29.834 -17.5 -42.501 -29.5z" />
    <glyph glyph-name="three" unicode="3" horiz-adv-x="430" 
d="M257 373c33.333 -12 59.165 -33.167 77.498 -63.5s27.5 -69.5 27.5 -117.5c0 -64 -15.5 -114.5 -46.5 -151.5s-77.833 -55.5 -140.5 -55.5c-24.667 0 -48.667 3.66699 -72 11s-43.666 17 -60.999 29l23 70c15.333 -9.33301 31.5 -17.333 48.5 -24s34.833 -10 53.5 -10
c34 0 60.5 10.5 79.5 31.5s28.5 54.5 28.5 100.5s-10.5 80.667 -31.5 104s-54.5 35 -100.5 35h-26v73h22c40 0 69.667 10.667 89 32s29 51 29 89c0 36 -7.66699 62.833 -23 80.5s-35.666 26.5 -60.999 26.5c-17.333 0 -33.833 -3.33301 -49.5 -10s-29.167 -15 -40.5 -25
l-34 63c17.333 16 37.833 28 61.5 36s47.167 12 70.5 12c52 0 92 -16.333 120 -49s42 -76 42 -130c0 -38 -7.5 -70.167 -22.5 -96.5s-36.167 -46.5 -63.5 -60.5z" />
    <glyph glyph-name="four" unicode="4" horiz-adv-x="430" 
d="M42 232c12 41.333 27.334 84.999 46.001 130.999s38 90.333 58 133s39.167 81.334 57.5 116.001s33.166 61.667 44.499 81h88v-453h68v-71h-68v-169h-79v169h-215v63zM257.001 239.999v338l-34.5 -71c-13 -26.667 -26 -55 -39 -85s-25.5 -60.5 -37.5 -91.5
s-22.333 -61.167 -31 -90.5h142z" />
    <glyph glyph-name="five" unicode="5" horiz-adv-x="430" 
d="M191 618c-3.33301 -48 -5.66699 -87.9971 -7 -119.997s-2.66602 -57.333 -3.99902 -76c62.667 -8.66699 108.667 -31.334 138 -68.001s44 -86.334 44 -149.001c0 -35.333 -5 -66.666 -15 -93.999s-23.833 -50.333 -41.5 -69s-38.5 -32.834 -62.5 -42.501
s-50 -14.5 -78 -14.5c-19.333 0 -39 2.66699 -59 8s-38.667 13 -56 23l24 71c28.667 -16 58 -24 88 -24c32 0 59 11.667 81 35s33 59 33 107c0 52.667 -14.833 90.5 -44.5 113.5s-74.834 35.833 -135.501 38.5c3.33301 33.333 6 63.833 8 91.5s3.66699 54.667 5 81
s2.5 52.666 3.5 78.999s1.83301 54.5 2.5 84.5h234v-75h-158z" />
    <glyph glyph-name="six" unicode="6" horiz-adv-x="430" 
d="M348 625c-25.333 -3.33301 -48.5 -8.83203 -69.5 -16.499s-39.833 -19.667 -56.5 -36s-30.5 -37.833 -41.5 -64.5s-19.167 -60 -24.5 -100c14 6 27.5 10.333 40.5 13s25.167 4 36.5 4c48 0 85.167 -18.833 111.5 -56.5s39.5 -89.5 39.5 -155.5
c0 -70.667 -12.5 -126.334 -37.5 -167.001s-64.5 -61 -118.5 -61c-27.333 0 -51.333 5.33301 -72 16s-37.834 28.167 -51.501 52.5s-24 56.333 -31 96s-10.5 88.167 -10.5 145.5c0 50 4.83301 98.667 14.5 146s25.334 89.5 47.001 126.5s50 67.167 85 90.5
s78.167 36 129.5 38zM212 355.001c-10.667 0 -21.3311 -1.83203 -31.998 -5.49902s-20.667 -8.16699 -30 -13.5c-0.666992 -8 -1 -16.167 -1 -24.5v-25.5c0 -30.667 0.833008 -59.834 2.5 -87.501s5.16699 -52 10.5 -73s13.166 -37.667 23.499 -50
s24.166 -18.5 41.499 -18.5c26 0 44.167 13.833 54.5 41.5s15.5 64.5 15.5 110.5c0 50 -6.83301 86.833 -20.5 110.5s-35.167 35.5 -64.5 35.5z" />
    <glyph glyph-name="seven" unicode="7" horiz-adv-x="430" 
d="M115 0c1.33301 32 4.83301 66.499 10.5 103.499s12.834 74.5 21.501 112.5s18.167 76.167 28.5 114.5s21.5 75 33.5 110s24 67.5 36 97.5s24 56.333 36 79h-236v76h333v-67c-16 -26 -33.667 -61.5 -53 -106.5s-37.5 -95.667 -54.5 -152s-31.833 -116.166 -44.5 -179.499
s-20.334 -126 -23.001 -188h-88z" />
    <glyph glyph-name="eight" unicode="8" horiz-adv-x="430" 
d="M373 540c0 -38.667 -9.49805 -73.8311 -28.498 -105.498s-41.167 -59.167 -66.5 -82.5c28 -20.667 52.333 -45.5 73 -74.5s31 -63.5 31 -103.5c0 -31.333 -4.83301 -58.833 -14.5 -82.5s-22.334 -43.334 -38.001 -59.001s-33.5 -27.5 -53.5 -35.5s-40.667 -12 -62 -12
c-24.667 0 -47.334 4.5 -68.001 13.5s-38.334 21.333 -53.001 37s-26 34.5 -34 56.5s-12 46 -12 72c0 41.333 9.16699 78.166 27.5 110.499s42.833 60.833 73.5 85.5c-25.333 19.333 -46 43.833 -62 73.5s-24 64.5 -24 104.5c0 30 4.66699 55.833 14 77.5
s21.5 39.5 36.5 53.5s31.833 24.167 50.5 30.5s37.667 9.5 57 9.5c18.667 0 37.167 -3.16699 55.5 -9.5s34.833 -16.333 49.5 -30s26.334 -31.167 35.001 -52.5s13 -47 13 -77zM298.002 168.003c0 17.333 -2.83203 33.5 -8.49902 48.5s-13.167 29 -22.5 42
s-19.833 24.833 -31.5 35.5s-23.834 20.667 -36.501 30c-19.333 -18 -35.333 -39 -48 -63s-19 -54 -19 -90s7.5 -64.833 22.5 -86.5s35.5 -32.5 61.5 -32.5c22 0 41.167 9.83301 57.5 29.5s24.5 48.5 24.5 86.5zM146.003 549.003
c0 -21.333 1.66309 -40.1699 4.99609 -56.5029s8.33301 -30.666 15 -42.999s14.834 -23.5 24.501 -33.5s20.834 -19.333 33.501 -28c18.667 19.333 33.834 39.833 45.501 61.5s17.5 49.834 17.5 84.501c0 40.667 -6.66699 68.834 -20 84.501s-29.666 23.5 -48.999 23.5
c-7.33301 0 -15.333 -1.33301 -24 -4s-16.5 -7.5 -23.5 -14.5s-12.833 -16.5 -17.5 -28.5s-7 -27.333 -7 -46z" />
    <glyph glyph-name="nine" unicode="9" horiz-adv-x="430" 
d="M87 71c25.333 2.66699 48.8301 7.83203 70.4971 15.499s40.834 19.5 57.501 35.5s30.834 37.167 42.501 63.5s20.167 59.5 25.5 99.5c-26 -10.667 -50.333 -16 -73 -16c-48 0 -85.5 18.833 -112.5 56.5s-40.5 89.5 -40.5 155.5c0 70.667 12.5 126.334 37.5 167.001
s64.5 61 118.5 61c27.333 0 51.333 -5.33301 72 -16s37.834 -28.167 51.501 -52.5s24 -56.333 31 -96s10.5 -88.167 10.5 -145.5c0 -50.667 -4.83301 -99.667 -14.5 -147s-25.5 -89.5 -47.5 -126.5s-51 -67 -87 -90s-80.333 -35.5 -133 -37.5zM230.997 338.998
c20 0 39.665 6 58.998 18c0 8 0.166992 16.167 0.5 24.5s0.5 17.166 0.5 26.499c0 30.667 -0.666992 59.834 -2 87.501s-4.66602 52 -9.99902 73s-13.166 37.667 -23.499 50s-24.166 18.5 -41.499 18.5c-26 0 -44.167 -13.833 -54.5 -41.5s-15.5 -64.5 -15.5 -110.5
c0 -50 7.16699 -86.833 21.5 -110.5s36.166 -35.5 65.499 -35.5z" />
    <glyph glyph-name="colon" unicode=":" horiz-adv-x="232" 
d="M176 47c0 -15.333 -5.5 -29 -16.5 -41s-25.5 -18 -43.5 -18s-32.333 6 -43 18s-16 25.667 -16 41c0 16 5.33301 30 16 42s25 18 43 18s32.5 -6 43.5 -18s16.5 -26 16.5 -42zM176 478c0 -15.333 -5.5 -29 -16.5 -41s-25.5 -18 -43.5 -18s-32.333 6 -43 18
s-16 25.667 -16 41c0 16 5.33301 30 16 42s25 18 43 18s32.5 -6 43.5 -18s16.5 -26 16.5 -42z" />
    <glyph glyph-name="semicolon" unicode=";" horiz-adv-x="232" 
d="M154 114c0.666992 -5.33301 1 -10.5 1 -15.5v-15.5c0 -42.667 -6 -83.667 -18 -123s-28.333 -77.333 -49 -114l-61 18c16.667 34 27.667 68.5 33 103.5s8 67.833 8 98.5c0 8.66699 -0.166992 17 -0.5 25s-0.833008 15.667 -1.5 23h88zM176 478
c0 -15.333 -5.5 -29 -16.5 -41s-25.5 -18 -43.5 -18s-32.333 6 -43 18s-16 25.667 -16 41c0 16 5.33301 30 16 42s25 18 43 18s32.5 -6 43.5 -18s16.5 -26 16.5 -42z" />
    <glyph glyph-name="less" unicode="&#x3c;" horiz-adv-x="430" 
d="M46 263v62l301 184l37 -65l-255 -150l255 -150l-37 -65z" />
    <glyph glyph-name="equal" unicode="=" horiz-adv-x="430" 
d="M43 432h344v-73h-344v73zM43 239h344v-73h-344v73z" />
    <glyph glyph-name="greater" unicode="&#x3e;" horiz-adv-x="430" 
d="M83 79l-37 65l255 150l-255 150l37 65l301 -184v-62z" />
    <glyph glyph-name="question" unicode="?" horiz-adv-x="342" 
d="M142 633c-18 0 -34.166 -3.00684 -48.499 -9.00684s-27.166 -13.667 -38.499 -23l-34 66c18.667 12.667 38.667 22.834 60 30.501s45 11.5 71 11.5c30 0 55.667 -4.33301 77 -13s38.666 -20.167 51.999 -34.5s23.166 -30.833 29.499 -49.5s9.5 -38 9.5 -58
c0 -23.333 -3.5 -44.166 -10.5 -62.499s-16 -35.333 -27 -51s-22.667 -30.667 -35 -45s-24 -29.333 -35 -45s-20 -32.5 -27 -50.5s-10.5 -38.667 -10.5 -62v-11c0 -4 0.333008 -7.66699 1 -11h-78c-2 12.667 -3 26.667 -3 42c0 23.333 3.16699 43.833 9.5 61.5
s14.333 33.834 24 48.501s20.167 28.334 31.5 41.001s21.833 25.834 31.5 39.501s17.667 28.334 24 44.001s9.5 33.834 9.5 54.501c0 27.333 -7.33301 48.5 -22 63.5s-35 22.5 -61 22.5zM201.001 45.9932c0 -15.333 -5.5 -29 -16.5 -41s-25.5 -18 -43.5 -18
s-32.333 6 -43 18s-16 25.667 -16 41c0 16 5.33301 30 16 42s25 18 43 18s32.5 -6 43.5 -18s16.5 -26 16.5 -42z" />
    <glyph glyph-name="at" unicode="@" horiz-adv-x="824" 
d="M606 43c-25.333 0 -46.1699 3.66699 -62.5029 11s-29.5 16.666 -39.5 27.999c-13.333 -12.667 -27.166 -21.667 -41.499 -27s-30.166 -8 -47.499 -8c-54 0 -95 19.667 -123 59s-42 97 -42 173c0 71.333 15.833 127.833 47.5 169.5s76.167 62.5 133.5 62.5
c28 0 53.167 -2.83301 75.5 -8.5s39.5 -11.167 51.5 -16.5v-294c0 -28 3.33301 -48.167 10 -60.5s19.667 -18.5 39 -18.5c27.333 0 46.5 18.333 57.5 55s16.5 89.334 16.5 158.001c0 44 -4.83301 85 -14.5 123s-25 71.167 -46 99.5s-48 50.5 -81 66.5s-72.833 24 -119.5 24
c-41.333 0 -79 -8 -113 -24s-63.167 -39.5 -87.5 -70.5s-43.166 -68.833 -56.499 -113.5s-20 -95.667 -20 -153c0 -58 6.33301 -109.5 19 -154.5s30.667 -82.833 54 -113.5s51.833 -53.834 85.5 -69.501s71.5 -23.5 113.5 -23.5c30.667 0 56.5 2.66699 77.5 8
s35.167 9.33301 42.5 12l11 -69c-4.66699 -2 -11.5 -4.16699 -20.5 -6.5s-19.5 -4.66602 -31.5 -6.99902s-24.833 -4.16602 -38.5 -5.49902s-27.5 -2 -41.5 -2c-51.333 0 -98.333 8.5 -141 25.5s-79.667 43 -111 78s-55.666 79.667 -72.999 134s-26 118.833 -26 193.5
c0 72 9.16699 135 27.5 189s43.5 98.833 75.5 134.5s69.667 62.5 113 80.5s89.666 27 138.999 27c52.667 0 100.167 -8.83301 142.5 -26.5s78.333 -43.334 108 -77.001s52.5 -74.334 68.5 -122.001s24 -101.5 24 -161.5c0 -91.333 -13.333 -160.666 -40 -207.999
s-65 -71 -115 -71zM424.996 119c20.667 0 38 6.00293 52 18.0029c-2 9.33301 -3.33301 18.666 -4 27.999s-1 18.666 -1 27.999v240c-3.33301 1.33301 -8.33301 2.66602 -15 3.99902s-14.667 2 -24 2c-32 0 -55.5 -13 -70.5 -39s-22.5 -66.333 -22.5 -121
c0 -48.667 6.33301 -87.5 19 -116.5s34.667 -43.5 66 -43.5z" />
    <glyph glyph-name="A" unicode="A" horiz-adv-x="503" 
d="M299 693l47.5 -151.501c15.667 -51 31 -104.5 46 -160.5s30 -115.333 45 -178s30.167 -130.334 45.5 -203.001h-90l-16.5 89l-17.5 88h-218c-6.66699 -29.333 -12.667 -58.666 -18 -87.999l-16 -89h-87c14.667 72.667 29.667 140.334 45 203.001l45.5 178
c15 56 30.333 109.5 46 160.5l47.5 151.5h95zM250 590.999l-48.001 -167c-15.333 -56 -30 -113.333 -44 -172h183c-13.333 58.667 -27.666 116 -42.999 172z" />
    <glyph glyph-name="B" unicode="B" horiz-adv-x="521" 
d="M174 398l62 0.000976562c82.667 0 124 37.333 124 112c0 23.333 -3.5 42.5 -10.5 57.5s-16.167 26.667 -27.5 35s-24.5 14.166 -39.5 17.499s-30.833 5 -47.5 5c-10 0 -20.167 -0.333008 -30.5 -1s-20.5 -1.66699 -30.5 -3v-223zM174 326.001l-0.00195312 -249.998
c12.667 -2 25.167 -3.66699 37.5 -5s24.5 -2 36.5 -2c18.667 0 36.334 2 53.001 6s31.167 10.667 43.5 20s22 22.166 29 38.499s10.5 36.5 10.5 60.5c0 41.333 -11.167 73.666 -33.5 96.999s-57.166 35 -104.499 35h-72zM83.998 683.003
c23.333 5.33301 47.1641 9.49902 71.4971 12.499s48.5 4.5 72.5 4.5c30 0 58.5 -2.83301 85.5 -8.5s50.833 -15.334 71.5 -29.001s37.167 -31.667 49.5 -54s18.5 -50.166 18.5 -83.499c0 -41.333 -8.66699 -75.166 -26 -101.499s-39.666 -45.833 -66.999 -58.5
c34 -13.333 62 -33.666 84 -60.999s33 -65 33 -113c0 -36 -5.83301 -66.333 -17.5 -91s-28.167 -44.834 -49.5 -60.501s-46.833 -27 -76.5 -34s-62.167 -10.5 -97.5 -10.5c-23.333 0 -47.666 1.33301 -72.999 4s-51.666 6.66699 -78.999 12v672z" />
    <glyph glyph-name="C" unicode="C" horiz-adv-x="469" 
d="M307 -15c-81.333 0 -143.665 30.3281 -186.998 90.9951s-65 154.334 -65 281.001c0 64.667 6.16699 119.334 18.5 164.001s29.5 81 51.5 109s48 48.167 78 60.5s62.667 18.5 98 18.5c29.333 0 56.666 -3.83301 81.999 -11.5s46 -17.167 62 -28.5l-27 -75
c-16 10.667 -33.167 19.334 -51.5 26.001s-39.5 10 -63.5 10c-53.333 0 -92 -22.167 -116 -66.5s-36 -113.166 -36 -206.499c0 -94 12.667 -166.333 38 -217s66.666 -76 123.999 -76c27.333 0 49.5 3.33301 66.5 10s33.5 15.334 49.5 26.001l25 -71
c-15.333 -12 -35.5 -22.333 -60.5 -31s-53.833 -13 -86.5 -13z" />
    <glyph glyph-name="D" unicode="D" horiz-adv-x="576" 
d="M521 347c0 -64.667 -6.83203 -119.499 -20.499 -164.499s-33.334 -81.5 -59.001 -109.5s-56.667 -48.333 -93 -61s-76.833 -19 -121.5 -19c-45.333 0 -93.333 6 -144 18v672c25.333 5.33301 50 9.66602 74 12.999s47 5 69 5c45.333 0 86.166 -6.33301 122.499 -19
s67.333 -33 93 -61s45.334 -64.5 59.001 -109.5s20.5 -99.833 20.5 -164.5zM425.001 347.001c0 49.333 -3.66992 91.332 -11.0029 125.999s-18.666 63 -33.999 85s-35.5 38 -60.5 48s-54.833 15 -89.5 15c-9.33301 0 -18.666 -0.333008 -27.999 -1s-19 -1.66699 -29 -3v-540
c10 -1.33301 19.667 -2.33301 29 -3s18.333 -1 27 -1c35.333 0 65.333 5 90 15s44.834 25.833 60.501 47.5s27.167 49.834 34.5 84.501s11 77 11 127z" />
    <glyph glyph-name="E" unicode="E" horiz-adv-x="456" 
d="M84 0v693h311v-77h-221v-215h200v-75h-200v-249h237v-77h-327z" />
    <glyph glyph-name="F" unicode="F" horiz-adv-x="426" 
d="M84 0v693h311v-77h-221v-218h196v-75h-196v-323h-90z" />
    <glyph glyph-name="G" unicode="G" horiz-adv-x="525" 
d="M55 347c0 65.333 5.99805 120.999 17.998 166.999s29.167 83.5 51.5 112.5s49.333 50 81 63s67.167 19.5 106.5 19.5c30 0 57.333 -4.16699 82 -12.5s44.667 -17.833 60 -28.5l-28 -75c-15.333 10.667 -32 19.5 -50 26.5s-38.667 10.5 -62 10.5
c-58 0 -99.667 -23.5 -125 -70.5s-38 -117.833 -38 -212.5c0 -50.667 3.83301 -94 11.5 -130s18.5 -65.333 32.5 -88s31 -39.334 51 -50.001s42.333 -16 67 -16c20.667 0 38.334 2.33301 53.001 7v271h90v-326c-18 -8.66699 -40.333 -16 -67 -22s-54.667 -9 -84 -9
c-36 0 -69.333 7.16699 -100 21.5s-57.167 36.333 -79.5 66s-39.666 67.334 -51.999 113.001s-18.5 99.834 -18.5 162.501z" />
    <glyph glyph-name="H" unicode="H" horiz-adv-x="576" 
d="M402 693h90v-693h-90v322h-228v-322h-90v693h90v-293h228v293z" />
    <glyph glyph-name="I" unicode="I" horiz-adv-x="258" 
d="M84 693h90v-693h-90v693z" />
    <glyph glyph-name="J" unicode="J" horiz-adv-x="395" 
d="M316 184c0 -30.667 -3.16797 -58.168 -9.50098 -82.501s-16.333 -45.166 -30 -62.499s-31.667 -30.666 -54 -39.999s-49.5 -14 -81.5 -14c-25.333 0 -49.666 3.83301 -72.999 11.5s-44.333 18.5 -63 32.5l30 71c11.333 -8.66699 26.5 -16.834 45.5 -24.501
s37.5 -11.5 55.5 -11.5c14 0 26.5 1.66699 37.5 5s20.5 9.5 28.5 18.5s14 21.333 18 37s6 35.5 6 59.5v509h90v-509z" />
    <glyph glyph-name="K" unicode="K" horiz-adv-x="515" 
d="M480 693l-49.5 -74.998l-56.5 -84.5l-58.5 -85.5l-56.5 -78c20 -20 41.667 -45.167 65 -75.5s46.333 -62.333 69 -96s44 -67.834 64 -102.501s36 -66.667 48 -96h-101c-14 30.667 -30.167 62 -48.5 94s-37.666 62.833 -57.999 92.5s-41 57.167 -62 82.5
s-41.5 46.666 -61.5 63.999v-333h-90v693h90v-306c17.333 22 35.666 47 54.999 75l57.5 84l53.5 80.5l42 66.5h98z" />
    <glyph glyph-name="L" unicode="L" horiz-adv-x="417" 
d="M393 77v-77h-309v693h90v-616h219z" />
    <glyph glyph-name="M" unicode="M" horiz-adv-x="726" 
d="M325 96c-13.333 48 -27.002 94 -41.002 138l-40.5 124.5c-13 39 -25.5 74.5 -37.5 106.5s-23 60 -33 84c-2.66699 -38 -4.83398 -79.833 -6.50098 -125.5l-5 -140.5c-1.66699 -48 -3 -96.167 -4 -144.5s-1.83301 -94.5 -2.5 -138.5h-86l6 181.5c2 61 4.5 121 7.5 180
s6.33301 116.5 10 172.5s7.83398 109 12.501 159h89l41 -102.5l46.5 -124.5l45.5 -130c14.667 -43.333 27.334 -83 38.001 -119l37 119l44 130l45.5 124.5c15 39.667 28.5 73.834 40.5 102.501h89c4.66699 -50 8.83398 -103 12.501 -159s7 -113.5 10 -172.5
s5.5 -119 7.5 -180l6 -181.5h-86c-1.33301 44 -2.5 90.333 -3.5 139s-2.33301 97.5 -4 146.5s-3.5 96.667 -5.5 143s-4.33301 88.833 -7 127.5l-22.5 -62.5l-28 -81.5l-30 -90.5l-29 -89.5l-24 -78.5c-7 -23.667 -12.5 -42.834 -16.5 -57.501h-76z" />
    <glyph glyph-name="N" unicode="N" horiz-adv-x="581" 
d="M424 0c-16 39.333 -34.167 81.832 -54.5 127.499l-64 138l-68.5 138c-23.333 45.667 -46.333 88.167 -69 127.5v-531h-84v693h75c25.333 -41.333 49.833 -83.666 73.5 -126.999l67.5 -128.5l60.5 -125l52.5 -116.5v497h84v-693h-73z" />
    <glyph glyph-name="O" unicode="O" horiz-adv-x="605" 
d="M549 346c0 -54 -4.83301 -103.167 -14.5 -147.5s-24.667 -82.333 -45 -114s-46 -56.167 -77 -73.5s-67.5 -26 -109.5 -26s-78.5 8.66699 -109.5 26s-56.667 41.833 -77 73.5s-35.5 69.667 -45.5 114s-15 93.5 -15 147.5s5 103.333 15 148s25.167 82.834 45.5 114.501
s46 56.334 77 74.001s67.5 26.5 109.5 26.5s78.5 -8.83301 109.5 -26.5s56.667 -42.334 77 -74.001s35.333 -69.834 45 -114.501s14.5 -94 14.5 -148zM453 346c0 42 -2.66699 80.333 -8 115s-14 64.5 -26 89.5s-27.5 44.5 -46.5 58.5s-42.167 21 -69.5 21
s-50.5 -7 -69.5 -21s-34.5 -33.5 -46.5 -58.5s-20.833 -54.833 -26.5 -89.5s-8.5 -73 -8.5 -115s2.83301 -80.333 8.5 -115s14.5 -64.334 26.5 -89.001s27.5 -43.834 46.5 -57.501s42.167 -20.5 69.5 -20.5s50.5 6.83301 69.5 20.5s34.5 32.834 46.5 57.501
s20.667 54.334 26 89.001s8 73 8 115z" />
    <glyph glyph-name="P" unicode="P" horiz-adv-x="485" 
d="M84 683c46.667 11.333 92.334 17 137.001 17c34.667 0 66.167 -4.16699 94.5 -12.5s52.666 -21.333 72.999 -39s36 -40.5 47 -68.5s16.5 -61.667 16.5 -101c0 -40 -5.66699 -74.167 -17 -102.5s-27.333 -51.333 -48 -69s-45.5 -30.5 -74.5 -38.5s-61.167 -12 -96.5 -12
h-42v-257h-90v683zM174 336h36.001c22.667 0 43.167 2.5 61.5 7.5s33.833 13.167 46.5 24.5s22.334 26 29.001 44s10 40.333 10 67s-3.33301 49.167 -10 67.5s-15.834 33 -27.501 44s-25.834 18.833 -42.501 23.5s-35 7 -55 7c-17.333 0 -33.333 -1 -48 -3v-282z" />
    <glyph glyph-name="Q" unicode="Q" horiz-adv-x="605" 
d="M549 346c0 -47.333 -3.83203 -91.001 -11.499 -131.001s-19.167 -75.333 -34.5 -106s-35 -56.167 -59 -76.5s-52 -34.166 -84 -41.499c1.33301 -28 16.333 -49.833 45 -65.5s65.667 -27.5 111 -35.5l-21 -70c-26.667 6 -52.167 12.667 -76.5 20s-46.333 17 -66 29
s-36.334 27.333 -50.001 46s-23.5 42.667 -29.5 72c-37.333 4 -69.5 15.5 -96.5 34.5s-49.5 44.167 -67.5 75.5s-31.333 68 -40 110s-13 88.333 -13 139c0 54 5 103.333 15 148s25.167 82.834 45.5 114.501s46 56.334 77 74.001s67.5 26.5 109.5 26.5
s78.5 -8.83301 109.5 -26.5s56.667 -42.334 77 -74.001s35.333 -69.834 45 -114.501s14.5 -94 14.5 -148zM453.001 345.999c0 42 -2.66699 80.333 -8 115s-14 64.5 -26 89.5s-27.5 44.5 -46.5 58.5s-42.167 21 -69.5 21s-50.5 -7 -69.5 -21s-34.5 -33.5 -46.5 -58.5
s-20.833 -54.833 -26.5 -89.5s-8.5 -73 -8.5 -115s2.83301 -80.333 8.5 -115s14.5 -64.334 26.5 -89.001s27.5 -43.834 46.5 -57.501s42.167 -20.5 69.5 -20.5s50.5 6.83301 69.5 20.5s34.5 32.834 46.5 57.501s20.667 54.334 26 89.001s8 73 8 115z" />
    <glyph glyph-name="R" unicode="R" horiz-adv-x="514" 
d="M84 683c46.667 11.333 91.665 16.999 134.998 16.999c34.667 0 66 -4 94 -12s52 -20.667 72 -38s35.5 -39.666 46.5 -66.999s16.5 -60.333 16.5 -99c0 -48 -9.16699 -86.833 -27.5 -116.5s-43.166 -52.167 -74.499 -67.5c8 -13.333 18.167 -31.5 30.5 -54.5
s25 -48.333 38 -76s25.667 -56.167 38 -85.5s22.833 -57.333 31.5 -84h-90c-7.33301 20 -16.5 42.667 -27.5 68s-22.5 50.5 -34.5 75.5l-36 72c-12 23 -22.667 42.5 -32 58.5c-10.667 -1.33301 -21.667 -2.33301 -33 -3s-22.666 -1 -33.999 -1h-25v-270h-88v683z
M171.998 343.999h38c46 0 81.333 10.5 106 31.5s37 57.167 37 108.5c0 26 -3.16699 47.833 -9.5 65.5s-15.333 31.667 -27 42s-25.667 17.833 -42 22.5s-34.5 7 -54.5 7c-17.333 0 -33.333 -1 -48 -3v-274z" />
    <glyph glyph-name="S" unicode="S" horiz-adv-x="400" 
d="M170 62c36 0 63.8389 10 83.5059 30s29.5 47 29.5 81c0 18 -3 34 -9 48s-13.833 26.667 -23.5 38s-20.834 21.666 -33.501 30.999l-39 28l-48 34c-16.667 12 -31.834 26 -45.501 42s-24.834 34.667 -33.501 56s-13 46.333 -13 75c0 28 4.83301 53.333 14.5 76
s23 42 40 58s37.333 28.333 61 37s49.167 13 76.5 13c26.667 0 51.334 -3.33301 74.001 -10s41.667 -14.667 57 -24l-28 -71c-14 9.33301 -29.167 16.5 -45.5 21.5s-33.5 7.5 -51.5 7.5c-32.667 0 -58.834 -8.83301 -78.501 -26.5s-29.5 -43.5 -29.5 -77.5
c0 -18.667 3.16699 -35 9.5 -49s14.666 -26.667 24.999 -38s22.333 -21.666 36 -30.999l43.5 -29c15.333 -10 31 -21 47 -33s30.5 -25.833 43.5 -41.5s23.667 -34 32 -55s12.5 -45.833 12.5 -74.5c0 -26 -4 -50.667 -12 -74s-20.5 -43.833 -37.5 -61.5
s-38.333 -31.667 -64 -42s-55.834 -15.5 -90.501 -15.5c-32 0 -60 3.66699 -84 11s-45.333 17 -64 29l28 72c17.333 -10.667 35.166 -19.167 53.499 -25.5s39.5 -9.5 63.5 -9.5z" />
    <glyph glyph-name="T" unicode="T" horiz-adv-x="426" 
d="M412 693v-77h-154v-616h-90v616h-154v77h398z" />
    <glyph glyph-name="U" unicode="U" horiz-adv-x="549" 
d="M272 -15c-64.667 0 -113.167 18.333 -145.5 55s-48.5 94.667 -48.5 174v479h90v-471c0 -52.667 7.66699 -92.167 23 -118.5s43 -39.5 83 -39.5c41.333 0 69.5 13.5 84.5 40.5s22.5 66.167 22.5 117.5v471h90v-479c0 -78 -16.667 -135.667 -50 -173s-83 -56 -149 -56z" />
    <glyph glyph-name="V" unicode="V" horiz-adv-x="497" 
d="M200 0l-46 151.5c-15.333 51 -30.5 104.5 -45.5 160.5s-29.833 115.167 -44.5 177.5s-29.334 130.166 -44.001 203.499h94c8.66699 -51.333 18.334 -102.833 29.001 -154.5s22 -102.5 34 -152.5l36.5 -145.5l36.5 -133.5l36.5 133.5l36.5 145.5
c12 50 23.333 100.833 34 152.5s20.334 103.167 29.001 154.5h91c-14.667 -73.333 -29.334 -141.166 -44.001 -203.499s-29.5 -121.5 -44.5 -177.5s-30.167 -109.5 -45.5 -160.5l-46 -151.5h-97z" />
    <glyph glyph-name="W" unicode="W" horiz-adv-x="756" 
d="M424 611l28.002 -126.999c10 -44.667 20.5 -89 31.5 -133l33.5 -128l32 -113c8 37.333 15.667 78.833 23 124.5s14.5 93.5 21.5 143.5s13.5 101.667 19.5 155s11 106.666 15 159.999h88c-15.333 -134 -32.5 -257.333 -51.5 -370s-41.167 -220.334 -66.5 -323.001h-91
l-32.5 109c-11.667 40 -23.167 81.5 -34.5 124.5l-33 130.5c-10.667 44 -20.334 86.667 -29.001 128c-8.66699 -41.333 -18.334 -84 -29.001 -128l-33 -130.5c-11.333 -43 -22.833 -84.5 -34.5 -124.5l-32.5 -109h-91c-25.333 102.667 -47.5 210.334 -66.5 323.001
s-36.167 236 -51.5 370h91c4 -53.333 9 -106.5 15 -159.5s12.5 -104.667 19.5 -155s14.167 -98.333 21.5 -144s15 -87.167 23 -124.5l32 113l33.5 128c11 44 21.5 88.333 31.5 133l28 127h89z" />
    <glyph glyph-name="X" unicode="X" horiz-adv-x="471" 
d="M234 439l119.003 254.001h90l-158 -322l44.5 -93.5l46 -97l42.5 -94.5c13.333 -30.667 25 -59.334 35 -86.001h-89c-7.33301 20 -15.833 41.833 -25.5 65.5s-20.334 47.834 -32.001 72.501l-36 75.5l-36.5 74.5l-37 -74.5l-36 -75.5
c-11.333 -24.667 -21.833 -48.834 -31.5 -72.501s-17.834 -45.5 -24.501 -65.5h-87c9.33301 26 20.666 54 33.999 84l42 92.5l44.5 95.5l43.5 92l-160 329h92z" />
    <glyph glyph-name="Y" unicode="Y" horiz-adv-x="451" 
d="M448 693l-37.5 -100l-43.5 -107.5l-47 -108.5l-48 -103v-274h-90v268l-49 104l-48 110l-44 109c-14 36 -26.667 70 -38 102h97c17.333 -52.667 37 -108.334 59 -167.001s44.667 -113.334 68 -164.001c23.333 50.667 46 105.334 68 164.001s41.667 114.334 59 167.001h94z
" />
    <glyph glyph-name="Z" unicode="Z" horiz-adv-x="432" 
d="M390 622l-67 -124.5l-73.5 -147l-69 -147.5c-21.667 -48 -39.5 -90 -53.5 -126h270v-77h-366v55c10 26.667 21.667 56 35 88l43 99.5l47.5 103.5l49 101l47 92.5c15 29 28.833 54.5 41.5 76.5h-250v77h346v-71z" />
    <glyph glyph-name="bracketleft" unicode="[" horiz-adv-x="281" 
d="M94 783h181v-68h-99v-832h99v-68h-181v968z" />
    <glyph glyph-name="backslash" unicode="\" horiz-adv-x="270" 
d="M-26 783h80l242 -968h-80z" />
    <glyph glyph-name="bracketright" unicode="]" horiz-adv-x="281" 
d="M187 -185h-181v68h99v832h-99v68h181v-968z" />
    <glyph glyph-name="asciicircum" unicode="^" horiz-adv-x="430" 
d="M258 693l143 -352l-72 -29l-113 285l-113 -285l-73 29l143 352h85z" />
    <glyph glyph-name="underscore" unicode="_" horiz-adv-x="367" 
d="M-4 -109h375v-73h-375v73z" />
    <glyph glyph-name="grave" unicode="`" 
d="M89 778l118 -159l-43 -37l-136 144z" />
    <glyph glyph-name="a" unicode="a" horiz-adv-x="434" 
d="M86 514c17.333 7.33301 35.667 13.1699 55 17.5029s40.333 6.5 63 6.5c46.667 0 84.667 -14.5 114 -43.5s44 -74.167 44 -135.5v-348c-24 -6.66699 -48.5 -12 -73.5 -16s-49.5 -6 -73.5 -6s-46.5 3 -67.5 9s-39.333 15.667 -55 29s-28.167 30.166 -37.5 50.499
s-14 45.166 -14 74.499c0 27.333 4.16699 51.166 12.5 71.499s19.833 37.333 34.5 51s32 24 52 31s41.667 10.5 65 10.5c22 0 46.333 -2.66699 73 -8v48c0 38.667 -7.5 65.667 -22.5 81s-36.5 23 -64.5 23c-15.333 0 -29.833 -1.5 -43.5 -4.5s-28.167 -7.83301 -43.5 -14.5z
M127.001 153.004c0 -30.667 7.99902 -53.333 23.999 -68s38.667 -22 68 -22c18 0 37.667 2.33301 59 7v167c-20 5.33301 -39.667 8 -59 8c-12.667 0 -24.667 -1.5 -36 -4.5s-21.166 -8 -29.499 -15s-14.833 -16.333 -19.5 -28s-7 -26.5 -7 -44.5z" />
    <glyph glyph-name="b" unicode="b" horiz-adv-x="467" 
d="M163 70c9.33301 -2.66699 18.334 -4.49805 27.001 -5.49805s16.667 -1.5 24 -1.5c38.667 0 67.5 15.5 86.5 46.5s28.5 82.5 28.5 154.5c0 37.333 -2.33301 68.666 -7 93.999s-11.5 45.666 -20.5 60.999s-19.833 26.333 -32.5 33s-27.334 10 -44.001 10
c-22 0 -42.667 -5.33301 -62 -16v-376zM163.001 521.002c10.667 5.33301 21.5 9.50098 32.5 12.501s24.167 4.5 39.5 4.5c32.667 0 60.667 -6.5 84 -19.5s42.333 -31.333 57 -55s25.5 -52.334 32.5 -86.001s10.5 -71.5 10.5 -113.5c0 -92.667 -16.5 -162 -49.5 -208
s-84.833 -69 -155.5 -69c-24.667 0 -49 2.5 -73 7.5s-45.333 11.5 -64 19.5v747l86 15v-255z" />
    <glyph glyph-name="c" unicode="c" horiz-adv-x="353" 
d="M238 -13c-36 0 -65.9971 7.00195 -89.9971 21.002s-43.5 33.167 -58.5 57.5s-25.667 53.166 -32 86.499s-9.5 69.666 -9.5 108.999c0 86.667 15.833 154.5 47.5 203.5s79.5 73.5 143.5 73.5c19.333 0 36.666 -2.33301 51.999 -7s29.666 -10.667 42.999 -18l-22 -71
c-20.667 13.333 -43.667 20 -69 20c-36 0 -62.5 -16.333 -79.5 -49s-25.5 -83.334 -25.5 -152.001c0 -28.667 1.66699 -55.167 5 -79.5s9.16602 -45.166 17.499 -62.499s19.333 -31 33 -41s31.167 -15 52.5 -15c14.667 0 27.834 1.83301 39.501 5.5s22.834 8.5 33.501 14.5
l19 -67c-10.667 -7.33301 -24.834 -14 -42.501 -20s-36.834 -9 -57.501 -9z" />
    <glyph glyph-name="d" unicode="d" horiz-adv-x="467" 
d="M304 446c-19.333 10.667 -39.999 15.998 -61.999 15.998c-16.667 0 -31.334 -3.33301 -44.001 -10s-23.5 -17.667 -32.5 -33s-15.833 -35.666 -20.5 -60.999s-7 -56.666 -7 -93.999c0 -72 9.5 -123.5 28.5 -154.5s47.833 -46.5 86.5 -46.5c7.33301 0 15.333 0.5 24 1.5
s17.667 2.83301 27 5.5v376zM304.001 760.998l86 14.999v-762c-18.667 -8 -40 -14.5 -64 -19.5s-48.333 -7.5 -73 -7.5c-72 0 -124.167 23 -156.5 69s-48.5 115.333 -48.5 208c0 42 3.5 79.833 10.5 113.5s18 62.334 33 86.001s34.167 42 57.5 55s51 19.5 83 19.5
c15.333 0 28.5 -1.5 39.5 -4.5s21.833 -7.16699 32.5 -12.5v240z" />
    <glyph glyph-name="e" unicode="e" horiz-adv-x="436" 
d="M137 237c0.666992 -25.333 3.00293 -48.499 7.00293 -69.499s10.5 -39.333 19.5 -55s21 -27.834 36 -36.501s34.167 -13 57.5 -13c19.333 0 37.166 2.83301 53.499 8.5s28.166 10.5 35.499 14.5l16 -69c-8.66699 -6 -23.167 -12.5 -43.5 -19.5s-44.5 -10.5 -72.5 -10.5
c-36.667 0 -67.5 6.66699 -92.5 20s-45.333 32 -61 56s-26.834 52.667 -33.501 86s-10 70 -10 110c0 96.667 16 167.334 48 212.001s74.333 67 127 67c59.333 0 101.333 -22.333 126 -67s37 -107.334 37 -188.001v-22.5c0 -7.66699 -0.333008 -15.5 -1 -23.5h-249z
M224.003 465.001c-28.667 0 -49.5 -14.333 -62.5 -43s-20.833 -67 -23.5 -115h159c0 48.667 -5 87.167 -15 115.5s-29.333 42.5 -58 42.5z" />
    <glyph glyph-name="f" unicode="f" horiz-adv-x="306" 
d="M231 776c19.333 0 36.334 -2.00098 51.001 -6.00098s26.667 -8.33301 36 -13l-18 -68c-9.33301 4.66699 -19 8.16699 -29 10.5s-20.667 3.5 -32 3.5c-15.333 0 -28 -2.66699 -38 -8s-17.667 -12.666 -23 -21.999s-9 -20.5 -11 -33.5s-3 -26.833 -3 -41.5v-73h135v-74
h-135v-451h-86v598c0 56.667 12.667 100.5 38 131.5s63.666 46.5 114.999 46.5z" />
    <glyph glyph-name="g" unicode="g" horiz-adv-x="467" 
d="M390 15c0 -37.333 -4.83691 -68.834 -14.5039 -94.501s-22.834 -46.5 -39.501 -62.5s-36.167 -27.667 -58.5 -35s-46.166 -11 -71.499 -11c-21.333 0 -42.666 2.33301 -63.999 7s-41 11.667 -59 21l18 72c12 -6.66699 26.667 -12.667 44 -18s35.333 -8 54 -8
c32.667 0 58.334 9.33301 77.001 28s28 50.667 28 96v25c-10.667 -4.66699 -22 -8.5 -34 -11.5s-25.667 -4.5 -41 -4.5c-62.667 0 -108.5 21.5 -137.5 64.5s-43.5 103.833 -43.5 182.5c0 42 3.83301 79.833 11.5 113.5s19.667 62.334 36 86.001s37.5 41.667 63.5 54
s57.667 18.5 95 18.5c24.667 0 48.834 -2.5 72.501 -7.5s44.834 -11.5 63.501 -19.5v-496zM303.996 454.999c-9.33301 2.66699 -18.3311 4.5 -26.998 5.5s-16.667 1.5 -24 1.5c-40 0 -69.167 -15.333 -87.5 -46s-27.5 -80.667 -27.5 -150c0 -62.667 9 -106.834 27 -132.501
s43.667 -38.5 77 -38.5c11.333 0 22.166 1.33301 32.499 4s20.166 6.33398 29.499 11.001v345z" />
    <glyph glyph-name="h" unicode="h" horiz-adv-x="482" 
d="M78 0l0.00195312 761l86 15v-254c12.667 4 26.5 7.33301 41.5 10s30.167 4 45.5 4c22 0 42.667 -3.5 62 -10.5s36.166 -18.833 50.499 -35.5s25.666 -39.167 33.999 -67.5s12.5 -63.5 12.5 -105.5v-317h-86v310c0 52 -6.66699 90 -20 114s-38.333 36 -75 36
c-19.333 0 -41 -3.33301 -65 -10v-450h-86z" />
    <glyph glyph-name="i" unicode="i" horiz-adv-x="242" 
d="M164 0h-86v525h86v-525zM121 618c-15.333 0 -28.5 5.16699 -39.5 15.5s-16.5 24.166 -16.5 41.499s5.5 31.166 16.5 41.499s24.167 15.5 39.5 15.5s28.5 -5.16699 39.5 -15.5s16.5 -24.166 16.5 -41.499s-5.5 -31.166 -16.5 -41.499s-24.167 -15.5 -39.5 -15.5z" />
    <glyph glyph-name="j" unicode="j" horiz-adv-x="242" 
d="M164 -28c0 -57.333 -12.667 -98.332 -38 -122.999s-59 -37 -101 -37c-22 0 -41.667 3.33301 -59 10l12 73c6 -1.33301 12 -2.5 18 -3.5s12.667 -1.5 20 -1.5c9.33301 0 17.833 1.16699 25.5 3.5s14.167 6.83301 19.5 13.5s9.5 15.667 12.5 27s4.5 25.666 4.5 42.999v548
h86v-553zM121 618.001c-15.333 0 -28.5 5.16699 -39.5 15.5s-16.5 24.166 -16.5 41.499s5.5 31.166 16.5 41.499s24.167 15.5 39.5 15.5s28.5 -5.16699 39.5 -15.5s16.5 -24.166 16.5 -41.499s-5.5 -31.166 -16.5 -41.499s-24.167 -15.5 -39.5 -15.5z" />
    <glyph glyph-name="k" unicode="k" horiz-adv-x="427" 
d="M403 525c-28 -48 -54.8291 -91.8311 -80.4961 -131.498s-51.167 -76.834 -76.5 -111.501c16 -18.667 32.333 -39.667 49 -63s32.667 -47.5 48 -72.5s29.666 -50 42.999 -75s24.666 -48.833 33.999 -71.5h-94c-10 22 -21.667 45 -35 69s-27.333 47.5 -42 70.5
s-29.334 44.833 -44.001 65.5s-28.334 38 -41.001 52v-257h-86v761l86 15v-477l38.5 54l40.5 60.5l38 59.5c12 19.333 22 36.666 30 51.999h92z" />
    <glyph glyph-name="l" unicode="l" horiz-adv-x="243" 
d="M214 -10c-49.333 1.33301 -84.666 13.499 -105.999 36.499s-32 59.5 -32 109.5v625l86 15v-642c0 -23.333 4.66699 -40.166 14 -50.499s25.666 -17.5 48.999 -21.5z" />
    <glyph glyph-name="m" unicode="m" horiz-adv-x="698" 
d="M78 510c23.333 7.33301 48.667 13.5 76 18.5s52.333 7.5 75 7.5c23.333 0 44.5 -3 63.5 -9s35.833 -16 50.5 -30c17.333 11.333 36 20.666 56 27.999s42 11 66 11s45.833 -3.5 65.5 -10.5s36.5 -18.833 50.5 -35.5s25 -39.167 33 -67.5s12 -63.5 12 -105.5v-317h-86v310
c0 52 -6 90 -18 114s-34.667 36 -68 36c-12.667 0 -25.5 -2.33301 -38.5 -7s-25.167 -11 -36.5 -19c5.33301 -15.333 9.33301 -32.666 12 -51.999s4 -41 4 -65v-317h-86v310c0 52 -6 90 -18 114s-34.667 36 -68 36c-17.333 0 -37 -3.33301 -59 -10v-450h-86v510z" />
    <glyph glyph-name="n" unicode="n" horiz-adv-x="482" 
d="M78 510c24.667 7.33301 51.333 13.5 80 18.5s55 7.5 79 7.5c26 0 49.667 -3.5 71 -10.5s39.5 -18.833 54.5 -35.5s26.667 -39.167 35 -67.5s12.5 -63.5 12.5 -105.5v-317h-86v310c0 52 -6.66699 90 -20 114s-38.333 36 -75 36c-19.333 0 -41 -3.33301 -65 -10v-450h-86
v510z" />
    <glyph glyph-name="o" unicode="o" horiz-adv-x="463" 
d="M415 262c0 -41.333 -3.66699 -78.833 -11 -112.5s-18.5 -62.5 -33.5 -86.5s-34 -42.667 -57 -56s-50.167 -20 -81.5 -20s-58.666 6.66699 -81.999 20s-42.5 32 -57.5 56s-26.167 52.833 -33.5 86.5s-11 71.167 -11 112.5c0 40.667 3.66699 78 11 112
s18.5 63.167 33.5 87.5s34.167 43.166 57.5 56.499s50.666 20 81.999 20s58.5 -6.66699 81.5 -20s42 -32.166 57 -56.499s26.167 -53.5 33.5 -87.5s11 -71.333 11 -112zM325 262c0 29.333 -1.66699 56.166 -5 80.499s-8.66602 45.333 -15.999 63s-17 31.334 -29 41.001
s-26.333 14.5 -43 14.5c-17.333 0 -31.833 -4.83301 -43.5 -14.5s-21.334 -23.334 -29.001 -41.001s-13.167 -38.667 -16.5 -63s-5 -51.166 -5 -80.499s1.66699 -56.166 5 -80.499s8.83301 -45.166 16.5 -62.499s17.334 -30.833 29.001 -40.5s26.167 -14.5 43.5 -14.5
c16.667 0 31 4.83301 43 14.5s21.667 23.167 29 40.5s12.666 38.166 15.999 62.499s5 51.166 5 80.499z" />
    <glyph glyph-name="p" unicode="p" horiz-adv-x="467" 
d="M163 79c19.333 -10.667 39.999 -15.998 61.999 -15.998c16.667 0 31.334 3.33301 44.001 10s23.5 17.667 32.5 33s15.833 35.666 20.5 60.999s7 56.666 7 93.999c0 72 -9.16699 123.5 -27.5 154.5s-47.5 46.5 -87.5 46.5c-7.33301 0 -15.333 -0.5 -24 -1.5
s-17.667 -2.83301 -27 -5.5v-376zM162.999 -184.998l-86.001 0.00195312v696c18.667 8 39.834 14.5 63.501 19.5s47.834 7.5 72.501 7.5c36.667 0 68.167 -6.33301 94.5 -19s47.666 -30.834 63.999 -54.501s28.333 -52.667 36 -87s11.5 -73.5 11.5 -117.5
c0 -88.667 -14.167 -156.334 -42.5 -203.001s-74.5 -70 -138.5 -70c-15.333 0 -29 1.5 -41 4.5s-23.333 7.16699 -34 12.5v-189z" />
    <glyph glyph-name="q" unicode="q" horiz-adv-x="467" 
d="M304 455c-9.33301 2.66699 -18.334 4.49805 -27.001 5.49805s-16.667 1.5 -24 1.5c-40 0 -69.167 -15.5 -87.5 -46.5s-27.5 -82.5 -27.5 -154.5c0 -37.333 2.33301 -68.666 7 -93.999s11.5 -45.666 20.5 -60.999s19.833 -26.333 32.5 -33s27.334 -10 44.001 -10
c22 0 42.667 5.33301 62 16v376zM303.999 3.99805c-10.667 -5.33301 -22.002 -9.50195 -34.002 -12.502s-25.667 -4.5 -41 -4.5c-64 0 -110.167 23.333 -138.5 70s-42.5 114.334 -42.5 203.001c0 44 3.83301 83.167 11.5 117.5s19.667 63.333 36 87s37.5 41.834 63.5 54.501
s57.667 19 95 19c24.667 0 48.834 -2.5 72.501 -7.5s44.834 -11.5 63.501 -19.5v-696h-86v189z" />
    <glyph glyph-name="r" unicode="r" horiz-adv-x="328" 
d="M305 447c-21.333 9.33301 -45.333 14.001 -72 14.001c-24.667 0 -47.667 -4.33301 -69 -13v-448h-86v502c19.333 9.33301 41.5 17.166 66.5 23.499s52.5 9.5 82.5 9.5c16 0 32 -1 48 -3s31 -5.66699 45 -11z" />
    <glyph glyph-name="s" unicode="s" horiz-adv-x="341" 
d="M151 61c25.333 0 44.498 7.17188 57.498 21.5049s19.5 33.166 19.5 56.499c0 14.667 -2.66699 27.167 -8 37.5s-12.333 19.5 -21 27.5s-18.667 15.167 -30 21.5s-22.666 13.166 -33.999 20.499c-11.333 6.66699 -22.333 14.5 -33 23.5s-20.167 19.333 -28.5 31
s-15 25 -20 40s-7.5 32.5 -7.5 52.5c0 43.333 13.5 78.333 40.5 105s63.5 40 109.5 40c19.333 0 37.666 -2.5 54.999 -7.5s31.666 -10.5 42.999 -16.5l-19 -69c-12 6.66699 -24 11.667 -36 15s-25 5 -39 5c-21.333 0 -38.333 -6.16699 -51 -18.5s-19 -30.166 -19 -53.499
c0 -13.333 2.33301 -24.833 7 -34.5s10.834 -18.334 18.501 -26.001s16.334 -14.834 26.001 -21.501s19.834 -13 30.501 -19c12.667 -7.33301 25.167 -15.333 37.5 -24s23.333 -18.834 33 -30.501s17.5 -25.334 23.5 -41.001s9 -34.5 9 -56.5c0 -46 -13.5 -83 -40.5 -111
s-66.5 -42 -118.5 -42c-26.667 0 -50.667 3.66699 -72 11s-37.333 14 -48 20l18 71c10 -5.33301 23.5 -11.333 40.5 -18s35.833 -10 56.5 -10z" />
    <glyph glyph-name="t" unicode="t" horiz-adv-x="321" 
d="M158 525h132.001v-74h-132v-289c0 -36 6.5 -61.167 19.5 -75.5s30.5 -21.5 52.5 -21.5c11.333 0 22.166 1.66699 32.499 5s19.166 7.33301 26.499 12l17 -69c-27.333 -16 -56.333 -24 -87 -24c-49.333 0 -86.166 13.833 -110.499 41.5s-36.5 73.5 -36.5 137.5v498l86 15
v-156z" />
    <glyph glyph-name="u" unicode="u" horiz-adv-x="480" 
d="M403 15c-8.66699 -3.33301 -19.167 -6.5 -31.5 -9.5s-25.333 -5.66699 -39 -8s-27.334 -4.33301 -41.001 -6s-26.167 -2.5 -37.5 -2.5c-27.333 0 -52.333 3.16699 -75 9.5s-42 17.5 -58 33.5s-28.333 37.833 -37 65.5s-13 62.5 -13 104.5v323h86v-320
c0 -51.333 7.83301 -87.5 23.5 -108.5s39.5 -31.5 71.5 -31.5c10.667 0 21.334 0.5 32.001 1.5s21.667 3.16699 33 6.5v452h86v-510z" />
    <glyph glyph-name="v" unicode="v" horiz-adv-x="397" 
d="M200 101c8 26.667 16.5029 58 25.5029 94s17.833 73.167 26.5 111.5s16.834 76.5 24.501 114.5s14.167 72.667 19.5 104h86c-8.66699 -44 -18.834 -90.333 -30.501 -139l-36 -143.5c-12.333 -47 -24.833 -91.5 -37.5 -133.5s-24.334 -78.333 -35.001 -109h-89
c-10.667 30.667 -22.334 67 -35.001 109s-25.167 86.5 -37.5 133.5l-36 143.5c-11.667 48.667 -21.834 95 -30.501 139h91c5.33301 -31.333 11.833 -66 19.5 -104l24 -114.5c8.33301 -38.333 16.833 -75.5 25.5 -111.5s17 -67.333 25 -94z" />
    <glyph glyph-name="w" unicode="w" horiz-adv-x="573" 
d="M216 0h-87.0039c-20.667 68.667 -40.167 147.667 -58.5 237s-35.166 185.333 -50.499 288h85c2.66699 -28.667 6.66699 -62.167 12 -100.5s11.166 -77.666 17.499 -117.999s12.833 -79.333 19.5 -117s13 -69.834 19 -96.501c6 26.667 12.833 59.334 20.5 98.001l23 119
l21.5 118.5c6.66699 38.333 12 70.5 16 96.5h81c2.66699 -26 6.83398 -58 12.501 -96l18 -118.5c6.33301 -41 12.833 -80.833 19.5 -119.5s12.667 -71.334 18 -98.001c6 26.667 12.333 59 19 97s13.167 77 19.5 117s12.166 79.167 17.499 117.5s9.33301 71.833 12 100.5h82
c-15.333 -102.667 -32.166 -198.667 -50.499 -288s-37.833 -168.333 -58.5 -237h-84c-5.33301 20.667 -11.166 47.167 -17.499 79.5s-12.666 66.833 -18.999 103.5s-12.166 73.5 -17.499 110.5s-10 70.833 -14 101.5c-4 -30.667 -9.33301 -64.5 -16 -101.5
s-13.667 -73.833 -21 -110.5l-21.5 -103.5z" />
    <glyph glyph-name="x" unicode="x" horiz-adv-x="392" 
d="M243 278l35.5 -66l36.5 -71c12 -24 23.333 -48 34 -72s20 -47 28 -69h-85c-13.333 38.667 -28.833 75.5 -46.5 110.5s-35.167 67.833 -52.5 98.5c-16.667 -30.667 -33.5 -63.5 -50.5 -98.5s-32.167 -71.833 -45.5 -110.5h-82c7.33301 22 16.5 44.833 27.5 68.5l34.5 71.5
l36.5 70.5l35.5 65.5l-129 249h87l90 -178l91 178h84z" />
    <glyph glyph-name="y" unicode="y" horiz-adv-x="396" 
d="M199 109c19.333 66.667 37.002 133.666 53.002 200.999s31.333 139 46 215h85c-10 -48.667 -20.833 -96.667 -32.5 -144s-23.667 -93 -36 -137s-24.666 -85.5 -36.999 -124.5l-34.5 -106.5c-12.667 -37.333 -24.834 -68.833 -36.501 -94.5
s-24.334 -46.334 -38.001 -62.001s-28.5 -27 -44.5 -34s-35 -10.5 -57 -10.5c-12 0 -24 1.5 -36 4.5s-22 6.16699 -30 9.5l16 70c17.333 -7.33301 33.666 -11 48.999 -11c19.333 0 35 7 47 21s23.667 35 35 63l10 25c-12.667 34.667 -25.5 73.167 -38.5 115.5
s-25.667 86.5 -38 132.5s-24.166 93.167 -35.499 141.5s-21.666 95.5 -30.999 141.5h91c5.33301 -31.333 11.666 -65.666 18.999 -102.999s15.166 -74.666 23.499 -111.999s16.833 -73.5 25.5 -108.5s17 -65.833 25 -92.5z" />
    <glyph glyph-name="z" unicode="z" horiz-adv-x="356" 
d="M319 461l-50.001 -88.001l-55.5 -104.5l-52 -105c-16.333 -34.333 -29.5 -64.166 -39.5 -89.499h204v-74h-293v62c10.667 29.333 24.334 62 41.001 98l52.5 108l54 102.5l45.5 80.5h-181v74h274v-64z" />
    <glyph glyph-name="braceleft" unicode="{" horiz-adv-x="266" 
d="M37 332c22 2.66699 38.333 14.502 49 35.502s16 50.167 16 87.5v172c0 57.333 13.5 97.666 40.5 120.999s66.167 35 117.5 35v-67c-28 0 -47.667 -7.16699 -59 -21.5s-17 -36.5 -17 -66.5v-171c0 -78 -23 -130.667 -69 -158c46 -27.333 69 -80 69 -158v-171
c0 -30 5.66699 -52.167 17 -66.5s31 -21.5 59 -21.5v-67c-51.333 0 -90.5 11.667 -117.5 35s-40.5 63.666 -40.5 120.999v172c0 37.333 -5.33301 66.5 -16 87.5s-27 32.833 -49 35.5v66z" />
    <glyph glyph-name="bar" unicode="|" horiz-adv-x="269" 
d="M94 783h81v-968h-81v968z" />
    <glyph glyph-name="braceright" unicode="}" horiz-adv-x="266" 
d="M229 266c-22 -2.66699 -38.333 -14.502 -49 -35.502s-16 -50.167 -16 -87.5v-172c0 -57.333 -13.5 -97.666 -40.5 -120.999s-66.167 -35 -117.5 -35v67c28 0 47.667 7.16699 59 21.5s17 36.5 17 66.5v171c0 78 23 130.667 69 158c-46 27.333 -69 80 -69 158v171
c0 30 -5.66699 52.167 -17 66.5s-31 21.5 -59 21.5v67c51.333 0 90.5 -11.667 117.5 -35s40.5 -63.666 40.5 -120.999v-172c0 -37.333 5.33301 -66.5 16 -87.5s27 -32.833 49 -35.5v-66z" />
    <glyph glyph-name="asciitilde" unicode="~" horiz-adv-x="430" 
d="M140 376c18 0 34.0039 -3.83301 48.0039 -11.5s26.833 -16.334 38.5 -26.001s22.667 -18.334 33 -26.001s21.166 -11.5 32.499 -11.5c16 0 27.667 6.66699 35 20s13.666 30.666 18.999 51.999l59 -18c-2 -14.667 -5.5 -29.834 -10.5 -45.501s-12 -29.834 -21 -42.501
s-20.333 -23.167 -34 -31.5s-30.5 -12.5 -50.5 -12.5c-18 0 -33.833 3.83301 -47.5 11.5s-26.334 16.334 -38.001 26.001s-22.834 18.334 -33.501 26.001s-21.334 11.5 -32.001 11.5c-14 0 -25.167 -6.66699 -33.5 -20s-15.166 -30.666 -20.499 -51.999l-59 18
c2 14.667 5.5 29.834 10.5 45.501s12 29.834 21 42.501s20.333 23.167 34 31.5s30.167 12.5 49.5 12.5z" />
    <glyph glyph-name="uni00A0" unicode="&#xa0;" horiz-adv-x="195" 
 />
    <glyph glyph-name="exclamdown" unicode="&#xa1;" horiz-adv-x="263" 
d="M85 21c0 56 2 106.833 6 152.5s9 91.167 15 136.5h51c6 -45.333 11 -90.833 15 -136.5s6 -96.5 6 -152.5v-206h-93v206zM191 478c0 -15.333 -5.5 -29 -16.5 -41s-25.5 -18 -43.5 -18s-32.333 6 -43 18s-16 25.667 -16 41c0 16 5.33301 30 16 42s25 18 43 18
s32.5 -6 43.5 -18s16.5 -26 16.5 -42z" />
    <glyph glyph-name="cent" unicode="&#xa2;" horiz-adv-x="430" 
d="M280 556c17.333 -1.33301 32.666 -4.33594 45.999 -9.00293s26.333 -10 39 -16l-22 -71c-10.667 6.66699 -21.667 11.667 -33 15s-24.333 5 -39 5c-38 0 -65.667 -15.167 -83 -45.5s-26 -77.833 -26 -142.5c0 -27.333 1.66699 -52.333 5 -75
s9.16602 -42.167 17.499 -58.5s19.833 -29.166 34.5 -38.499s33 -14 55 -14c15.333 0 29 1.83301 41 5.5s23.667 8.5 35 14.5l19 -67c-10 -7.33301 -22.667 -13.666 -38 -18.999s-32.333 -8.66602 -51 -9.99902v-131h-79v140c-24 7.33301 -44.167 18.833 -60.5 34.5
s-29.666 34.5 -39.999 56.5s-17.666 46.667 -21.999 74s-6.5 56.666 -6.5 87.999c0 67.333 10.5 122.833 31.5 166.5s53.5 72.834 97.5 87.501v139h79v-129z" />
    <glyph glyph-name="sterling" unicode="&#xa3;" horiz-adv-x="430" 
d="M339 303l-140 -0.00195312v-13c0 -32.667 -1.5 -68.334 -4.5 -107.001s-7.16699 -75 -12.5 -109h219v-74h-314c8 46.667 14.333 93.334 19 140.001s7 94.334 7 143.001v20h-69v69h69v145c0 30.667 4.33301 57.834 13 81.501s20.834 43.5 36.501 59.5s34.167 28 55.5 36
s44.666 12 69.999 12c21.333 0 40.833 -2.5 58.5 -7.5s32.167 -11.167 43.5 -18.5l-20 -72c-10.667 6.66699 -22.5 12 -35.5 16s-25.833 6 -38.5 6c-31.333 0 -55.333 -9.83301 -72 -29.5s-25 -48.167 -25 -85.5v-143h140v-69z" />
    <glyph glyph-name="currency" unicode="&#xa4;" horiz-adv-x="430" 
d="M67 348c0 41.333 7.33301 77.666 22 108.999l-59 81l58 50l51 -71c23.333 14.667 49 22 77 22c28.667 0 54 -7.33301 76 -22l52 71l58 -50l-59 -81c14.667 -31.333 22 -67.666 22 -108.999c0 -40.667 -7.33301 -76.667 -22 -108l59 -80l-58 -50l-51 69
c-22 -14.667 -47.667 -22 -77 -22c-28.667 0 -54.667 7.33301 -78 22l-50 -69l-58 50l58 80c-14 30 -21 66 -21 108zM137 348c0 -39.333 7 -69.833 21 -91.5s33.333 -32.5 58 -32.5s44 10.833 58 32.5s21 52.167 21 91.5s-7 69.833 -21 91.5s-33.333 32.5 -58 32.5
s-44 -10.833 -58 -32.5s-21 -52.167 -21 -91.5z" />
    <glyph glyph-name="yen" unicode="&#xa5;" horiz-adv-x="430" 
d="M377 121h-118v-121h-86v121h-121v66h121v94h-121v66h92c-29.333 68.667 -54.333 131 -75 187l-57 159h85c8 -26 16.833 -52.833 26.5 -80.5l30 -83l31.5 -81l31 -73.5l31 73.5l31.5 81l30 83c9.66699 27.667 18.5 54.5 26.5 80.5h82l-57.5 -159
c-21 -56 -45.833 -118.333 -74.5 -187h92v-66h-118v-94h118v-66z" />
    <glyph glyph-name="brokenbar" unicode="&#xa6;" horiz-adv-x="269" 
d="M94 400v383h81v-383h-81zM175 198v-383h-81v383h81z" />
    <glyph glyph-name="section" unicode="&#xa7;" horiz-adv-x="400" 
d="M41 308c0 35.333 8 65.4971 24 90.4971s34 44.167 54 57.5c-15.333 13.333 -27.833 28.833 -37.5 46.5s-14.5 39.167 -14.5 64.5c0 22.667 4.16699 42.834 12.5 60.501s19.666 32.5 33.999 44.5s31 21.167 50 27.5s39.167 9.5 60.5 9.5c26 0 48.833 -3 68.5 -9
s37.5 -13.667 53.5 -23l-21 -65c-11.333 6.66699 -25.166 12.667 -41.499 18s-34.166 8 -53.499 8c-22.667 0 -41.834 -6 -57.501 -18s-23.5 -29.667 -23.5 -53c0 -13.333 2.66699 -25.166 8 -35.499s12.333 -19.5 21 -27.5s18.834 -15.167 30.501 -21.5l35.5 -19.5
c14 -7.33301 27.833 -15.833 41.5 -25.5s26 -21 37 -34s20 -27.833 27 -44.5s10.5 -36 10.5 -58c0 -34 -7 -63.167 -21 -87.5s-30.667 -43.5 -50 -57.5c16 -13.333 29.167 -29.166 39.5 -47.499s15.5 -41.5 15.5 -69.5c0 -23.333 -4.16699 -44.166 -12.5 -62.499
s-20 -33.833 -35 -46.5s-32.833 -22.334 -53.5 -29.001s-43.334 -10 -68.001 -10c-25.333 0 -49.333 2.83301 -72 8.5s-42.334 13.167 -59.001 22.5l17 66c36.667 -17.333 74.667 -26 114 -26c24 0 44.333 6.5 61 19.5s25 31.5 25 55.5c0 14.667 -2.16699 27 -6.5 37
s-10.666 18.667 -18.999 26s-18.333 14.166 -30 20.499l-38.5 20.5c-14.667 7.33301 -29.5 15.5 -44.5 24.5s-28.5 19.833 -40.5 32.5s-21.833 27.834 -29.5 45.501s-11.5 39.167 -11.5 64.5zM120 316.997c0 -17.333 2.83203 -32.166 8.49902 -44.499s13 -23 22 -32
s19.5 -16.833 31.5 -23.5s24.667 -13 38 -19l17 -9c29.333 25.333 44 59.666 44 102.999c0 15.333 -2.33301 28.666 -7 39.999s-11 21.333 -19 30s-17.167 16.5 -27.5 23.5s-21.166 13.833 -32.499 20.5c-5.33301 2.66699 -10.333 5.33398 -15 8.00098l-15 9
c-14 -12 -25 -27.333 -33 -46s-12 -38.667 -12 -60z" />
    <glyph glyph-name="dieresis" unicode="&#xa8;" 
d="M74 618c-15.333 0 -28.5 5.16699 -39.5 15.5s-16.5 24.166 -16.5 41.499s5.5 31.166 16.5 41.499s24.167 15.5 39.5 15.5s28.5 -5.16699 39.5 -15.5s16.5 -24.166 16.5 -41.499s-5.5 -31.166 -16.5 -41.499s-24.167 -15.5 -39.5 -15.5zM240 618
c-15.333 0 -28.5 5.16699 -39.5 15.5s-16.5 24.166 -16.5 41.499s5.5 31.166 16.5 41.499s24.167 15.5 39.5 15.5s28.5 -5.16699 39.5 -15.5s16.5 -24.166 16.5 -41.499s-5.5 -31.166 -16.5 -41.499s-24.167 -15.5 -39.5 -15.5z" />
    <glyph glyph-name="copyright" unicode="&#xa9;" horiz-adv-x="711" 
d="M648 348c0 -58.667 -8 -110.5 -24 -155.5s-37.5 -82.833 -64.5 -113.5s-58 -54 -93 -70s-71.833 -24 -110.5 -24s-75.667 8 -111 24s-66.5 39.333 -93.5 70s-48.5 68.5 -64.5 113.5s-24 96.833 -24 155.5s8 110.334 24 155.001s37.5 82.334 64.5 113.001
s58.167 53.834 93.5 69.501s72.333 23.5 111 23.5s75.5 -7.83301 110.5 -23.5s66 -38.834 93 -69.501s48.5 -68.334 64.5 -113.001s24 -96.334 24 -155.001zM580 348c0 46.667 -5.5 88.5 -16.5 125.5s-26.5 68.333 -46.5 94s-43.667 45.334 -71 59.001
s-57.333 20.5 -90 20.5s-62.834 -6.83301 -90.501 -20.5s-51.5 -33.334 -71.5 -59.001s-35.5 -57 -46.5 -94s-16.5 -78.833 -16.5 -125.5s5.5 -88.667 16.5 -126s26.5 -69 46.5 -95s43.833 -45.833 71.5 -59.5s57.834 -20.5 90.501 -20.5s62.667 6.83301 90 20.5
s51 33.5 71 59.5s35.5 57.667 46.5 95s16.5 79.333 16.5 126zM214 348c0 66 13.8311 116.667 41.498 152s65.5 53 113.5 53c33.333 0 65 -9 95 -27l-16 -57c-10.667 6 -22.667 11.167 -36 15.5s-26.333 6.5 -39 6.5c-27.333 0 -48.833 -11.833 -64.5 -35.5
s-23.5 -59.5 -23.5 -107.5s8.16699 -83.833 24.5 -107.5s38.5 -35.5 66.5 -35.5c12.667 0 25.834 2.16699 39.501 6.5s26.167 9.5 37.5 15.5l16 -57c-31.333 -18 -63.666 -27 -96.999 -27c-49.333 0 -88 17.667 -116 53s-42 86 -42 152z" />
    <glyph glyph-name="ordfeminine" unicode="&#xaa;" horiz-adv-x="317" 
d="M202 495c-6.66699 1.33301 -13.5 2.33301 -20.5 3s-14.167 1 -21.5 1c-14 0 -27.333 -3.83301 -40 -11.5s-19 -22.167 -19 -43.5c0 -20.667 5.5 -35.5 16.5 -44.5s26.5 -13.5 46.5 -13.5c14 0 26.667 1.66699 38 5v104zM153 706
c21.333 0 39.166 -3.16797 53.499 -9.50098s26 -15 35 -26s15.333 -24 19 -39s5.5 -31.167 5.5 -48.5v-238c-13.333 -4 -29 -7.66699 -47 -11s-37 -5 -57 -5c-38 0 -68.5 9.16699 -91.5 27.5s-34.5 47.5 -34.5 87.5c0 20 3.16699 37 9.5 51s15 25.5 26 34.5
s23.667 15.667 38 20s29.5 6.5 45.5 6.5s31.667 -2 47 -6v34c0 18.667 -4.33301 33.667 -13 45s-24 17 -46 17c-12 0 -24 -1.5 -36 -4.5s-22.667 -6.83301 -32 -11.5l-9 58c10.667 4.66699 23.834 8.83398 39.501 12.501s31.5 5.5 47.5 5.5z" />
    <glyph glyph-name="guillemotleft" unicode="&#xab;" horiz-adv-x="453" 
d="M222 92l-66 -29l-128 221l128 221l66 -29l-94 -192zM411 92l-66 -29l-128 221l128 221l66 -29l-94 -192z" />
    <glyph glyph-name="logicalnot" unicode="&#xac;" horiz-adv-x="430" 
d="M367 133h-74v188h-270v73h344v-261z" />
    <glyph glyph-name="uni00AD" unicode="&#xad;" horiz-adv-x="233" 
d="M24 340h185v-81h-185v81z" />
    <glyph glyph-name="registered" unicode="&#xae;" horiz-adv-x="711" 
d="M427 150c-12 31.333 -24.8311 60.166 -38.498 86.499s-25.167 47.166 -34.5 62.499h-41v-149h-66v384c15.333 4.66699 31.166 8.16699 47.499 10.5s31.166 3.5 44.499 3.5c92.667 0 139 -42.333 139 -127c0 -47.333 -20.333 -82.333 -61 -105l3 -6l18.5 -31.5
c7 -12.333 14 -25.666 21 -39.999s13.667 -29.166 20 -44.499s11.833 -30 16.5 -44h-69zM344.002 490c-5.33301 0 -10.5 -0.166016 -15.5 -0.499023s-10.167 -0.833008 -15.5 -1.5v-135h25c20 0 36.833 4.5 50.5 13.5s20.5 27.167 20.5 54.5
c0 25.333 -6.5 43.166 -19.5 53.499s-28.167 15.5 -45.5 15.5zM648.002 348.001c0 -58.667 -8 -110.5 -24 -155.5s-37.5 -82.833 -64.5 -113.5s-58 -54 -93 -70s-71.833 -24 -110.5 -24s-75.667 8 -111 24s-66.5 39.333 -93.5 70s-48.5 68.5 -64.5 113.5
s-24 96.833 -24 155.5s8 110.334 24 155.001s37.5 82.334 64.5 113.001s58.167 53.834 93.5 69.501s72.333 23.5 111 23.5s75.5 -7.83301 110.5 -23.5s66 -38.834 93 -69.501s48.5 -68.334 64.5 -113.001s24 -96.334 24 -155.001zM580.002 348.001
c0 46.667 -5.5 88.5 -16.5 125.5s-26.5 68.333 -46.5 94s-43.667 45.334 -71 59.001s-57.333 20.5 -90 20.5s-62.834 -6.83301 -90.501 -20.5s-51.5 -33.334 -71.5 -59.001s-35.5 -57 -46.5 -94s-16.5 -78.833 -16.5 -125.5s5.5 -88.667 16.5 -126s26.5 -69 46.5 -95
s43.833 -45.833 71.5 -59.5s57.834 -20.5 90.501 -20.5s62.667 6.83301 90 20.5s51 33.5 71 59.5s35.5 57.667 46.5 95s16.5 79.333 16.5 126z" />
    <glyph glyph-name="macron" unicode="&#xaf;" 
d="M50 711h213v-68h-213v68z" />
    <glyph glyph-name="degree" unicode="&#xb0;" horiz-adv-x="288" 
d="M264 637c0 -18.667 -3.33301 -35.334 -10 -50.001s-15.5 -27.167 -26.5 -37.5s-23.667 -18.166 -38 -23.499s-29.5 -8 -45.5 -8s-31.333 2.66699 -46 8s-27.5 13.166 -38.5 23.499s-19.667 22.833 -26 37.5s-9.5 31.334 -9.5 50.001s3.16699 35.334 9.5 50.001
s15 27.167 26 37.5s23.833 18.166 38.5 23.499s30 8 46 8s31.167 -2.66699 45.5 -8s27 -13.166 38 -23.499s19.833 -22.833 26.5 -37.5s10 -31.334 10 -50.001zM202 637c0 19.333 -5.66699 34.333 -17 45s-25 16 -41 16s-29.667 -5.33301 -41 -16s-17 -25.667 -17 -45
s5.66699 -34.333 17 -45s25 -16 41 -16s29.667 5.33301 41 16s17 25.667 17 45z" />
    <glyph glyph-name="plusminus" unicode="&#xb1;" horiz-adv-x="430" 
d="M43 342h135v144h74v-144h135v-73h-135v-145h-74v145h-135v73zM43 58h344v-73h-344v73z" />
    <glyph glyph-name="twosuperior" unicode="&#xb2;" horiz-adv-x="280" 
d="M239 595c0 -16 -2.49902 -30.998 -7.49902 -44.998s-11.333 -27.167 -19 -39.5s-16 -24 -25 -35l-25.5 -30.5c-9.33301 -11.333 -18.333 -23.166 -27 -35.499s-14.667 -25.166 -18 -38.499h127v-65h-210v17c0 17.333 2.5 33.666 7.5 48.999s11.333 29.666 19 42.999
s16.334 26.166 26.001 38.499l28.5 35.5c17.333 21.333 30.666 39.333 39.999 54s14 29.667 14 45c0 16 -4.5 27.833 -13.5 35.5s-19.5 11.5 -31.5 11.5c-10 0 -20.5 -2.33301 -31.5 -7s-21.167 -10.667 -30.5 -18l-30 53c15.333 11.333 31.166 20.166 47.499 26.499
s33.833 9.5 52.5 9.5c31.333 0 57 -9.33301 77 -28s30 -44 30 -76z" />
    <glyph glyph-name="threesuperior" unicode="&#xb3;" horiz-adv-x="280" 
d="M111 363c18 0 32.6699 5.16602 44.0029 15.499s17 23.833 17 40.5c0 21.333 -7.5 36.833 -22.5 46.5s-31.167 14.5 -48.5 14.5h-24v59h28c6 0 12.333 0.833008 19 2.5s13 4.5 19 8.5s11 9.33301 15 16s6 15 6 25c0 15.333 -4.5 26.666 -13.5 33.999s-20.833 11 -35.5 11
c-11.333 0 -22.166 -2 -32.499 -6s-20.833 -9.66699 -31.5 -17l-24 54c14 10 28.667 17.833 44 23.5s31.666 8.5 48.999 8.5c18.667 0 35 -2.83301 49 -8.5s25.667 -13 35 -22s16.166 -19.167 20.499 -30.5s6.5 -23 6.5 -35c0 -21.333 -4.33301 -38.833 -13 -52.5
s-19.667 -25.834 -33 -36.501c17.333 -9.33301 31.166 -22.666 41.499 -39.999s15.5 -36.666 15.5 -57.999c0 -15.333 -2.66699 -30 -8 -44s-13.5 -26.5 -24.5 -37.5s-24.667 -19.667 -41 -26s-35.5 -9.5 -57.5 -9.5c-30 0 -59 8.33301 -87 25l20 60
c11.333 -7.33301 22.166 -12.666 32.499 -15.999s21.833 -5 34.5 -5z" />
    <glyph glyph-name="acute" unicode="&#xb4;" 
d="M286 726l-136 -144l-43 37l118 159z" />
    <glyph glyph-name="mu" unicode="&#xb5;" horiz-adv-x="488" 
d="M410 15c-8.66699 -3.33301 -19.1699 -6.50098 -31.5029 -9.50098s-24.833 -5.66699 -37.5 -8s-25.167 -4.33301 -37.5 -6s-22.833 -2.5 -31.5 -2.5c-25.333 0 -47.166 2.66699 -65.499 8s-34.166 15 -47.499 29c1.33301 -21.333 2.5 -43.166 3.5 -65.499
s1.5 -45.5 1.5 -69.5v-76h-86v710h86v-339c0 -42 7.83301 -72.667 23.5 -92s39.5 -29 71.5 -29c10.667 0 21.334 0.5 32.001 1.5s21.667 3.16699 33 6.5v452h86v-510z" />
    <glyph glyph-name="paragraph" unicode="&#xb6;" horiz-adv-x="530" 
d="M304 628h-9c-2.66699 0 -5.33398 -0.333008 -8.00098 -1v-812h-72v449c-55.333 9.33301 -98.166 32 -128.499 68s-45.5 85.333 -45.5 148c0 72.667 22.333 127.5 67 164.5s105 55.5 181 55.5c21.333 0 44.5 -1.33301 69.5 -4s49.167 -7.66699 72.5 -15v-866h-72v809
c-7.33301 1.33301 -15.5 2.33301 -24.5 3s-19.167 1 -30.5 1z" />
    <glyph glyph-name="periodcentered" unicode="&#xb7;" horiz-adv-x="227" 
d="M173 294c0 -15.333 -5.5 -29 -16.5 -41s-25.5 -18 -43.5 -18s-32.333 6 -43 18s-16 25.667 -16 41c0 16 5.33301 30 16 42s25 18 43 18s32.5 -6 43.5 -18s16.5 -26 16.5 -42z" />
    <glyph glyph-name="cedilla" unicode="&#xb8;" 
d="M202 20c-4 -7.33301 -8.83105 -16.833 -14.498 -28.5s-10.5 -22.167 -14.5 -31.5c19.333 -7.33301 33 -16.833 41 -28.5s12 -25.167 12 -40.5c0 -25.333 -10 -45 -30 -59s-44.667 -21 -74 -21c-10 0 -21 0.833008 -33 2.5s-23.667 4.5 -35 8.5l10 55
c6.66699 -1.33301 13.667 -2.83301 21 -4.5s15 -2.5 23 -2.5c12 0 22.333 1.83301 31 5.5s13 10.834 13 21.501c0 7.33301 -3.66699 13.666 -11 18.999s-21 10 -41 14c5.33301 15.333 12.166 32 20.499 50s15.166 31.333 20.499 40h61z" />
    <glyph glyph-name="onesuperior" unicode="&#xb9;" horiz-adv-x="280" 
d="M32 609c19.333 10.667 38.668 23 58.001 37s37 29.667 53 47h51v-387h-70v289c-22.667 -17.333 -44.334 -30.333 -65.001 -39z" />
    <glyph glyph-name="ordmasculine" unicode="&#xba;" horiz-adv-x="364" 
d="M323 521c0 -63.333 -13.167 -110.667 -39.5 -142s-60.166 -47 -101.499 -47s-75.166 15.5 -101.499 46.5s-39.5 78.5 -39.5 142.5c0 64.667 13.167 112.334 39.5 143.001s60.166 46 101.499 46s75.166 -15.333 101.499 -46s39.5 -78.334 39.5 -143.001zM253 520.999
c0 44 -6.16699 76.167 -18.5 96.5s-29.833 30.5 -52.5 30.5c-22 0 -39.333 -10.167 -52 -30.5s-19 -52.5 -19 -96.5c0 -43.333 6.16699 -75.333 18.5 -96s29.833 -31 52.5 -31s40.167 10.333 52.5 31s18.5 52.667 18.5 96z" />
    <glyph glyph-name="guillemotright" unicode="&#xbb;" horiz-adv-x="453" 
d="M136 284l-94 192l66 29l128 -221l-128 -221l-66 29zM325 284l-94 192l66 29l128 -221l-128 -221l-66 29z" />
    <glyph glyph-name="onequarter" unicode="&#xbc;" horiz-adv-x="706" 
d="M26 609c19.333 10.667 38.668 23 58.001 37s37 29.667 53 47h51v-387h-70v289c-22.667 -17.333 -44.334 -30.333 -65.001 -39zM527.002 693l-283 -693h-75l283 693h75zM619.002 388v-234h42v-58h-42v-95h-64v95h-128v38c28 89.333 68 174 120 254h72zM556.002 304
c-11.333 -19.333 -23 -42.333 -35 -69s-23.333 -53.667 -34 -81h69v150z" />
    <glyph glyph-name="onehalf" unicode="&#xbd;" horiz-adv-x="706" 
d="M26 609c19.333 10.667 38.668 23 58.001 37s37 29.667 53 47h51v-387h-70v289c-22.667 -17.333 -44.334 -30.333 -65.001 -39zM507.002 693l-283 -693h-75l283 693h75zM654.002 290c0 -16 -2.49902 -30.998 -7.49902 -44.998s-11.333 -27.167 -19 -39.5s-16 -24 -25 -35
l-25.5 -30.5c-9.33301 -11.333 -18.333 -23.166 -27 -35.499s-14.667 -25.166 -18 -38.499h127v-65h-210v17c0 17.333 2.5 33.666 7.5 48.999s11.333 29.666 19 42.999s16.334 26.166 26.001 38.499l28.5 35.5c17.333 21.333 30.666 39.333 39.999 54s14 29.667 14 45
c0 16 -4.5 27.833 -13.5 35.5s-19.5 11.5 -31.5 11.5c-10 0 -20.5 -2.33301 -31.5 -7s-21.167 -10.667 -30.5 -18l-30 53c15.333 11.333 31.166 20.166 47.499 26.499s33.833 9.5 52.5 9.5c31.333 0 57 -9.33301 77 -28s30 -44 30 -76z" />
    <glyph glyph-name="threequarters" unicode="&#xbe;" horiz-adv-x="706" 
d="M125 363c18 0 32.6699 5.16602 44.0029 15.499s17 23.833 17 40.5c0 21.333 -7.5 36.833 -22.5 46.5s-31.167 14.5 -48.5 14.5h-24v59h28c6 0 12.333 0.833008 19 2.5s13 4.5 19 8.5s11 9.33301 15 16s6 15 6 25c0 15.333 -4.5 26.666 -13.5 33.999s-20.833 11 -35.5 11
c-11.333 0 -22.166 -2 -32.499 -6s-20.833 -9.66699 -31.5 -17l-24 54c14 10 28.667 17.833 44 23.5s31.666 8.5 48.999 8.5c18.667 0 35 -2.83301 49 -8.5s25.667 -13 35 -22s16.166 -19.167 20.499 -30.5s6.5 -23 6.5 -35c0 -21.333 -4.33301 -38.833 -13 -52.5
s-19.667 -25.834 -33 -36.501c17.333 -9.33301 31.166 -22.666 41.499 -39.999s15.5 -36.666 15.5 -57.999c0 -15.333 -2.66699 -30 -8 -44s-13.5 -26.5 -24.5 -37.5s-24.667 -19.667 -41 -26s-35.5 -9.5 -57.5 -9.5c-30 0 -59 8.33301 -87 25l20 60
c11.333 -7.33301 22.166 -12.666 32.499 -15.999s21.833 -5 34.5 -5zM537.003 692.999l-283 -693h-75l283 693h75zM624.003 387.999v-234h42v-58h-42v-95h-64v95h-128v38c28 89.333 68 174 120 254h72zM561.003 303.999c-11.333 -19.333 -23 -42.333 -35 -69
s-23.333 -53.667 -34 -81h69v150z" />
    <glyph glyph-name="questiondown" unicode="&#xbf;" horiz-adv-x="342" 
d="M204 -112c18 0 34.166 3.00195 48.499 9.00195s27.166 13.667 38.499 23l34 -66c-18.667 -12.667 -38.667 -22.834 -60 -30.501s-45 -11.5 -71 -11.5c-30 0 -55.667 4.33301 -77 13s-38.666 20.167 -51.999 34.5s-23.166 30.833 -29.499 49.5s-9.5 38.334 -9.5 59.001
c0 23.333 3.5 44.333 10.5 63s16 35.834 27 51.501s22.667 30.667 35 45s24 29.333 35 45s20 32.667 27 51s10.5 39.166 10.5 62.499v11c0 4 -0.333008 7.66699 -1 11h78c2 -13.333 3 -27.333 3 -42c0 -23.333 -3.16699 -44 -9.5 -62s-14.333 -34.333 -24 -49
s-20.167 -28.334 -31.5 -41.001s-21.833 -25.834 -31.5 -39.501s-17.667 -28.5 -24 -44.5s-9.5 -34.333 -9.5 -55c0 -28 7.33301 -49.5 22 -64.5s35 -22.5 61 -22.5zM263.999 477.002c0 -15.333 -5.5 -29 -16.5 -41s-25.5 -18 -43.5 -18s-32.333 6 -43 18s-16 25.667 -16 41
c0 16 5.33301 30 16 42s25 18 43 18s32.5 -6 43.5 -18s16.5 -26 16.5 -42z" />
    <glyph glyph-name="Agrave" unicode="&#xc0;" horiz-adv-x="503" 
d="M299 693l47.5 -151.501c15.667 -51 31 -104.5 46 -160.5s30 -115.333 45 -178s30.167 -130.334 45.5 -203.001h-90l-16.5 89l-17.5 88h-218c-6.66699 -29.333 -12.667 -58.666 -18 -87.999l-16 -89h-87c14.667 72.667 29.667 140.334 45 203.001l45.5 178
c15 56 30.333 109.5 46 160.5l47.5 151.5h95zM250 590.999l-48.001 -167c-15.333 -56 -30 -113.333 -44 -172h183c-13.333 58.667 -27.666 116 -42.999 172zM182.999 927.999l118 -159l-43 -37l-136 144z" />
    <glyph glyph-name="Aacute" unicode="&#xc1;" horiz-adv-x="503" 
d="M299 693l47.5 -151.501c15.667 -51 31 -104.5 46 -160.5s30 -115.333 45 -178s30.167 -130.334 45.5 -203.001h-90l-16.5 89l-17.5 88h-218c-6.66699 -29.333 -12.667 -58.666 -18 -87.999l-16 -89h-87c14.667 72.667 29.667 140.334 45 203.001l45.5 178
c15 56 30.333 109.5 46 160.5l47.5 151.5h95zM250 590.999l-48.001 -167c-15.333 -56 -30 -113.333 -44 -172h183c-13.333 58.667 -27.666 116 -42.999 172zM380.999 875.999l-136 -144l-43 37l118 159z" />
    <glyph glyph-name="Acircumflex" unicode="&#xc2;" horiz-adv-x="503" 
d="M299 693l47.5 -151.501c15.667 -51 31 -104.5 46 -160.5s30 -115.333 45 -178s30.167 -130.334 45.5 -203.001h-90l-16.5 89l-17.5 88h-218c-6.66699 -29.333 -12.667 -58.666 -18 -87.999l-16 -89h-87c14.667 72.667 29.667 140.334 45 203.001l45.5 178
c15 56 30.333 109.5 46 160.5l47.5 151.5h95zM250 590.999l-48.001 -167c-15.333 -56 -30 -113.333 -44 -172h183c-13.333 58.667 -27.666 116 -42.999 172zM176.999 730.999l-42 35l115 152l115 -152l-42 -35l-73 85z" />
    <glyph glyph-name="Atilde" unicode="&#xc3;" horiz-adv-x="503" 
d="M299 693l47.5 -151.501c15.667 -51 31 -104.5 46 -160.5s30 -115.333 45 -178s30.167 -130.334 45.5 -203.001h-90l-16.5 89l-17.5 88h-218c-6.66699 -29.333 -12.667 -58.666 -18 -87.999l-16 -89h-87c14.667 72.667 29.667 140.334 45 203.001l45.5 178
c15 56 30.333 109.5 46 160.5l47.5 151.5h95zM250 590.999l-48.001 -167c-15.333 -56 -30 -113.333 -44 -172h183c-13.333 58.667 -27.666 116 -42.999 172zM378.999 870.999c-6 -32 -15.498 -56.5 -28.498 -73.5s-29.167 -25.5 -48.5 -25.5
c-11.333 0 -21.833 2.33301 -31.5 7s-18.5 10 -26.5 16s-15.5 11.333 -22.5 16s-13.833 7 -20.5 7c-6 0 -11.167 -3.33301 -15.5 -10s-8.5 -18.667 -12.5 -36l-50 17c5.33301 32 14.666 56.5 27.999 73.5s29.666 25.5 48.999 25.5c12 0 22.667 -2.33301 32 -7s18 -10 26 -16
l22 -16c6.66699 -4.66699 13.667 -7 21 -7c6 0 11.167 3.33301 15.5 10s8.5 18.667 12.5 36z" />
    <glyph glyph-name="Adieresis" unicode="&#xc4;" horiz-adv-x="503" 
d="M299 693l47.5 -151.501c15.667 -51 31 -104.5 46 -160.5s30 -115.333 45 -178s30.167 -130.334 45.5 -203.001h-90l-16.5 89l-17.5 88h-218c-6.66699 -29.333 -12.667 -58.666 -18 -87.999l-16 -89h-87c14.667 72.667 29.667 140.334 45 203.001l45.5 178
c15 56 30.333 109.5 46 160.5l47.5 151.5h95zM250 590.999l-48.001 -167c-15.333 -56 -30 -113.333 -44 -172h183c-13.333 58.667 -27.666 116 -42.999 172zM167.999 767.999c-15.333 0 -28.5 5.16699 -39.5 15.5s-16.5 24.166 -16.5 41.499s5.5 31.166 16.5 41.499
s24.167 15.5 39.5 15.5s28.5 -5.16699 39.5 -15.5s16.5 -24.166 16.5 -41.499s-5.5 -31.166 -16.5 -41.499s-24.167 -15.5 -39.5 -15.5zM333.999 767.999c-15.333 0 -28.5 5.16699 -39.5 15.5s-16.5 24.166 -16.5 41.499s5.5 31.166 16.5 41.499s24.167 15.5 39.5 15.5
s28.5 -5.16699 39.5 -15.5s16.5 -24.166 16.5 -41.499s-5.5 -31.166 -16.5 -41.499s-24.167 -15.5 -39.5 -15.5z" />
    <glyph glyph-name="Aring" unicode="&#xc5;" horiz-adv-x="503" 
d="M336 741c0 -14.667 -2.83301 -27.6699 -8.5 -39.0029s-13.167 -20.666 -22.5 -27.999l45.5 -147l45 -156.5c15 -54.333 29.667 -112 44 -173s28.833 -126.833 43.5 -197.5h-90l-16.5 89l-17.5 88h-218c-6.66699 -29.333 -12.667 -58.666 -18 -87.999l-16 -89h-87
c14.667 70.667 29.167 136.334 43.5 197.001s28.833 118.334 43.5 173.001s29.5 106.834 44.5 156.501l45.5 146.5c-9.33301 7.33301 -16.833 16.666 -22.5 27.999s-8.5 24.666 -8.5 39.999c0 26 8.33301 46.667 25 62s36.667 23 60 23s43.333 -7.66699 60 -23
s25 -36 25 -62zM250 590.997l-48.001 -167c-15.333 -56 -30 -113.333 -44 -172h183c-13.333 58.667 -27.666 116 -42.999 172zM290.999 740.997c0 13.333 -3.83301 23.5 -11.5 30.5s-17.167 10.5 -28.5 10.5s-20.833 -3.5 -28.5 -10.5s-11.5 -17.167 -11.5 -30.5
s3.83301 -23.5 11.5 -30.5s17.167 -10.5 28.5 -10.5s20.833 3.5 28.5 10.5s11.5 17.167 11.5 30.5z" />
    <glyph glyph-name="AE" unicode="&#xc6;" horiz-adv-x="729" 
d="M357 0l-0.000976562 177.001h-202l-35 -89.5c-11.333 -29.667 -21.666 -58.834 -30.999 -87.501h-87c20 58 42.333 117.333 67 178s50.5 121 77.5 181s54.833 118.333 83.5 175l84 159h354v-77h-221v-215h200v-75h-200v-249h237v-77h-327zM356.999 247.001v365.001
c-30 -56.667 -59.333 -115.334 -88 -176.001l-83 -184h170z" />
    <glyph glyph-name="Ccedilla" unicode="&#xc7;" horiz-adv-x="469" 
d="M296 -40c19.333 -7.33301 33.0029 -16.8369 41.0029 -28.5039s12 -25.167 12 -40.5c0 -25.333 -10 -45 -30 -59s-44.667 -21 -74 -21c-10 0 -21 0.833008 -33 2.5s-23.667 4.5 -35 8.5l10 55c6.66699 -1.33301 13.667 -2.83301 21 -4.5s15 -2.5 23 -2.5
c12 0 22.333 1.83301 31 5.5s13 10.834 13 21.501c0 7.33301 -3.66699 13.666 -11 18.999s-21 10 -41 14c3.33301 9.33301 7.16602 19.5 11.499 30.5s8.83301 21.167 13.5 30.5c-62.667 13.333 -110.5 50 -143.5 110s-49.5 145.333 -49.5 256
c0 64.667 6.16699 119.334 18.5 164.001s29.5 81 51.5 109s48 48.167 78 60.5s62.667 18.5 98 18.5c29.333 0 56.666 -3.83301 81.999 -11.5s46 -17.167 62 -28.5l-27 -75c-16 10.667 -33.167 19.334 -51.5 26.001s-39.5 10 -63.5 10c-53.333 0 -92 -22.167 -116 -66.5
s-36 -113.166 -36 -206.499c0 -94 12.667 -166.333 38 -217s66.666 -76 123.999 -76c27.333 0 49.5 3.33301 66.5 10s33.5 15.334 49.5 26.001l25 -71c-15.333 -12 -35.5 -22.333 -60.5 -31s-53.833 -13 -86.5 -13z" />
    <glyph glyph-name="Egrave" unicode="&#xc8;" horiz-adv-x="456" 
d="M84 0v693h311v-77h-221v-215h200v-75h-200v-249h237v-77h-327zM170 928l118 -159l-43 -37l-136 144z" />
    <glyph glyph-name="Eacute" unicode="&#xc9;" horiz-adv-x="456" 
d="M84 0v693h311v-77h-221v-215h200v-75h-200v-249h237v-77h-327zM360 876l-136 -144l-43 37l118 159z" />
    <glyph glyph-name="Ecircumflex" unicode="&#xca;" horiz-adv-x="456" 
d="M84 0v693h311v-77h-221v-215h200v-75h-200v-249h237v-77h-327zM169 731l-42 35l115 152l115 -152l-42 -35l-73 85z" />
    <glyph glyph-name="Edieresis" unicode="&#xcb;" horiz-adv-x="456" 
d="M84 0v693h311v-77h-221v-215h200v-75h-200v-249h237v-77h-327zM155 768c-15.333 0 -28.5 5.16699 -39.5 15.5s-16.5 24.166 -16.5 41.499s5.5 31.166 16.5 41.499s24.167 15.5 39.5 15.5s28.5 -5.16699 39.5 -15.5s16.5 -24.166 16.5 -41.499s-5.5 -31.166 -16.5 -41.499
s-24.167 -15.5 -39.5 -15.5zM321 768c-15.333 0 -28.5 5.16699 -39.5 15.5s-16.5 24.166 -16.5 41.499s5.5 31.166 16.5 41.499s24.167 15.5 39.5 15.5s28.5 -5.16699 39.5 -15.5s16.5 -24.166 16.5 -41.499s-5.5 -31.166 -16.5 -41.499s-24.167 -15.5 -39.5 -15.5z" />
    <glyph glyph-name="Igrave" unicode="&#xcc;" horiz-adv-x="258" 
d="M84 693h90v-693h-90v693zM62 928l118 -159l-43 -37l-136 144z" />
    <glyph glyph-name="Iacute" unicode="&#xcd;" horiz-adv-x="258" 
d="M84 693h90v-693h-90v693zM259 876l-136 -144l-43 37l118 159z" />
    <glyph glyph-name="Icircumflex" unicode="&#xce;" horiz-adv-x="258" 
d="M84 693h90v-693h-90v693zM56 731l-42 35l115 152l115 -152l-42 -35l-73 85z" />
    <glyph glyph-name="Idieresis" unicode="&#xcf;" horiz-adv-x="258" 
d="M84 693h90v-693h-90v693zM47 768c-15.333 0 -28.5 5.16699 -39.5 15.5s-16.5 24.166 -16.5 41.499s5.5 31.166 16.5 41.499s24.167 15.5 39.5 15.5s28.5 -5.16699 39.5 -15.5s16.5 -24.166 16.5 -41.499s-5.5 -31.166 -16.5 -41.499s-24.167 -15.5 -39.5 -15.5zM213 768
c-15.333 0 -28.5 5.16699 -39.5 15.5s-16.5 24.166 -16.5 41.499s5.5 31.166 16.5 41.499s24.167 15.5 39.5 15.5s28.5 -5.16699 39.5 -15.5s16.5 -24.166 16.5 -41.499s-5.5 -31.166 -16.5 -41.499s-24.167 -15.5 -39.5 -15.5z" />
    <glyph glyph-name="Eth" unicode="&#xd0;" horiz-adv-x="576" 
d="M15 380l68 0.000976562v303c25.333 5.33301 50 9.66602 74 12.999s47 5 69 5c44.667 0 85.167 -6.5 121.5 -19.5s67.333 -33.667 93 -62s45.5 -65 59.5 -110s21 -99.167 21 -162.5s-7 -117.5 -21 -162.5s-33.833 -81.667 -59.5 -110s-56.667 -49 -93 -62
s-76.5 -19.5 -120.5 -19.5c-45.333 0 -93.333 6 -144 18v303h-68v66zM425 347.001c0 96 -15.333 165.667 -46 209s-80.334 65 -149.001 65c-9.33301 0 -18.666 -0.333008 -27.999 -1s-19 -1.66699 -29 -3v-237h108v-66h-108v-237c10 -1.33301 19.667 -2.33301 29 -3
s18.333 -1 27 -1c68.667 0 118.5 21.5 149.5 64.5s46.5 112.833 46.5 209.5z" />
    <glyph glyph-name="Ntilde" unicode="&#xd1;" horiz-adv-x="581" 
d="M424 0c-16 39.333 -34.167 81.832 -54.5 127.499l-64 138l-68.5 138c-23.333 45.667 -46.333 88.167 -69 127.5v-531h-84v693h75c25.333 -41.333 49.833 -83.666 73.5 -126.999l67.5 -128.5l60.5 -125l52.5 -116.5v497h84v-693h-73zM419 870.999
c-6 -32 -15.498 -56.5 -28.498 -73.5s-29.167 -25.5 -48.5 -25.5c-11.333 0 -21.833 2.33301 -31.5 7s-18.5 10 -26.5 16s-15.5 11.333 -22.5 16s-13.833 7 -20.5 7c-6 0 -11.167 -3.33301 -15.5 -10s-8.5 -18.667 -12.5 -36l-50 17c5.33301 32 14.666 56.5 27.999 73.5
s29.666 25.5 48.999 25.5c12 0 22.667 -2.33301 32 -7s18 -10 26 -16l22 -16c6.66699 -4.66699 13.667 -7 21 -7c6 0 11.167 3.33301 15.5 10s8.5 18.667 12.5 36z" />
    <glyph glyph-name="Ograve" unicode="&#xd2;" horiz-adv-x="605" 
d="M549 346c0 -54 -4.83301 -103.167 -14.5 -147.5s-24.667 -82.333 -45 -114s-46 -56.167 -77 -73.5s-67.5 -26 -109.5 -26s-78.5 8.66699 -109.5 26s-56.667 41.833 -77 73.5s-35.5 69.667 -45.5 114s-15 93.5 -15 147.5s5 103.333 15 148s25.167 82.834 45.5 114.501
s46 56.334 77 74.001s67.5 26.5 109.5 26.5s78.5 -8.83301 109.5 -26.5s56.667 -42.334 77 -74.001s35.333 -69.834 45 -114.501s14.5 -94 14.5 -148zM453 346c0 42 -2.66699 80.333 -8 115s-14 64.5 -26 89.5s-27.5 44.5 -46.5 58.5s-42.167 21 -69.5 21
s-50.5 -7 -69.5 -21s-34.5 -33.5 -46.5 -58.5s-20.833 -54.833 -26.5 -89.5s-8.5 -73 -8.5 -115s2.83301 -80.333 8.5 -115s14.5 -64.334 26.5 -89.001s27.5 -43.834 46.5 -57.501s42.167 -20.5 69.5 -20.5s50.5 6.83301 69.5 20.5s34.5 32.834 46.5 57.501
s20.667 54.334 26 89.001s8 73 8 115zM234 928l118 -159l-43 -37l-136 144z" />
    <glyph glyph-name="Oacute" unicode="&#xd3;" horiz-adv-x="605" 
d="M549 346c0 -54 -4.83301 -103.167 -14.5 -147.5s-24.667 -82.333 -45 -114s-46 -56.167 -77 -73.5s-67.5 -26 -109.5 -26s-78.5 8.66699 -109.5 26s-56.667 41.833 -77 73.5s-35.5 69.667 -45.5 114s-15 93.5 -15 147.5s5 103.333 15 148s25.167 82.834 45.5 114.501
s46 56.334 77 74.001s67.5 26.5 109.5 26.5s78.5 -8.83301 109.5 -26.5s56.667 -42.334 77 -74.001s35.333 -69.834 45 -114.501s14.5 -94 14.5 -148zM453 346c0 42 -2.66699 80.333 -8 115s-14 64.5 -26 89.5s-27.5 44.5 -46.5 58.5s-42.167 21 -69.5 21
s-50.5 -7 -69.5 -21s-34.5 -33.5 -46.5 -58.5s-20.833 -54.833 -26.5 -89.5s-8.5 -73 -8.5 -115s2.83301 -80.333 8.5 -115s14.5 -64.334 26.5 -89.001s27.5 -43.834 46.5 -57.501s42.167 -20.5 69.5 -20.5s50.5 6.83301 69.5 20.5s34.5 32.834 46.5 57.501
s20.667 54.334 26 89.001s8 73 8 115zM431 876l-136 -144l-43 37l118 159z" />
    <glyph glyph-name="Ocircumflex" unicode="&#xd4;" horiz-adv-x="605" 
d="M549 346c0 -54 -4.83301 -103.167 -14.5 -147.5s-24.667 -82.333 -45 -114s-46 -56.167 -77 -73.5s-67.5 -26 -109.5 -26s-78.5 8.66699 -109.5 26s-56.667 41.833 -77 73.5s-35.5 69.667 -45.5 114s-15 93.5 -15 147.5s5 103.333 15 148s25.167 82.834 45.5 114.501
s46 56.334 77 74.001s67.5 26.5 109.5 26.5s78.5 -8.83301 109.5 -26.5s56.667 -42.334 77 -74.001s35.333 -69.834 45 -114.501s14.5 -94 14.5 -148zM453 346c0 42 -2.66699 80.333 -8 115s-14 64.5 -26 89.5s-27.5 44.5 -46.5 58.5s-42.167 21 -69.5 21
s-50.5 -7 -69.5 -21s-34.5 -33.5 -46.5 -58.5s-20.833 -54.833 -26.5 -89.5s-8.5 -73 -8.5 -115s2.83301 -80.333 8.5 -115s14.5 -64.334 26.5 -89.001s27.5 -43.834 46.5 -57.501s42.167 -20.5 69.5 -20.5s50.5 6.83301 69.5 20.5s34.5 32.834 46.5 57.501
s20.667 54.334 26 89.001s8 73 8 115zM228 731l-42 35l115 152l115 -152l-42 -35l-73 85z" />
    <glyph glyph-name="Otilde" unicode="&#xd5;" horiz-adv-x="605" 
d="M549 346c0 -54 -4.83301 -103.167 -14.5 -147.5s-24.667 -82.333 -45 -114s-46 -56.167 -77 -73.5s-67.5 -26 -109.5 -26s-78.5 8.66699 -109.5 26s-56.667 41.833 -77 73.5s-35.5 69.667 -45.5 114s-15 93.5 -15 147.5s5 103.333 15 148s25.167 82.834 45.5 114.501
s46 56.334 77 74.001s67.5 26.5 109.5 26.5s78.5 -8.83301 109.5 -26.5s56.667 -42.334 77 -74.001s35.333 -69.834 45 -114.501s14.5 -94 14.5 -148zM453 346c0 42 -2.66699 80.333 -8 115s-14 64.5 -26 89.5s-27.5 44.5 -46.5 58.5s-42.167 21 -69.5 21
s-50.5 -7 -69.5 -21s-34.5 -33.5 -46.5 -58.5s-20.833 -54.833 -26.5 -89.5s-8.5 -73 -8.5 -115s2.83301 -80.333 8.5 -115s14.5 -64.334 26.5 -89.001s27.5 -43.834 46.5 -57.501s42.167 -20.5 69.5 -20.5s50.5 6.83301 69.5 20.5s34.5 32.834 46.5 57.501
s20.667 54.334 26 89.001s8 73 8 115zM430 871c-6 -32 -15.498 -56.5 -28.498 -73.5s-29.167 -25.5 -48.5 -25.5c-11.333 0 -21.833 2.33301 -31.5 7s-18.5 10 -26.5 16s-15.5 11.333 -22.5 16s-13.833 7 -20.5 7c-6 0 -11.167 -3.33301 -15.5 -10s-8.5 -18.667 -12.5 -36
l-50 17c5.33301 32 14.666 56.5 27.999 73.5s29.666 25.5 48.999 25.5c12 0 22.667 -2.33301 32 -7s18 -10 26 -16l22 -16c6.66699 -4.66699 13.667 -7 21 -7c6 0 11.167 3.33301 15.5 10s8.5 18.667 12.5 36z" />
    <glyph glyph-name="Odieresis" unicode="&#xd6;" horiz-adv-x="605" 
d="M549 346c0 -54 -4.83301 -103.167 -14.5 -147.5s-24.667 -82.333 -45 -114s-46 -56.167 -77 -73.5s-67.5 -26 -109.5 -26s-78.5 8.66699 -109.5 26s-56.667 41.833 -77 73.5s-35.5 69.667 -45.5 114s-15 93.5 -15 147.5s5 103.333 15 148s25.167 82.834 45.5 114.501
s46 56.334 77 74.001s67.5 26.5 109.5 26.5s78.5 -8.83301 109.5 -26.5s56.667 -42.334 77 -74.001s35.333 -69.834 45 -114.501s14.5 -94 14.5 -148zM453 346c0 42 -2.66699 80.333 -8 115s-14 64.5 -26 89.5s-27.5 44.5 -46.5 58.5s-42.167 21 -69.5 21
s-50.5 -7 -69.5 -21s-34.5 -33.5 -46.5 -58.5s-20.833 -54.833 -26.5 -89.5s-8.5 -73 -8.5 -115s2.83301 -80.333 8.5 -115s14.5 -64.334 26.5 -89.001s27.5 -43.834 46.5 -57.501s42.167 -20.5 69.5 -20.5s50.5 6.83301 69.5 20.5s34.5 32.834 46.5 57.501
s20.667 54.334 26 89.001s8 73 8 115zM219 768c-15.333 0 -28.5 5.16699 -39.5 15.5s-16.5 24.166 -16.5 41.499s5.5 31.166 16.5 41.499s24.167 15.5 39.5 15.5s28.5 -5.16699 39.5 -15.5s16.5 -24.166 16.5 -41.499s-5.5 -31.166 -16.5 -41.499s-24.167 -15.5 -39.5 -15.5
zM385 768c-15.333 0 -28.5 5.16699 -39.5 15.5s-16.5 24.166 -16.5 41.499s5.5 31.166 16.5 41.499s24.167 15.5 39.5 15.5s28.5 -5.16699 39.5 -15.5s16.5 -24.166 16.5 -41.499s-5.5 -31.166 -16.5 -41.499s-24.167 -15.5 -39.5 -15.5z" />
    <glyph glyph-name="multiply" unicode="&#xd7;" horiz-adv-x="430" 
d="M267 299l111 -111l-52 -52l-111 111l-111 -111l-52 52l111 111l-111 111l52 52l111 -111l111 111l52 -52z" />
    <glyph glyph-name="Oslash" unicode="&#xd8;" horiz-adv-x="605" 
d="M63 -3l51.999 88.998c-20 32 -34.833 69.833 -44.5 113.5s-14.5 92.5 -14.5 146.5s5 103.333 15 148s25.167 82.834 45.5 114.501s46 56.334 77 74.001s67.5 26.5 109.5 26.5c29.333 0 55.833 -4.33301 79.5 -13s44.834 -21 63.501 -37l41 71l57 -33l-53 -92
c19.333 -32 33.833 -69.833 43.5 -113.5s14.5 -92.167 14.5 -145.5c0 -54 -4.83301 -103.167 -14.5 -147.5s-24.667 -82.333 -45 -114s-46 -56.167 -77 -73.5s-67.5 -26 -109.5 -26c-57.333 0 -105 16.333 -143 49l-40 -70zM151.999 345.998c0 -64.667 6.33301 -119 19 -163
l230 398c-12 15.333 -26 27.333 -42 36s-34.667 13 -56 13c-27.333 0 -50.5 -7 -69.5 -21s-34.5 -33.5 -46.5 -58.5s-20.833 -54.833 -26.5 -89.5s-8.5 -73 -8.5 -115zM452.999 345.998c0 62.667 -6 116.665 -18 161.998l-230 -397c12 -15.333 26 -27 42 -35
s34.667 -12 56 -12c27.333 0 50.5 6.83301 69.5 20.5s34.5 32.834 46.5 57.501s20.667 54.334 26 89.001s8 73 8 115z" />
    <glyph glyph-name="Ugrave" unicode="&#xd9;" horiz-adv-x="549" 
d="M272 -15c-64.667 0 -113.167 18.333 -145.5 55s-48.5 94.667 -48.5 174v479h90v-471c0 -52.667 7.66699 -92.167 23 -118.5s43 -39.5 83 -39.5c41.333 0 69.5 13.5 84.5 40.5s22.5 66.167 22.5 117.5v471h90v-479c0 -78 -16.667 -135.667 -50 -173s-83 -56 -149 -56z
M207 928l118 -159l-43 -37l-136 144z" />
    <glyph glyph-name="Uacute" unicode="&#xda;" horiz-adv-x="549" 
d="M272 -15c-64.667 0 -113.167 18.333 -145.5 55s-48.5 94.667 -48.5 174v479h90v-471c0 -52.667 7.66699 -92.167 23 -118.5s43 -39.5 83 -39.5c41.333 0 69.5 13.5 84.5 40.5s22.5 66.167 22.5 117.5v471h90v-479c0 -78 -16.667 -135.667 -50 -173s-83 -56 -149 -56z
M403 876l-136 -144l-43 37l118 159z" />
    <glyph glyph-name="Ucircumflex" unicode="&#xdb;" horiz-adv-x="549" 
d="M272 -15c-64.667 0 -113.167 18.333 -145.5 55s-48.5 94.667 -48.5 174v479h90v-471c0 -52.667 7.66699 -92.167 23 -118.5s43 -39.5 83 -39.5c41.333 0 69.5 13.5 84.5 40.5s22.5 66.167 22.5 117.5v471h90v-479c0 -78 -16.667 -135.667 -50 -173s-83 -56 -149 -56z
M201 731l-42 35l115 152l115 -152l-42 -35l-73 85z" />
    <glyph glyph-name="Udieresis" unicode="&#xdc;" horiz-adv-x="549" 
d="M272 -15c-64.667 0 -113.167 18.333 -145.5 55s-48.5 94.667 -48.5 174v479h90v-471c0 -52.667 7.66699 -92.167 23 -118.5s43 -39.5 83 -39.5c41.333 0 69.5 13.5 84.5 40.5s22.5 66.167 22.5 117.5v471h90v-479c0 -78 -16.667 -135.667 -50 -173s-83 -56 -149 -56z
M192 768c-15.333 0 -28.5 5.16699 -39.5 15.5s-16.5 24.166 -16.5 41.499s5.5 31.166 16.5 41.499s24.167 15.5 39.5 15.5s28.5 -5.16699 39.5 -15.5s16.5 -24.166 16.5 -41.499s-5.5 -31.166 -16.5 -41.499s-24.167 -15.5 -39.5 -15.5zM358 768
c-15.333 0 -28.5 5.16699 -39.5 15.5s-16.5 24.166 -16.5 41.499s5.5 31.166 16.5 41.499s24.167 15.5 39.5 15.5s28.5 -5.16699 39.5 -15.5s16.5 -24.166 16.5 -41.499s-5.5 -31.166 -16.5 -41.499s-24.167 -15.5 -39.5 -15.5z" />
    <glyph glyph-name="Yacute" unicode="&#xdd;" horiz-adv-x="451" 
d="M448 693l-37.5 -100l-43.5 -107.5l-47 -108.5l-48 -103v-274h-90v268l-49 104l-48 110l-44 109c-14 36 -26.667 70 -38 102h97c17.333 -52.667 37 -108.334 59 -167.001s44.667 -113.334 68 -164.001c23.333 50.667 46 105.334 68 164.001s41.667 114.334 59 167.001h94z
M354 876l-136 -144l-43 37l118 159z" />
    <glyph glyph-name="Thorn" unicode="&#xde;" horiz-adv-x="486" 
d="M174 693l0.000976562 -111c7.33301 0.666992 15 1.16699 23 1.5s16 0.5 24 0.5c34.667 0 66.167 -4.16699 94.5 -12.5s52.666 -21.333 72.999 -39s36 -40.5 47 -68.5s16.5 -61.667 16.5 -101c0 -40 -5.66699 -74.167 -17 -102.5s-27.333 -51.333 -48 -69
s-45.5 -30.5 -74.5 -38.5s-61.167 -12 -96.5 -12h-42v-141h-90v693h90zM174.001 220h36.001c22.667 0 43.167 2.5 61.5 7.5s33.833 13.167 46.5 24.5s22.334 26 29.001 44s10 40.333 10 67s-3.33301 49.167 -10 67.5s-15.834 33 -27.501 44s-25.834 18.833 -42.501 23.5
s-35 7 -55 7c-17.333 0 -33.333 -1 -48 -3v-282z" />
    <glyph glyph-name="germandbls" unicode="&#xdf;" horiz-adv-x="487" 
d="M404 628c0 -31.333 -6.16895 -58.5029 -18.502 -81.5029s-25.166 -43.833 -38.499 -62.5c-6.66699 -9.33301 -12.167 -17.5 -16.5 -24.5s-7.83301 -13.167 -10.5 -18.5s-4.5 -10.166 -5.5 -14.499s-1.5 -8.83301 -1.5 -13.5c0 -6.66699 1.33301 -13.167 4 -19.5
s7 -13.166 13 -20.499s14.167 -16 24.5 -26l39.5 -37c17.333 -15.333 31.333 -34.833 42 -58.5s16 -52.834 16 -87.501c0 -24 -3.16699 -46.667 -9.5 -68s-16 -40 -29 -56s-29.167 -28.667 -48.5 -38s-42 -14 -68 -14c-26.667 0 -52 4.33301 -76 13l15 75
c9.33301 -2.66699 18 -4.66699 26 -6s16.333 -2 25 -2c14.667 0 27 2.66699 37 8s18 12.5 24 21.5s10.333 19.333 13 31s4 23.834 4 36.501c0 14 -1.16699 26.167 -3.5 36.5s-6 19.833 -11 28.5s-11.167 16.667 -18.5 24l-26 25c-25.333 23.333 -44 44.166 -56 62.499
s-18 38.833 -18 61.5c0 21.333 3.66699 39.333 11 54s18 32.334 32 53.001c11.333 16 21.333 32 30 48s13 36 13 60c0 23.333 -5.66699 42.833 -17 58.5s-28.666 23.5 -51.999 23.5c-28 0 -49.5 -8.16699 -64.5 -24.5s-22.5 -46.166 -22.5 -89.499v-586h-86v583
c0 66.667 14.667 115.5 44 146.5s71.333 46.5 126 46.5c25.333 0 47.833 -3.83301 67.5 -11.5s36.167 -18 49.5 -31s23.5 -28.667 30.5 -47s10.5 -37.833 10.5 -58.5z" />
    <glyph glyph-name="agrave" unicode="&#xe0;" horiz-adv-x="434" 
d="M86 514c17.333 7.33301 35.667 13.1699 55 17.5029s40.333 6.5 63 6.5c46.667 0 84.667 -14.5 114 -43.5s44 -74.167 44 -135.5v-348c-24 -6.66699 -48.5 -12 -73.5 -16s-49.5 -6 -73.5 -6s-46.5 3 -67.5 9s-39.333 15.667 -55 29s-28.167 30.166 -37.5 50.499
s-14 45.166 -14 74.499c0 27.333 4.16699 51.166 12.5 71.499s19.833 37.333 34.5 51s32 24 52 31s41.667 10.5 65 10.5c22 0 46.333 -2.66699 73 -8v48c0 38.667 -7.5 65.667 -22.5 81s-36.5 23 -64.5 23c-15.333 0 -29.833 -1.5 -43.5 -4.5s-28.167 -7.83301 -43.5 -14.5z
M127.001 153.004c0 -30.667 7.99902 -53.333 23.999 -68s38.667 -22 68 -22c18 0 37.667 2.33301 59 7v167c-20 5.33301 -39.667 8 -59 8c-12.667 0 -24.667 -1.5 -36 -4.5s-21.166 -8 -29.499 -15s-14.833 -16.333 -19.5 -28s-7 -26.5 -7 -44.5zM154 778.005l118 -159
l-43 -37l-136 144z" />
    <glyph glyph-name="aacute" unicode="&#xe1;" horiz-adv-x="434" 
d="M86 514c17.333 7.33301 35.667 13.1699 55 17.5029s40.333 6.5 63 6.5c46.667 0 84.667 -14.5 114 -43.5s44 -74.167 44 -135.5v-348c-24 -6.66699 -48.5 -12 -73.5 -16s-49.5 -6 -73.5 -6s-46.5 3 -67.5 9s-39.333 15.667 -55 29s-28.167 30.166 -37.5 50.499
s-14 45.166 -14 74.499c0 27.333 4.16699 51.166 12.5 71.499s19.833 37.333 34.5 51s32 24 52 31s41.667 10.5 65 10.5c22 0 46.333 -2.66699 73 -8v48c0 38.667 -7.5 65.667 -22.5 81s-36.5 23 -64.5 23c-15.333 0 -29.833 -1.5 -43.5 -4.5s-28.167 -7.83301 -43.5 -14.5z
M127.001 153.004c0 -30.667 7.99902 -53.333 23.999 -68s38.667 -22 68 -22c18 0 37.667 2.33301 59 7v167c-20 5.33301 -39.667 8 -59 8c-12.667 0 -24.667 -1.5 -36 -4.5s-21.166 -8 -29.499 -15s-14.833 -16.333 -19.5 -28s-7 -26.5 -7 -44.5zM329 726.005l-136 -144
l-43 37l118 159z" />
    <glyph glyph-name="acircumflex" unicode="&#xe2;" horiz-adv-x="434" 
d="M86 514c17.333 7.33301 35.667 13.1699 55 17.5029s40.333 6.5 63 6.5c46.667 0 84.667 -14.5 114 -43.5s44 -74.167 44 -135.5v-348c-24 -6.66699 -48.5 -12 -73.5 -16s-49.5 -6 -73.5 -6s-46.5 3 -67.5 9s-39.333 15.667 -55 29s-28.167 30.166 -37.5 50.499
s-14 45.166 -14 74.499c0 27.333 4.16699 51.166 12.5 71.499s19.833 37.333 34.5 51s32 24 52 31s41.667 10.5 65 10.5c22 0 46.333 -2.66699 73 -8v48c0 38.667 -7.5 65.667 -22.5 81s-36.5 23 -64.5 23c-15.333 0 -29.833 -1.5 -43.5 -4.5s-28.167 -7.83301 -43.5 -14.5z
M127.001 153.004c0 -30.667 7.99902 -53.333 23.999 -68s38.667 -22 68 -22c18 0 37.667 2.33301 59 7v167c-20 5.33301 -39.667 8 -59 8c-12.667 0 -24.667 -1.5 -36 -4.5s-21.166 -8 -29.499 -15s-14.833 -16.333 -19.5 -28s-7 -26.5 -7 -44.5zM143 581.005l-42 35
l115 152l115 -152l-42 -35l-73 85z" />
    <glyph glyph-name="atilde" unicode="&#xe3;" horiz-adv-x="434" 
d="M86 514c17.333 7.33301 35.667 13.1699 55 17.5029s40.333 6.5 63 6.5c46.667 0 84.667 -14.5 114 -43.5s44 -74.167 44 -135.5v-348c-24 -6.66699 -48.5 -12 -73.5 -16s-49.5 -6 -73.5 -6s-46.5 3 -67.5 9s-39.333 15.667 -55 29s-28.167 30.166 -37.5 50.499
s-14 45.166 -14 74.499c0 27.333 4.16699 51.166 12.5 71.499s19.833 37.333 34.5 51s32 24 52 31s41.667 10.5 65 10.5c22 0 46.333 -2.66699 73 -8v48c0 38.667 -7.5 65.667 -22.5 81s-36.5 23 -64.5 23c-15.333 0 -29.833 -1.5 -43.5 -4.5s-28.167 -7.83301 -43.5 -14.5z
M127.001 153.004c0 -30.667 7.99902 -53.333 23.999 -68s38.667 -22 68 -22c18 0 37.667 2.33301 59 7v167c-20 5.33301 -39.667 8 -59 8c-12.667 0 -24.667 -1.5 -36 -4.5s-21.166 -8 -29.499 -15s-14.833 -16.333 -19.5 -28s-7 -26.5 -7 -44.5zM345 721.005
c-6 -32 -15.498 -56.5 -28.498 -73.5s-29.167 -25.5 -48.5 -25.5c-11.333 0 -21.833 2.33301 -31.5 7s-18.5 10 -26.5 16s-15.5 11.333 -22.5 16s-13.833 7 -20.5 7c-6 0 -11.167 -3.33301 -15.5 -10s-8.5 -18.667 -12.5 -36l-50 17c5.33301 32 14.666 56.5 27.999 73.5
s29.666 25.5 48.999 25.5c12 0 22.667 -2.33301 32 -7s18 -10 26 -16l22 -16c6.66699 -4.66699 13.667 -7 21 -7c6 0 11.167 3.33301 15.5 10s8.5 18.667 12.5 36z" />
    <glyph glyph-name="adieresis" unicode="&#xe4;" horiz-adv-x="434" 
d="M86 514c17.333 7.33301 35.667 13.1699 55 17.5029s40.333 6.5 63 6.5c46.667 0 84.667 -14.5 114 -43.5s44 -74.167 44 -135.5v-348c-24 -6.66699 -48.5 -12 -73.5 -16s-49.5 -6 -73.5 -6s-46.5 3 -67.5 9s-39.333 15.667 -55 29s-28.167 30.166 -37.5 50.499
s-14 45.166 -14 74.499c0 27.333 4.16699 51.166 12.5 71.499s19.833 37.333 34.5 51s32 24 52 31s41.667 10.5 65 10.5c22 0 46.333 -2.66699 73 -8v48c0 38.667 -7.5 65.667 -22.5 81s-36.5 23 -64.5 23c-15.333 0 -29.833 -1.5 -43.5 -4.5s-28.167 -7.83301 -43.5 -14.5z
M127.001 153.004c0 -30.667 7.99902 -53.333 23.999 -68s38.667 -22 68 -22c18 0 37.667 2.33301 59 7v167c-20 5.33301 -39.667 8 -59 8c-12.667 0 -24.667 -1.5 -36 -4.5s-21.166 -8 -29.499 -15s-14.833 -16.333 -19.5 -28s-7 -26.5 -7 -44.5zM134 618.005
c-15.333 0 -28.5 5.16699 -39.5 15.5s-16.5 24.166 -16.5 41.499s5.5 31.166 16.5 41.499s24.167 15.5 39.5 15.5s28.5 -5.16699 39.5 -15.5s16.5 -24.166 16.5 -41.499s-5.5 -31.166 -16.5 -41.499s-24.167 -15.5 -39.5 -15.5zM300 618.005
c-15.333 0 -28.5 5.16699 -39.5 15.5s-16.5 24.166 -16.5 41.499s5.5 31.166 16.5 41.499s24.167 15.5 39.5 15.5s28.5 -5.16699 39.5 -15.5s16.5 -24.166 16.5 -41.499s-5.5 -31.166 -16.5 -41.499s-24.167 -15.5 -39.5 -15.5z" />
    <glyph glyph-name="aring" unicode="&#xe5;" horiz-adv-x="434" 
d="M86 514c17.333 7.33301 35.667 13.1699 55 17.5029s40.333 6.5 63 6.5c46.667 0 84.667 -14.5 114 -43.5s44 -74.167 44 -135.5v-348c-24 -6.66699 -48.5 -12 -73.5 -16s-49.5 -6 -73.5 -6s-46.5 3 -67.5 9s-39.333 15.667 -55 29s-28.167 30.166 -37.5 50.499
s-14 45.166 -14 74.499c0 27.333 4.16699 51.166 12.5 71.499s19.833 37.333 34.5 51s32 24 52 31s41.667 10.5 65 10.5c22 0 46.333 -2.66699 73 -8v48c0 38.667 -7.5 65.667 -22.5 81s-36.5 23 -64.5 23c-15.333 0 -29.833 -1.5 -43.5 -4.5s-28.167 -7.83301 -43.5 -14.5z
M127.001 153.004c0 -30.667 7.99902 -53.333 23.999 -68s38.667 -22 68 -22c18 0 37.667 2.33301 59 7v167c-20 5.33301 -39.667 8 -59 8c-12.667 0 -24.667 -1.5 -36 -4.5s-21.166 -8 -29.499 -15s-14.833 -16.333 -19.5 -28s-7 -26.5 -7 -44.5zM302 682.005
c0 -26 -8.33301 -46.667 -25 -62s-36.667 -23 -60 -23s-43.333 7.66699 -60 23s-25 36 -25 62s8.33301 46.667 25 62s36.667 23 60 23s43.333 -7.66699 60 -23s25 -36 25 -62zM257 682.005c0 13.333 -3.83301 23.5 -11.5 30.5s-17.167 10.5 -28.5 10.5
s-20.833 -3.5 -28.5 -10.5s-11.5 -17.167 -11.5 -30.5s3.83301 -23.5 11.5 -30.5s17.167 -10.5 28.5 -10.5s20.833 3.5 28.5 10.5s11.5 17.167 11.5 30.5z" />
    <glyph glyph-name="ae" unicode="&#xe6;" horiz-adv-x="663" 
d="M204 538c27.333 0 51.8369 -5.3291 73.5039 -15.9961s39.167 -28 52.5 -52c30 45.333 70.333 68 121 68c59.333 0 101.333 -22.333 126 -67s37 -107.334 37 -188.001v-22.5c0 -7.66699 -0.333008 -15.5 -1 -23.5h-249c0.666992 -25.333 3 -48.5 7 -69.5
s10.5 -39.333 19.5 -55s21 -27.834 36 -36.501s34.167 -13 57.5 -13c19.333 0 37.166 2.83301 53.499 8.5s28.166 10.5 35.499 14.5l16 -69c-8.66699 -6 -23.167 -12.5 -43.5 -19.5s-44.5 -10.5 -72.5 -10.5c-26 0 -48.833 3.16699 -68.5 9.5s-37.167 15.833 -52.5 28.5
c-21.333 -11.333 -42.833 -20.166 -64.5 -26.499s-45.834 -9.5 -72.501 -9.5c-24 0 -46.667 3.16699 -68 9.5s-39.833 16.166 -55.5 29.499s-28 30.333 -37 51s-13.5 45 -13.5 73c0 27.333 4.16699 51.166 12.5 71.499s19.833 37.333 34.5 51s32 24 52 31
s41.667 10.5 65 10.5c21.333 0 45.333 -2.66699 72 -8c0 1.33301 0.166992 2.33301 0.5 3s0.5 1.66699 0.5 3v42c0 38.667 -7.5 65.667 -22.5 81s-36.5 23 -64.5 23c-15.333 0 -29.833 -1.5 -43.5 -4.5s-28.167 -7.83301 -43.5 -14.5l-18 73
c17.333 7.33301 35.666 13.166 54.999 17.499s40.333 6.5 63 6.5zM219.004 63.0039c18 0 33.999 2.16797 47.999 6.50098s27 10.166 39 17.499c-9.33301 20 -16.333 42.5 -21 67.5s-7.66699 52.5 -9 82.5c-19.333 5.33301 -38.333 8 -57 8c-12.667 0 -24.667 -1.5 -36 -4.5
s-21.166 -8 -29.499 -15s-14.833 -16.333 -19.5 -28s-7 -26.5 -7 -44.5c0 -26 7.83301 -47.5 23.5 -64.5s38.5 -25.5 68.5 -25.5zM451.003 465.005c-28.667 0 -49.5 -14.333 -62.5 -43s-20.833 -67 -23.5 -115h159c0 48.667 -5 87.167 -15 115.5s-29.333 42.5 -58 42.5z" />
    <glyph glyph-name="ccedilla" unicode="&#xe7;" horiz-adv-x="353" 
d="M338 16c-10 -7.33301 -23.3281 -13.666 -39.9951 -18.999s-34.667 -8.66602 -54 -9.99902c-2.66699 -4.66699 -5 -9.33398 -7 -14.001s-3.66699 -9 -5 -13c19.333 -7.33301 33 -16.833 41 -28.5s12 -25.167 12 -40.5c0 -25.333 -10 -45 -30 -59s-44.667 -21 -74 -21
c-10 0 -21 0.833008 -33 2.5s-23.667 4.5 -35 8.5l10 55c6.66699 -1.33301 13.667 -2.83301 21 -4.5s15 -2.5 23 -2.5c12 0 22.333 1.83301 31 5.5s13 10.834 13 21.501c0 7.33301 -3.66699 13.666 -11 18.999s-21 10 -41 14c3.33301 10 7.16602 20.667 11.499 32
s9.16602 22 14.499 32c-25.333 6.66699 -46.833 18 -64.5 34s-31.834 35.667 -42.501 59s-18.334 49.666 -23.001 78.999s-7 61 -7 95c0 86.667 15.833 154.5 47.5 203.5s79.5 73.5 143.5 73.5c19.333 0 36.666 -2.33301 51.999 -7s29.666 -10.667 42.999 -18l-22 -71
c-20.667 13.333 -43.667 20 -69 20c-36 0 -62.5 -16.333 -79.5 -49s-25.5 -83.334 -25.5 -152.001c0 -28.667 1.66699 -55.167 5 -79.5s9.16602 -45.166 17.499 -62.499s19.333 -31 33 -41s31.167 -15 52.5 -15c14.667 0 27.834 1.83301 39.501 5.5s22.834 8.5 33.501 14.5z
" />
    <glyph glyph-name="egrave" unicode="&#xe8;" horiz-adv-x="436" 
d="M137 237c0.666992 -25.333 3.00293 -48.499 7.00293 -69.499s10.5 -39.333 19.5 -55s21 -27.834 36 -36.501s34.167 -13 57.5 -13c19.333 0 37.166 2.83301 53.499 8.5s28.166 10.5 35.499 14.5l16 -69c-8.66699 -6 -23.167 -12.5 -43.5 -19.5s-44.5 -10.5 -72.5 -10.5
c-36.667 0 -67.5 6.66699 -92.5 20s-45.333 32 -61 56s-26.834 52.667 -33.501 86s-10 70 -10 110c0 96.667 16 167.334 48 212.001s74.333 67 127 67c59.333 0 101.333 -22.333 126 -67s37 -107.334 37 -188.001v-22.5c0 -7.66699 -0.333008 -15.5 -1 -23.5h-249z
M224.003 465.001c-28.667 0 -49.5 -14.333 -62.5 -43s-20.833 -67 -23.5 -115h159c0 48.667 -5 87.167 -15 115.5s-29.333 42.5 -58 42.5zM165.003 778.001l118 -159l-43 -37l-136 144z" />
    <glyph glyph-name="eacute" unicode="&#xe9;" horiz-adv-x="436" 
d="M137 237c0.666992 -25.333 3.00293 -48.499 7.00293 -69.499s10.5 -39.333 19.5 -55s21 -27.834 36 -36.501s34.167 -13 57.5 -13c19.333 0 37.166 2.83301 53.499 8.5s28.166 10.5 35.499 14.5l16 -69c-8.66699 -6 -23.167 -12.5 -43.5 -19.5s-44.5 -10.5 -72.5 -10.5
c-36.667 0 -67.5 6.66699 -92.5 20s-45.333 32 -61 56s-26.834 52.667 -33.501 86s-10 70 -10 110c0 96.667 16 167.334 48 212.001s74.333 67 127 67c59.333 0 101.333 -22.333 126 -67s37 -107.334 37 -188.001v-22.5c0 -7.66699 -0.333008 -15.5 -1 -23.5h-249z
M224.003 465.001c-28.667 0 -49.5 -14.333 -62.5 -43s-20.833 -67 -23.5 -115h159c0 48.667 -5 87.167 -15 115.5s-29.333 42.5 -58 42.5zM340.003 726.001l-136 -144l-43 37l118 159z" />
    <glyph glyph-name="ecircumflex" unicode="&#xea;" horiz-adv-x="436" 
d="M137 237c0.666992 -25.333 3.00293 -48.499 7.00293 -69.499s10.5 -39.333 19.5 -55s21 -27.834 36 -36.501s34.167 -13 57.5 -13c19.333 0 37.166 2.83301 53.499 8.5s28.166 10.5 35.499 14.5l16 -69c-8.66699 -6 -23.167 -12.5 -43.5 -19.5s-44.5 -10.5 -72.5 -10.5
c-36.667 0 -67.5 6.66699 -92.5 20s-45.333 32 -61 56s-26.834 52.667 -33.501 86s-10 70 -10 110c0 96.667 16 167.334 48 212.001s74.333 67 127 67c59.333 0 101.333 -22.333 126 -67s37 -107.334 37 -188.001v-22.5c0 -7.66699 -0.333008 -15.5 -1 -23.5h-249z
M224.003 465.001c-28.667 0 -49.5 -14.333 -62.5 -43s-20.833 -67 -23.5 -115h159c0 48.667 -5 87.167 -15 115.5s-29.333 42.5 -58 42.5zM149.003 581.001l-42 35l115 152l115 -152l-42 -35l-73 85z" />
    <glyph glyph-name="edieresis" unicode="&#xeb;" horiz-adv-x="436" 
d="M137 237c0.666992 -25.333 3.00293 -48.499 7.00293 -69.499s10.5 -39.333 19.5 -55s21 -27.834 36 -36.501s34.167 -13 57.5 -13c19.333 0 37.166 2.83301 53.499 8.5s28.166 10.5 35.499 14.5l16 -69c-8.66699 -6 -23.167 -12.5 -43.5 -19.5s-44.5 -10.5 -72.5 -10.5
c-36.667 0 -67.5 6.66699 -92.5 20s-45.333 32 -61 56s-26.834 52.667 -33.501 86s-10 70 -10 110c0 96.667 16 167.334 48 212.001s74.333 67 127 67c59.333 0 101.333 -22.333 126 -67s37 -107.334 37 -188.001v-22.5c0 -7.66699 -0.333008 -15.5 -1 -23.5h-249z
M224.003 465.001c-28.667 0 -49.5 -14.333 -62.5 -43s-20.833 -67 -23.5 -115h159c0 48.667 -5 87.167 -15 115.5s-29.333 42.5 -58 42.5zM140.003 618.001c-15.333 0 -28.5 5.16699 -39.5 15.5s-16.5 24.166 -16.5 41.499s5.5 31.166 16.5 41.499s24.167 15.5 39.5 15.5
s28.5 -5.16699 39.5 -15.5s16.5 -24.166 16.5 -41.499s-5.5 -31.166 -16.5 -41.499s-24.167 -15.5 -39.5 -15.5zM306.003 618.001c-15.333 0 -28.5 5.16699 -39.5 15.5s-16.5 24.166 -16.5 41.499s5.5 31.166 16.5 41.499s24.167 15.5 39.5 15.5s28.5 -5.16699 39.5 -15.5
s16.5 -24.166 16.5 -41.499s-5.5 -31.166 -16.5 -41.499s-24.167 -15.5 -39.5 -15.5z" />
    <glyph glyph-name="igrave" unicode="&#xec;" horiz-adv-x="242" 
d="M164 0h-86v525h86v-525zM64 778l118 -159l-43 -37l-136 144z" />
    <glyph glyph-name="iacute" unicode="&#xed;" horiz-adv-x="242" 
d="M164 0h-86v525h86v-525zM241 726l-136 -144l-43 37l118 159z" />
    <glyph glyph-name="icircumflex" unicode="&#xee;" horiz-adv-x="242" 
d="M164 0h-86v525h86v-525zM48 581l-42 35l115 152l115 -152l-42 -35l-73 85z" />
    <glyph glyph-name="idieresis" unicode="&#xef;" horiz-adv-x="242" 
d="M164 0h-86v525h86v-525zM39 618c-15.333 0 -28.5 5.16699 -39.5 15.5s-16.5 24.166 -16.5 41.499s5.5 31.166 16.5 41.499s24.167 15.5 39.5 15.5s28.5 -5.16699 39.5 -15.5s16.5 -24.166 16.5 -41.499s-5.5 -31.166 -16.5 -41.499s-24.167 -15.5 -39.5 -15.5zM205 618
c-15.333 0 -28.5 5.16699 -39.5 15.5s-16.5 24.166 -16.5 41.499s5.5 31.166 16.5 41.499s24.167 15.5 39.5 15.5s28.5 -5.16699 39.5 -15.5s16.5 -24.166 16.5 -41.499s-5.5 -31.166 -16.5 -41.499s-24.167 -15.5 -39.5 -15.5z" />
    <glyph glyph-name="eth" unicode="&#xf0;" horiz-adv-x="461" 
d="M426 666l-88.999 -42c23.333 -48.667 41.166 -101.334 53.499 -158.001s18.5 -116.667 18.5 -180c0 -42 -3 -81.333 -9 -118s-16.167 -68.334 -30.5 -95.001s-33.166 -47.667 -56.499 -63s-52 -23 -86 -23c-30 0 -56 5.83301 -78 17.5s-40.5 28.334 -55.5 50.001
s-26.167 47.834 -33.5 78.501s-11 65 -11 103c0 43.333 4.66699 80.833 14 112.5s22.166 58 38.499 79s35.666 36.5 57.999 46.5s46.5 15 72.5 15c24 0 46.667 -4 68 -12c-9.33301 40.667 -21.666 78 -36.999 112l-80 -37l-25 57l77 36c-18 30 -39 59 -63 87l61 43
c28 -30 52.333 -62.333 73 -97l95 45zM319.001 289c0 37.333 -2 73 -6 107c-9.33301 6.66699 -20 12.167 -32 16.5s-25.667 6.5 -41 6.5c-67.333 0 -101 -61.667 -101 -185c0 -61.333 7.83301 -105.333 23.5 -132s36.167 -40 61.5 -40c34.667 0 59.167 20 73.5 60
s21.5 95.667 21.5 167z" />
    <glyph glyph-name="ntilde" unicode="&#xf1;" horiz-adv-x="482" 
d="M78 510c24.667 7.33301 51.333 13.5 80 18.5s55 7.5 79 7.5c26 0 49.667 -3.5 71 -10.5s39.5 -18.833 54.5 -35.5s26.667 -39.167 35 -67.5s12.5 -63.5 12.5 -105.5v-317h-86v310c0 52 -6.66699 90 -20 114s-38.333 36 -75 36c-19.333 0 -41 -3.33301 -65 -10v-450h-86
v510zM368.999 721c-6 -32 -15.498 -56.5 -28.498 -73.5s-29.167 -25.5 -48.5 -25.5c-11.333 0 -21.833 2.33301 -31.5 7s-18.5 10 -26.5 16s-15.5 11.333 -22.5 16s-13.833 7 -20.5 7c-6 0 -11.167 -3.33301 -15.5 -10s-8.5 -18.667 -12.5 -36l-50 17
c5.33301 32 14.666 56.5 27.999 73.5s29.666 25.5 48.999 25.5c12 0 22.667 -2.33301 32 -7s18 -10 26 -16l22 -16c6.66699 -4.66699 13.667 -7 21 -7c6 0 11.167 3.33301 15.5 10s8.5 18.667 12.5 36z" />
    <glyph glyph-name="ograve" unicode="&#xf2;" horiz-adv-x="463" 
d="M415 262c0 -41.333 -3.66699 -78.833 -11 -112.5s-18.5 -62.5 -33.5 -86.5s-34 -42.667 -57 -56s-50.167 -20 -81.5 -20s-58.666 6.66699 -81.999 20s-42.5 32 -57.5 56s-26.167 52.833 -33.5 86.5s-11 71.167 -11 112.5c0 40.667 3.66699 78 11 112
s18.5 63.167 33.5 87.5s34.167 43.166 57.5 56.499s50.666 20 81.999 20s58.5 -6.66699 81.5 -20s42 -32.166 57 -56.499s26.167 -53.5 33.5 -87.5s11 -71.333 11 -112zM325 262c0 29.333 -1.66699 56.166 -5 80.499s-8.66602 45.333 -15.999 63s-17 31.334 -29 41.001
s-26.333 14.5 -43 14.5c-17.333 0 -31.833 -4.83301 -43.5 -14.5s-21.334 -23.334 -29.001 -41.001s-13.167 -38.667 -16.5 -63s-5 -51.166 -5 -80.499s1.66699 -56.166 5 -80.499s8.83301 -45.166 16.5 -62.499s17.334 -30.833 29.001 -40.5s26.167 -14.5 43.5 -14.5
c16.667 0 31 4.83301 43 14.5s21.667 23.167 29 40.5s12.666 38.166 15.999 62.499s5 51.166 5 80.499zM173 778l118 -159l-43 -37l-136 144z" />
    <glyph glyph-name="oacute" unicode="&#xf3;" horiz-adv-x="463" 
d="M415 262c0 -41.333 -3.66699 -78.833 -11 -112.5s-18.5 -62.5 -33.5 -86.5s-34 -42.667 -57 -56s-50.167 -20 -81.5 -20s-58.666 6.66699 -81.999 20s-42.5 32 -57.5 56s-26.167 52.833 -33.5 86.5s-11 71.167 -11 112.5c0 40.667 3.66699 78 11 112
s18.5 63.167 33.5 87.5s34.167 43.166 57.5 56.499s50.666 20 81.999 20s58.5 -6.66699 81.5 -20s42 -32.166 57 -56.499s26.167 -53.5 33.5 -87.5s11 -71.333 11 -112zM325 262c0 29.333 -1.66699 56.166 -5 80.499s-8.66602 45.333 -15.999 63s-17 31.334 -29 41.001
s-26.333 14.5 -43 14.5c-17.333 0 -31.833 -4.83301 -43.5 -14.5s-21.334 -23.334 -29.001 -41.001s-13.167 -38.667 -16.5 -63s-5 -51.166 -5 -80.499s1.66699 -56.166 5 -80.499s8.83301 -45.166 16.5 -62.499s17.334 -30.833 29.001 -40.5s26.167 -14.5 43.5 -14.5
c16.667 0 31 4.83301 43 14.5s21.667 23.167 29 40.5s12.666 38.166 15.999 62.499s5 51.166 5 80.499zM351 726l-136 -144l-43 37l118 159z" />
    <glyph glyph-name="ocircumflex" unicode="&#xf4;" horiz-adv-x="463" 
d="M415 262c0 -41.333 -3.66699 -78.833 -11 -112.5s-18.5 -62.5 -33.5 -86.5s-34 -42.667 -57 -56s-50.167 -20 -81.5 -20s-58.666 6.66699 -81.999 20s-42.5 32 -57.5 56s-26.167 52.833 -33.5 86.5s-11 71.167 -11 112.5c0 40.667 3.66699 78 11 112
s18.5 63.167 33.5 87.5s34.167 43.166 57.5 56.499s50.666 20 81.999 20s58.5 -6.66699 81.5 -20s42 -32.166 57 -56.499s26.167 -53.5 33.5 -87.5s11 -71.333 11 -112zM325 262c0 29.333 -1.66699 56.166 -5 80.499s-8.66602 45.333 -15.999 63s-17 31.334 -29 41.001
s-26.333 14.5 -43 14.5c-17.333 0 -31.833 -4.83301 -43.5 -14.5s-21.334 -23.334 -29.001 -41.001s-13.167 -38.667 -16.5 -63s-5 -51.166 -5 -80.499s1.66699 -56.166 5 -80.499s8.83301 -45.166 16.5 -62.499s17.334 -30.833 29.001 -40.5s26.167 -14.5 43.5 -14.5
c16.667 0 31 4.83301 43 14.5s21.667 23.167 29 40.5s12.666 38.166 15.999 62.499s5 51.166 5 80.499zM157 581l-42 35l115 152l115 -152l-42 -35l-73 85z" />
    <glyph glyph-name="otilde" unicode="&#xf5;" horiz-adv-x="463" 
d="M415 262c0 -41.333 -3.66699 -78.833 -11 -112.5s-18.5 -62.5 -33.5 -86.5s-34 -42.667 -57 -56s-50.167 -20 -81.5 -20s-58.666 6.66699 -81.999 20s-42.5 32 -57.5 56s-26.167 52.833 -33.5 86.5s-11 71.167 -11 112.5c0 40.667 3.66699 78 11 112
s18.5 63.167 33.5 87.5s34.167 43.166 57.5 56.499s50.666 20 81.999 20s58.5 -6.66699 81.5 -20s42 -32.166 57 -56.499s26.167 -53.5 33.5 -87.5s11 -71.333 11 -112zM325 262c0 29.333 -1.66699 56.166 -5 80.499s-8.66602 45.333 -15.999 63s-17 31.334 -29 41.001
s-26.333 14.5 -43 14.5c-17.333 0 -31.833 -4.83301 -43.5 -14.5s-21.334 -23.334 -29.001 -41.001s-13.167 -38.667 -16.5 -63s-5 -51.166 -5 -80.499s1.66699 -56.166 5 -80.499s8.83301 -45.166 16.5 -62.499s17.334 -30.833 29.001 -40.5s26.167 -14.5 43.5 -14.5
c16.667 0 31 4.83301 43 14.5s21.667 23.167 29 40.5s12.666 38.166 15.999 62.499s5 51.166 5 80.499zM359 721c-6 -32 -15.498 -56.5 -28.498 -73.5s-29.167 -25.5 -48.5 -25.5c-11.333 0 -21.833 2.33301 -31.5 7s-18.5 10 -26.5 16s-15.5 11.333 -22.5 16
s-13.833 7 -20.5 7c-6 0 -11.167 -3.33301 -15.5 -10s-8.5 -18.667 -12.5 -36l-50 17c5.33301 32 14.666 56.5 27.999 73.5s29.666 25.5 48.999 25.5c12 0 22.667 -2.33301 32 -7s18 -10 26 -16l22 -16c6.66699 -4.66699 13.667 -7 21 -7c6 0 11.167 3.33301 15.5 10
s8.5 18.667 12.5 36z" />
    <glyph glyph-name="odieresis" unicode="&#xf6;" horiz-adv-x="463" 
d="M415 262c0 -41.333 -3.66699 -78.833 -11 -112.5s-18.5 -62.5 -33.5 -86.5s-34 -42.667 -57 -56s-50.167 -20 -81.5 -20s-58.666 6.66699 -81.999 20s-42.5 32 -57.5 56s-26.167 52.833 -33.5 86.5s-11 71.167 -11 112.5c0 40.667 3.66699 78 11 112
s18.5 63.167 33.5 87.5s34.167 43.166 57.5 56.499s50.666 20 81.999 20s58.5 -6.66699 81.5 -20s42 -32.166 57 -56.499s26.167 -53.5 33.5 -87.5s11 -71.333 11 -112zM325 262c0 29.333 -1.66699 56.166 -5 80.499s-8.66602 45.333 -15.999 63s-17 31.334 -29 41.001
s-26.333 14.5 -43 14.5c-17.333 0 -31.833 -4.83301 -43.5 -14.5s-21.334 -23.334 -29.001 -41.001s-13.167 -38.667 -16.5 -63s-5 -51.166 -5 -80.499s1.66699 -56.166 5 -80.499s8.83301 -45.166 16.5 -62.499s17.334 -30.833 29.001 -40.5s26.167 -14.5 43.5 -14.5
c16.667 0 31 4.83301 43 14.5s21.667 23.167 29 40.5s12.666 38.166 15.999 62.499s5 51.166 5 80.499zM148 618c-15.333 0 -28.5 5.16699 -39.5 15.5s-16.5 24.166 -16.5 41.499s5.5 31.166 16.5 41.499s24.167 15.5 39.5 15.5s28.5 -5.16699 39.5 -15.5
s16.5 -24.166 16.5 -41.499s-5.5 -31.166 -16.5 -41.499s-24.167 -15.5 -39.5 -15.5zM314 618c-15.333 0 -28.5 5.16699 -39.5 15.5s-16.5 24.166 -16.5 41.499s5.5 31.166 16.5 41.499s24.167 15.5 39.5 15.5s28.5 -5.16699 39.5 -15.5s16.5 -24.166 16.5 -41.499
s-5.5 -31.166 -16.5 -41.499s-24.167 -15.5 -39.5 -15.5z" />
    <glyph glyph-name="divide" unicode="&#xf7;" horiz-adv-x="430" 
d="M43 336h344v-73h-344v73zM272 453c0 -14 -5 -26.333 -15 -37s-23 -16 -39 -16s-28.833 5.33301 -38.5 16s-14.5 23 -14.5 37c0 14.667 4.83301 27.334 14.5 38.001s22.5 16 38.5 16s29 -5.33301 39 -16s15 -23.334 15 -38.001zM272 148c0 -14 -5 -26.333 -15 -37
s-23 -16 -39 -16s-28.833 5.33301 -38.5 16s-14.5 23 -14.5 37c0 14.667 4.83301 27.334 14.5 38.001s22.5 16 38.5 16s29 -5.33301 39 -16s15 -23.334 15 -38.001z" />
    <glyph glyph-name="oslash" unicode="&#xf8;" horiz-adv-x="463" 
d="M40 -4l46.002 77c-13.333 24 -23 52 -29 84s-9 67 -9 105c0 40.667 3.66699 78 11 112s18.5 63.167 33.5 87.5s34.167 43.166 57.5 56.499s50.666 20 81.999 20c44 0 80.667 -13.667 110 -41l34 56l50 -30l-47 -77c12 -23.333 21 -50.666 27 -81.999s9 -65.333 9 -102
c0 -41.333 -3.66699 -78.833 -11 -112.5s-18.5 -62.5 -33.5 -86.5s-34 -42.667 -57 -56s-50.167 -20 -81.5 -20c-42.667 0 -78.334 12.333 -107.001 37l-35 -58zM138.002 262c0 -17.333 0.500977 -33.668 1.50098 -49.001s2.83301 -29.666 5.5 -42.999l151 251
c-14.667 26.667 -36 40 -64 40c-17.333 0 -31.833 -4.83301 -43.5 -14.5s-21.334 -23.334 -29.001 -41.001s-13.167 -38.667 -16.5 -63s-5 -51.166 -5 -80.499zM325.003 261.998c0 30.667 -2 58.6689 -6 84.002l-149 -248c14.667 -22.667 35.334 -34 62.001 -34
c16.667 0 31 4.83301 43 14.5s21.667 23.167 29 40.5s12.666 38.166 15.999 62.499s5 51.166 5 80.499z" />
    <glyph glyph-name="ugrave" unicode="&#xf9;" horiz-adv-x="480" 
d="M403 15c-8.66699 -3.33301 -19.167 -6.5 -31.5 -9.5s-25.333 -5.66699 -39 -8s-27.334 -4.33301 -41.001 -6s-26.167 -2.5 -37.5 -2.5c-27.333 0 -52.333 3.16699 -75 9.5s-42 17.5 -58 33.5s-28.333 37.833 -37 65.5s-13 62.5 -13 104.5v323h86v-320
c0 -51.333 7.83301 -87.5 23.5 -108.5s39.5 -31.5 71.5 -31.5c10.667 0 21.334 0.5 32.001 1.5s21.667 3.16699 33 6.5v452h86v-510zM168 778l118 -159l-43 -37l-136 144z" />
    <glyph glyph-name="uacute" unicode="&#xfa;" horiz-adv-x="480" 
d="M403 15c-8.66699 -3.33301 -19.167 -6.5 -31.5 -9.5s-25.333 -5.66699 -39 -8s-27.334 -4.33301 -41.001 -6s-26.167 -2.5 -37.5 -2.5c-27.333 0 -52.333 3.16699 -75 9.5s-42 17.5 -58 33.5s-28.333 37.833 -37 65.5s-13 62.5 -13 104.5v323h86v-320
c0 -51.333 7.83301 -87.5 23.5 -108.5s39.5 -31.5 71.5 -31.5c10.667 0 21.334 0.5 32.001 1.5s21.667 3.16699 33 6.5v452h86v-510zM368 726l-136 -144l-43 37l118 159z" />
    <glyph glyph-name="ucircumflex" unicode="&#xfb;" horiz-adv-x="480" 
d="M403 15c-8.66699 -3.33301 -19.167 -6.5 -31.5 -9.5s-25.333 -5.66699 -39 -8s-27.334 -4.33301 -41.001 -6s-26.167 -2.5 -37.5 -2.5c-27.333 0 -52.333 3.16699 -75 9.5s-42 17.5 -58 33.5s-28.333 37.833 -37 65.5s-13 62.5 -13 104.5v323h86v-320
c0 -51.333 7.83301 -87.5 23.5 -108.5s39.5 -31.5 71.5 -31.5c10.667 0 21.334 0.5 32.001 1.5s21.667 3.16699 33 6.5v452h86v-510zM167 581l-42 35l115 152l115 -152l-42 -35l-73 85z" />
    <glyph glyph-name="udieresis" unicode="&#xfc;" horiz-adv-x="480" 
d="M403 15c-8.66699 -3.33301 -19.167 -6.5 -31.5 -9.5s-25.333 -5.66699 -39 -8s-27.334 -4.33301 -41.001 -6s-26.167 -2.5 -37.5 -2.5c-27.333 0 -52.333 3.16699 -75 9.5s-42 17.5 -58 33.5s-28.333 37.833 -37 65.5s-13 62.5 -13 104.5v323h86v-320
c0 -51.333 7.83301 -87.5 23.5 -108.5s39.5 -31.5 71.5 -31.5c10.667 0 21.334 0.5 32.001 1.5s21.667 3.16699 33 6.5v452h86v-510zM158 618c-15.333 0 -28.5 5.16699 -39.5 15.5s-16.5 24.166 -16.5 41.499s5.5 31.166 16.5 41.499s24.167 15.5 39.5 15.5
s28.5 -5.16699 39.5 -15.5s16.5 -24.166 16.5 -41.499s-5.5 -31.166 -16.5 -41.499s-24.167 -15.5 -39.5 -15.5zM324 618c-15.333 0 -28.5 5.16699 -39.5 15.5s-16.5 24.166 -16.5 41.499s5.5 31.166 16.5 41.499s24.167 15.5 39.5 15.5s28.5 -5.16699 39.5 -15.5
s16.5 -24.166 16.5 -41.499s-5.5 -31.166 -16.5 -41.499s-24.167 -15.5 -39.5 -15.5z" />
    <glyph glyph-name="yacute" unicode="&#xfd;" horiz-adv-x="396" 
d="M199 109c19.333 66.667 37.002 133.666 53.002 200.999s31.333 139 46 215h85c-10 -48.667 -20.833 -96.667 -32.5 -144s-23.667 -93 -36 -137s-24.666 -85.5 -36.999 -124.5l-34.5 -106.5c-12.667 -37.333 -24.834 -68.833 -36.501 -94.5
s-24.334 -46.334 -38.001 -62.001s-28.5 -27 -44.5 -34s-35 -10.5 -57 -10.5c-12 0 -24 1.5 -36 4.5s-22 6.16699 -30 9.5l16 70c17.333 -7.33301 33.666 -11 48.999 -11c19.333 0 35 7 47 21s23.667 35 35 63l10 25c-12.667 34.667 -25.5 73.167 -38.5 115.5
s-25.667 86.5 -38 132.5s-24.166 93.167 -35.499 141.5s-21.666 95.5 -30.999 141.5h91c5.33301 -31.333 11.666 -65.666 18.999 -102.999s15.166 -74.666 23.499 -111.999s16.833 -73.5 25.5 -108.5s17 -65.833 25 -92.5zM324.002 725.999l-136 -144l-43 37l118 159z" />
    <glyph glyph-name="thorn" unicode="&#xfe;" horiz-adv-x="467" 
d="M163 -183h-85.998v944l86 15v-247c9.33301 2.66699 19.166 4.83398 29.499 6.50098s21.166 2.5 32.499 2.5c66 0 114.833 -24.5 146.5 -73.5s47.5 -117.167 47.5 -204.5c0 -88.667 -14.167 -156.334 -42.5 -203.001s-74.5 -70 -138.5 -70c-15.333 0 -29 1.5 -41 4.5
s-23.333 7.16699 -34 12.5v-187zM163.002 79c19.333 -10.667 39.999 -15.998 61.999 -15.998c16.667 0 31.334 3.33301 44.001 10s23.5 17.667 32.5 33s15.833 35.666 20.5 60.999s7 56.666 7 93.999c0 72 -9.16699 123.5 -27.5 154.5s-47.5 46.5 -87.5 46.5
c-7.33301 0 -15.333 -0.5 -24 -1.5s-17.667 -2.83301 -27 -5.5v-376z" />
    <glyph glyph-name="ydieresis" unicode="&#xff;" horiz-adv-x="396" 
d="M199 109c19.333 66.667 37.002 133.666 53.002 200.999s31.333 139 46 215h85c-10 -48.667 -20.833 -96.667 -32.5 -144s-23.667 -93 -36 -137s-24.666 -85.5 -36.999 -124.5l-34.5 -106.5c-12.667 -37.333 -24.834 -68.833 -36.501 -94.5
s-24.334 -46.334 -38.001 -62.001s-28.5 -27 -44.5 -34s-35 -10.5 -57 -10.5c-12 0 -24 1.5 -36 4.5s-22 6.16699 -30 9.5l16 70c17.333 -7.33301 33.666 -11 48.999 -11c19.333 0 35 7 47 21s23.667 35 35 63l10 25c-12.667 34.667 -25.5 73.167 -38.5 115.5
s-25.667 86.5 -38 132.5s-24.166 93.167 -35.499 141.5s-21.666 95.5 -30.999 141.5h91c5.33301 -31.333 11.666 -65.666 18.999 -102.999s15.166 -74.666 23.499 -111.999s16.833 -73.5 25.5 -108.5s17 -65.833 25 -92.5zM114.002 617.999
c-15.333 0 -28.5 5.16699 -39.5 15.5s-16.5 24.166 -16.5 41.499s5.5 31.166 16.5 41.499s24.167 15.5 39.5 15.5s28.5 -5.16699 39.5 -15.5s16.5 -24.166 16.5 -41.499s-5.5 -31.166 -16.5 -41.499s-24.167 -15.5 -39.5 -15.5zM280.002 617.999
c-15.333 0 -28.5 5.16699 -39.5 15.5s-16.5 24.166 -16.5 41.499s5.5 31.166 16.5 41.499s24.167 15.5 39.5 15.5s28.5 -5.16699 39.5 -15.5s16.5 -24.166 16.5 -41.499s-5.5 -31.166 -16.5 -41.499s-24.167 -15.5 -39.5 -15.5z" />
    <glyph glyph-name="Amacron" unicode="&#x100;" horiz-adv-x="503" 
d="M299 693l47.5 -151.501c15.667 -51 31 -104.5 46 -160.5s30 -115.333 45 -178s30.167 -130.334 45.5 -203.001h-90l-16.5 89l-17.5 88h-218c-6.66699 -29.333 -12.667 -58.666 -18 -87.999l-16 -89h-87c14.667 72.667 29.667 140.334 45 203.001l45.5 178
c15 56 30.333 109.5 46 160.5l47.5 151.5h95zM250 590.999l-48.001 -167c-15.333 -56 -30 -113.333 -44 -172h183c-13.333 58.667 -27.666 116 -42.999 172zM143.999 860.999h213v-68h-213v68z" />
    <glyph glyph-name="amacron" unicode="&#x101;" horiz-adv-x="434" 
d="M86 514c17.333 7.33301 35.667 13.1699 55 17.5029s40.333 6.5 63 6.5c46.667 0 84.667 -14.5 114 -43.5s44 -74.167 44 -135.5v-348c-24 -6.66699 -48.5 -12 -73.5 -16s-49.5 -6 -73.5 -6s-46.5 3 -67.5 9s-39.333 15.667 -55 29s-28.167 30.166 -37.5 50.499
s-14 45.166 -14 74.499c0 27.333 4.16699 51.166 12.5 71.499s19.833 37.333 34.5 51s32 24 52 31s41.667 10.5 65 10.5c22 0 46.333 -2.66699 73 -8v48c0 38.667 -7.5 65.667 -22.5 81s-36.5 23 -64.5 23c-15.333 0 -29.833 -1.5 -43.5 -4.5s-28.167 -7.83301 -43.5 -14.5z
M127.001 153.004c0 -30.667 7.99902 -53.333 23.999 -68s38.667 -22 68 -22c18 0 37.667 2.33301 59 7v167c-20 5.33301 -39.667 8 -59 8c-12.667 0 -24.667 -1.5 -36 -4.5s-21.166 -8 -29.499 -15s-14.833 -16.333 -19.5 -28s-7 -26.5 -7 -44.5zM110 711.005h213v-68h-213
v68z" />
    <glyph glyph-name="Abreve" unicode="&#x102;" horiz-adv-x="503" 
d="M299 693l47.5 -151.501c15.667 -51 31 -104.5 46 -160.5s30 -115.333 45 -178s30.167 -130.334 45.5 -203.001h-90l-16.5 89l-17.5 88h-218c-6.66699 -29.333 -12.667 -58.666 -18 -87.999l-16 -89h-87c14.667 72.667 29.667 140.334 45 203.001l45.5 178
c15 56 30.333 109.5 46 160.5l47.5 151.5h95zM250 590.999l-48.001 -167c-15.333 -56 -30 -113.333 -44 -172h183c-13.333 58.667 -27.666 116 -42.999 172zM250.999 764.999c-37.333 0 -65.833 12.167 -85.5 36.5s-29.5 58.5 -29.5 102.5h58
c1.33301 -22 5.83301 -41 13.5 -57s22.167 -24 43.5 -24s35.833 8 43.5 24s12.167 35 13.5 57h58c0 -44 -10 -78.167 -30 -102.5s-48.333 -36.5 -85 -36.5z" />
    <glyph glyph-name="abreve" unicode="&#x103;" horiz-adv-x="434" 
d="M86 514c17.333 7.33301 35.667 13.1699 55 17.5029s40.333 6.5 63 6.5c46.667 0 84.667 -14.5 114 -43.5s44 -74.167 44 -135.5v-348c-24 -6.66699 -48.5 -12 -73.5 -16s-49.5 -6 -73.5 -6s-46.5 3 -67.5 9s-39.333 15.667 -55 29s-28.167 30.166 -37.5 50.499
s-14 45.166 -14 74.499c0 27.333 4.16699 51.166 12.5 71.499s19.833 37.333 34.5 51s32 24 52 31s41.667 10.5 65 10.5c22 0 46.333 -2.66699 73 -8v48c0 38.667 -7.5 65.667 -22.5 81s-36.5 23 -64.5 23c-15.333 0 -29.833 -1.5 -43.5 -4.5s-28.167 -7.83301 -43.5 -14.5z
M127.001 153.004c0 -30.667 7.99902 -53.333 23.999 -68s38.667 -22 68 -22c18 0 37.667 2.33301 59 7v167c-20 5.33301 -39.667 8 -59 8c-12.667 0 -24.667 -1.5 -36 -4.5s-21.166 -8 -29.499 -15s-14.833 -16.333 -19.5 -28s-7 -26.5 -7 -44.5zM217 615.005
c-37.333 0 -65.833 12.167 -85.5 36.5s-29.5 58.5 -29.5 102.5h58c1.33301 -22 5.83301 -41 13.5 -57s22.167 -24 43.5 -24s35.833 8 43.5 24s12.167 35 13.5 57h58c0 -44 -10 -78.167 -30 -102.5s-48.333 -36.5 -85 -36.5z" />
    <glyph glyph-name="Aogonek" unicode="&#x104;" horiz-adv-x="503" 
d="M485 -176c-18.667 -7.33301 -39.333 -11 -62 -11c-29.333 0 -53.333 7.16699 -72 21.5s-28 34.166 -28 59.499c0 21.333 6 40.333 18 57s29.333 33 52 49l-16.5 89l-17.5 88h-218c-6.66699 -29.333 -12.667 -58.666 -18 -87.999l-16 -89h-87
c14.667 72.667 29.667 140.334 45 203.001l45.5 178c15 56 30.333 109.5 46 160.5l47.5 151.5h95l47.5 -151.5c15.667 -51 31 -104.5 46 -160.5s30 -115.333 45 -178s30.167 -130.334 45.5 -203.001c-26 -14 -46.167 -27.833 -60.5 -41.5s-21.5 -27.5 -21.5 -41.5
c0 -13.333 4.16699 -22.833 12.5 -28.5s18.5 -8.5 30.5 -8.5c12.667 0 24.667 2.33301 36 7zM250.001 591l-48.001 -167c-15.333 -56 -30 -113.333 -44 -172h183c-13.333 58.667 -27.666 116 -42.999 172z" />
    <glyph glyph-name="aogonek" unicode="&#x105;" horiz-adv-x="434" 
d="M364 -176c-18.667 -7.33301 -39.332 -10.9961 -61.999 -10.9961c-29.333 0 -53.333 7.5 -72 22.5s-28 35.833 -28 62.5c0 18 4 34.5 12 49.5s19.667 29.5 35 43.5c-6 -1.33301 -11.833 -2 -17.5 -2h-16.5c-24 0 -46.5 3 -67.5 9s-39.333 15.667 -55 29
s-28.167 30.166 -37.5 50.499s-14 45.166 -14 74.499c0 27.333 4.16699 51.166 12.5 71.499s19.833 37.333 34.5 51s32 24 52 31s41.667 10.5 65 10.5c22 0 46.333 -2.66699 73 -8v48c0 38.667 -7.5 65.667 -22.5 81s-36.5 23 -64.5 23c-15.333 0 -29.833 -1.5 -43.5 -4.5
s-28.167 -7.83301 -43.5 -14.5l-18 73c17.333 7.33301 35.666 13.166 54.999 17.499s40.333 6.5 63 6.5c46.667 0 84.667 -14.5 114 -43.5s44 -74.167 44 -135.5v-348c-26 -15.333 -46.167 -30.5 -60.5 -45.5s-21.5 -30.167 -21.5 -45.5c0 -14.667 4.16699 -25 12.5 -31
s18.5 -9 30.5 -9c12.667 0 24.667 2.33301 36 7zM127.002 153.004c0 -30.667 7.99902 -53.333 23.999 -68s38.667 -22 68 -22c18 0 37.667 2.33301 59 7v167c-20 5.33301 -39.667 8 -59 8c-12.667 0 -24.667 -1.5 -36 -4.5s-21.166 -8 -29.499 -15
s-14.833 -16.333 -19.5 -28s-7 -26.5 -7 -44.5z" />
    <glyph glyph-name="Cacute" unicode="&#x106;" horiz-adv-x="469" 
d="M307 -15c-81.333 0 -143.665 30.3281 -186.998 90.9951s-65 154.334 -65 281.001c0 64.667 6.16699 119.334 18.5 164.001s29.5 81 51.5 109s48 48.167 78 60.5s62.667 18.5 98 18.5c29.333 0 56.666 -3.83301 81.999 -11.5s46 -17.167 62 -28.5l-27 -75
c-16 10.667 -33.167 19.334 -51.5 26.001s-39.5 10 -63.5 10c-53.333 0 -92 -22.167 -116 -66.5s-36 -113.166 -36 -206.499c0 -94 12.667 -166.333 38 -217s66.666 -76 123.999 -76c27.333 0 49.5 3.33301 66.5 10s33.5 15.334 49.5 26.001l25 -71
c-15.333 -12 -35.5 -22.333 -60.5 -31s-53.833 -13 -86.5 -13zM412.001 875.995l-136 -144l-43 37l118 159z" />
    <glyph glyph-name="cacute" unicode="&#x107;" horiz-adv-x="353" 
d="M238 -13c-36 0 -65.9971 7.00195 -89.9971 21.002s-43.5 33.167 -58.5 57.5s-25.667 53.166 -32 86.499s-9.5 69.666 -9.5 108.999c0 86.667 15.833 154.5 47.5 203.5s79.5 73.5 143.5 73.5c19.333 0 36.666 -2.33301 51.999 -7s29.666 -10.667 42.999 -18l-22 -71
c-20.667 13.333 -43.667 20 -69 20c-36 0 -62.5 -16.333 -79.5 -49s-25.5 -83.334 -25.5 -152.001c0 -28.667 1.66699 -55.167 5 -79.5s9.16602 -45.166 17.499 -62.499s19.333 -31 33 -41s31.167 -15 52.5 -15c14.667 0 27.834 1.83301 39.501 5.5s22.834 8.5 33.501 14.5
l19 -67c-10.667 -7.33301 -24.834 -14 -42.501 -20s-36.834 -9 -57.501 -9zM333.003 726.002l-136 -144l-43 37l118 159z" />
    <glyph glyph-name="Ccircumflex" unicode="&#x108;" horiz-adv-x="469" 
d="M307 -15c-81.333 0 -143.665 30.3281 -186.998 90.9951s-65 154.334 -65 281.001c0 64.667 6.16699 119.334 18.5 164.001s29.5 81 51.5 109s48 48.167 78 60.5s62.667 18.5 98 18.5c29.333 0 56.666 -3.83301 81.999 -11.5s46 -17.167 62 -28.5l-27 -75
c-16 10.667 -33.167 19.334 -51.5 26.001s-39.5 10 -63.5 10c-53.333 0 -92 -22.167 -116 -66.5s-36 -113.166 -36 -206.499c0 -94 12.667 -166.333 38 -217s66.666 -76 123.999 -76c27.333 0 49.5 3.33301 66.5 10s33.5 15.334 49.5 26.001l25 -71
c-15.333 -12 -35.5 -22.333 -60.5 -31s-53.833 -13 -86.5 -13zM211.001 730.995l-42 35l115 152l115 -152l-42 -35l-73 85z" />
    <glyph glyph-name="ccircumflex" unicode="&#x109;" horiz-adv-x="353" 
d="M238 -13c-36 0 -65.9971 7.00195 -89.9971 21.002s-43.5 33.167 -58.5 57.5s-25.667 53.166 -32 86.499s-9.5 69.666 -9.5 108.999c0 86.667 15.833 154.5 47.5 203.5s79.5 73.5 143.5 73.5c19.333 0 36.666 -2.33301 51.999 -7s29.666 -10.667 42.999 -18l-22 -71
c-20.667 13.333 -43.667 20 -69 20c-36 0 -62.5 -16.333 -79.5 -49s-25.5 -83.334 -25.5 -152.001c0 -28.667 1.66699 -55.167 5 -79.5s9.16602 -45.166 17.499 -62.499s19.333 -31 33 -41s31.167 -15 52.5 -15c14.667 0 27.834 1.83301 39.501 5.5s22.834 8.5 33.501 14.5
l19 -67c-10.667 -7.33301 -24.834 -14 -42.501 -20s-36.834 -9 -57.501 -9zM142.003 581.002l-42 35l115 152l115 -152l-42 -35l-73 85z" />
    <glyph glyph-name="Cdotaccent" unicode="&#x10a;" horiz-adv-x="469" 
d="M307 -15c-81.333 0 -143.665 30.3281 -186.998 90.9951s-65 154.334 -65 281.001c0 64.667 6.16699 119.334 18.5 164.001s29.5 81 51.5 109s48 48.167 78 60.5s62.667 18.5 98 18.5c29.333 0 56.666 -3.83301 81.999 -11.5s46 -17.167 62 -28.5l-27 -75
c-16 10.667 -33.167 19.334 -51.5 26.001s-39.5 10 -63.5 10c-53.333 0 -92 -22.167 -116 -66.5s-36 -113.166 -36 -206.499c0 -94 12.667 -166.333 38 -217s66.666 -76 123.999 -76c27.333 0 49.5 3.33301 66.5 10s33.5 15.334 49.5 26.001l25 -71
c-15.333 -12 -35.5 -22.333 -60.5 -31s-53.833 -13 -86.5 -13zM285.001 767.995c-15.333 0 -28.5 5.16699 -39.5 15.5s-16.5 24.166 -16.5 41.499s5.5 31.166 16.5 41.499s24.167 15.5 39.5 15.5s28.5 -5.16699 39.5 -15.5s16.5 -24.166 16.5 -41.499
s-5.5 -31.166 -16.5 -41.499s-24.167 -15.5 -39.5 -15.5z" />
    <glyph glyph-name="cdotaccent" unicode="&#x10b;" horiz-adv-x="353" 
d="M238 -13c-36 0 -65.9971 7.00195 -89.9971 21.002s-43.5 33.167 -58.5 57.5s-25.667 53.166 -32 86.499s-9.5 69.666 -9.5 108.999c0 86.667 15.833 154.5 47.5 203.5s79.5 73.5 143.5 73.5c19.333 0 36.666 -2.33301 51.999 -7s29.666 -10.667 42.999 -18l-22 -71
c-20.667 13.333 -43.667 20 -69 20c-36 0 -62.5 -16.333 -79.5 -49s-25.5 -83.334 -25.5 -152.001c0 -28.667 1.66699 -55.167 5 -79.5s9.16602 -45.166 17.499 -62.499s19.333 -31 33 -41s31.167 -15 52.5 -15c14.667 0 27.834 1.83301 39.501 5.5s22.834 8.5 33.501 14.5
l19 -67c-10.667 -7.33301 -24.834 -14 -42.501 -20s-36.834 -9 -57.501 -9zM216.003 618.002c-15.333 0 -28.5 5.16699 -39.5 15.5s-16.5 24.166 -16.5 41.499s5.5 31.166 16.5 41.499s24.167 15.5 39.5 15.5s28.5 -5.16699 39.5 -15.5s16.5 -24.166 16.5 -41.499
s-5.5 -31.166 -16.5 -41.499s-24.167 -15.5 -39.5 -15.5z" />
    <glyph glyph-name="Ccaron" unicode="&#x10c;" horiz-adv-x="469" 
d="M307 -15c-81.333 0 -143.665 30.3281 -186.998 90.9951s-65 154.334 -65 281.001c0 64.667 6.16699 119.334 18.5 164.001s29.5 81 51.5 109s48 48.167 78 60.5s62.667 18.5 98 18.5c29.333 0 56.666 -3.83301 81.999 -11.5s46 -17.167 62 -28.5l-27 -75
c-16 10.667 -33.167 19.334 -51.5 26.001s-39.5 10 -63.5 10c-53.333 0 -92 -22.167 -116 -66.5s-36 -113.166 -36 -206.499c0 -94 12.667 -166.333 38 -217s66.666 -76 123.999 -76c27.333 0 49.5 3.33301 66.5 10s33.5 15.334 49.5 26.001l25 -71
c-15.333 -12 -35.5 -22.333 -60.5 -31s-53.833 -13 -86.5 -13zM358.001 917.995l42 -35l-115 -152l-115 152l42 35l73 -85z" />
    <glyph glyph-name="ccaron" unicode="&#x10d;" horiz-adv-x="353" 
d="M238 -13c-36 0 -65.9971 7.00195 -89.9971 21.002s-43.5 33.167 -58.5 57.5s-25.667 53.166 -32 86.499s-9.5 69.666 -9.5 108.999c0 86.667 15.833 154.5 47.5 203.5s79.5 73.5 143.5 73.5c19.333 0 36.666 -2.33301 51.999 -7s29.666 -10.667 42.999 -18l-22 -71
c-20.667 13.333 -43.667 20 -69 20c-36 0 -62.5 -16.333 -79.5 -49s-25.5 -83.334 -25.5 -152.001c0 -28.667 1.66699 -55.167 5 -79.5s9.16602 -45.166 17.499 -62.499s19.333 -31 33 -41s31.167 -15 52.5 -15c14.667 0 27.834 1.83301 39.501 5.5s22.834 8.5 33.501 14.5
l19 -67c-10.667 -7.33301 -24.834 -14 -42.501 -20s-36.834 -9 -57.501 -9zM289.003 768.002l42 -35l-115 -152l-115 152l42 35l73 -85z" />
    <glyph glyph-name="Dcaron" unicode="&#x10e;" horiz-adv-x="576" 
d="M521 347c0 -64.667 -6.83203 -119.499 -20.499 -164.499s-33.334 -81.5 -59.001 -109.5s-56.667 -48.333 -93 -61s-76.833 -19 -121.5 -19c-45.333 0 -93.333 6 -144 18v672c25.333 5.33301 50 9.66602 74 12.999s47 5 69 5c45.333 0 86.166 -6.33301 122.499 -19
s67.333 -33 93 -61s45.334 -64.5 59.001 -109.5s20.5 -99.833 20.5 -164.5zM425.001 347.001c0 49.333 -3.66992 91.332 -11.0029 125.999s-18.666 63 -33.999 85s-35.5 38 -60.5 48s-54.833 15 -89.5 15c-9.33301 0 -18.666 -0.333008 -27.999 -1s-19 -1.66699 -29 -3v-540
c10 -1.33301 19.667 -2.33301 29 -3s18.333 -1 27 -1c35.333 0 65.333 5 90 15s44.834 25.833 60.501 47.5s27.167 49.834 34.5 84.501s11 77 11 127zM341.998 918l42 -35l-115 -152l-115 152l42 35l73 -85z" />
    <glyph glyph-name="dcaron" unicode="&#x10f;" horiz-adv-x="513" 
d="M304 446c-19.333 10.667 -39.999 15.998 -61.999 15.998c-16.667 0 -31.334 -3.33301 -44.001 -10s-23.5 -17.667 -32.5 -33s-15.833 -35.666 -20.5 -60.999s-7 -56.666 -7 -93.999c0 -72 9.5 -123.5 28.5 -154.5s47.833 -46.5 86.5 -46.5c7.33301 0 15.333 0.5 24 1.5
s17.667 2.83301 27 5.5v376zM304.001 760.998l86 14.999v-762c-18.667 -8 -40 -14.5 -64 -19.5s-48.333 -7.5 -73 -7.5c-72 0 -124.167 23 -156.5 69s-48.5 115.333 -48.5 208c0 42 3.5 79.833 10.5 113.5s18 62.334 33 86.001s34.167 42 57.5 55s51 19.5 83 19.5
c15.333 0 28.5 -1.5 39.5 -4.5s21.833 -7.16699 32.5 -12.5v240zM539.001 775.997l-27 -223h-57v223h84z" />
    <glyph glyph-name="Dcroat" unicode="&#x110;" horiz-adv-x="576" 
d="M15 380l68 0.000976562v303c25.333 5.33301 50 9.66602 74 12.999s47 5 69 5c44.667 0 85.167 -6.5 121.5 -19.5s67.333 -33.667 93 -62s45.5 -65 59.5 -110s21 -99.167 21 -162.5s-7 -117.5 -21 -162.5s-33.833 -81.667 -59.5 -110s-56.667 -49 -93 -62
s-76.5 -19.5 -120.5 -19.5c-45.333 0 -93.333 6 -144 18v303h-68v66zM425 347.001c0 96 -15.333 165.667 -46 209s-80.334 65 -149.001 65c-9.33301 0 -18.666 -0.333008 -27.999 -1s-19 -1.66699 -29 -3v-237h108v-66h-108v-237c10 -1.33301 19.667 -2.33301 29 -3
s18.333 -1 27 -1c68.667 0 118.5 21.5 149.5 64.5s46.5 112.833 46.5 209.5z" />
    <glyph glyph-name="dcroat" unicode="&#x111;" horiz-adv-x="467" 
d="M190 683l114 -0.000976562v78l86 15v-93h77v-66h-77v-603c-18.667 -8 -40 -14.5 -64 -19.5s-48.333 -7.5 -73 -7.5c-72 0 -124.167 23 -156.5 69s-48.5 115.333 -48.5 208c0 42 3.5 79.833 10.5 113.5s18 62.334 33 86.001s34.167 42 57.5 55s51 19.5 83 19.5
c15.333 0 28.5 -1.5 39.5 -4.5s21.833 -7.16699 32.5 -12.5v96h-114v66zM304 445.999c-19.333 10.667 -39.999 15.998 -61.999 15.998c-16.667 0 -31.334 -3.33301 -44.001 -10s-23.5 -17.667 -32.5 -33s-15.833 -35.666 -20.5 -60.999s-7 -56.666 -7 -93.999
c0 -72 9.5 -123.5 28.5 -154.5s47.833 -46.5 86.5 -46.5c7.33301 0 15.333 0.5 24 1.5s17.667 2.83301 27 5.5v376z" />
    <glyph glyph-name="Emacron" unicode="&#x112;" horiz-adv-x="456" 
d="M84 0v693h311v-77h-221v-215h200v-75h-200v-249h237v-77h-327zM136 861h213v-68h-213v68z" />
    <glyph glyph-name="emacron" unicode="&#x113;" horiz-adv-x="436" 
d="M137 237c0.666992 -25.333 3.00293 -48.499 7.00293 -69.499s10.5 -39.333 19.5 -55s21 -27.834 36 -36.501s34.167 -13 57.5 -13c19.333 0 37.166 2.83301 53.499 8.5s28.166 10.5 35.499 14.5l16 -69c-8.66699 -6 -23.167 -12.5 -43.5 -19.5s-44.5 -10.5 -72.5 -10.5
c-36.667 0 -67.5 6.66699 -92.5 20s-45.333 32 -61 56s-26.834 52.667 -33.501 86s-10 70 -10 110c0 96.667 16 167.334 48 212.001s74.333 67 127 67c59.333 0 101.333 -22.333 126 -67s37 -107.334 37 -188.001v-22.5c0 -7.66699 -0.333008 -15.5 -1 -23.5h-249z
M224.003 465.001c-28.667 0 -49.5 -14.333 -62.5 -43s-20.833 -67 -23.5 -115h159c0 48.667 -5 87.167 -15 115.5s-29.333 42.5 -58 42.5zM116.003 711.001h213v-68h-213v68z" />
    <glyph glyph-name="Ebreve" unicode="&#x114;" horiz-adv-x="456" 
d="M84 0v693h311v-77h-221v-215h200v-75h-200v-249h237v-77h-327zM243 765c-37.333 0 -65.833 12.167 -85.5 36.5s-29.5 58.5 -29.5 102.5h58c1.33301 -22 5.83301 -41 13.5 -57s22.167 -24 43.5 -24s35.833 8 43.5 24s12.167 35 13.5 57h58c0 -44 -10 -78.167 -30 -102.5
s-48.333 -36.5 -85 -36.5z" />
    <glyph glyph-name="ebreve" unicode="&#x115;" horiz-adv-x="436" 
d="M137 237c0.666992 -25.333 3.00293 -48.499 7.00293 -69.499s10.5 -39.333 19.5 -55s21 -27.834 36 -36.501s34.167 -13 57.5 -13c19.333 0 37.166 2.83301 53.499 8.5s28.166 10.5 35.499 14.5l16 -69c-8.66699 -6 -23.167 -12.5 -43.5 -19.5s-44.5 -10.5 -72.5 -10.5
c-36.667 0 -67.5 6.66699 -92.5 20s-45.333 32 -61 56s-26.834 52.667 -33.501 86s-10 70 -10 110c0 96.667 16 167.334 48 212.001s74.333 67 127 67c59.333 0 101.333 -22.333 126 -67s37 -107.334 37 -188.001v-22.5c0 -7.66699 -0.333008 -15.5 -1 -23.5h-249z
M224.003 465.001c-28.667 0 -49.5 -14.333 -62.5 -43s-20.833 -67 -23.5 -115h159c0 48.667 -5 87.167 -15 115.5s-29.333 42.5 -58 42.5zM223.003 615.001c-37.333 0 -65.833 12.167 -85.5 36.5s-29.5 58.5 -29.5 102.5h58c1.33301 -22 5.83301 -41 13.5 -57
s22.167 -24 43.5 -24s35.833 8 43.5 24s12.167 35 13.5 57h58c0 -44 -10 -78.167 -30 -102.5s-48.333 -36.5 -85 -36.5z" />
    <glyph glyph-name="Edotaccent" unicode="&#x116;" horiz-adv-x="456" 
d="M84 0v693h311v-77h-221v-215h200v-75h-200v-249h237v-77h-327zM243 768c-15.333 0 -28.5 5.16699 -39.5 15.5s-16.5 24.166 -16.5 41.499s5.5 31.166 16.5 41.499s24.167 15.5 39.5 15.5s28.5 -5.16699 39.5 -15.5s16.5 -24.166 16.5 -41.499s-5.5 -31.166 -16.5 -41.499
s-24.167 -15.5 -39.5 -15.5z" />
    <glyph glyph-name="edotaccent" unicode="&#x117;" horiz-adv-x="436" 
d="M137 237c0.666992 -25.333 3.00293 -48.499 7.00293 -69.499s10.5 -39.333 19.5 -55s21 -27.834 36 -36.501s34.167 -13 57.5 -13c19.333 0 37.166 2.83301 53.499 8.5s28.166 10.5 35.499 14.5l16 -69c-8.66699 -6 -23.167 -12.5 -43.5 -19.5s-44.5 -10.5 -72.5 -10.5
c-36.667 0 -67.5 6.66699 -92.5 20s-45.333 32 -61 56s-26.834 52.667 -33.501 86s-10 70 -10 110c0 96.667 16 167.334 48 212.001s74.333 67 127 67c59.333 0 101.333 -22.333 126 -67s37 -107.334 37 -188.001v-22.5c0 -7.66699 -0.333008 -15.5 -1 -23.5h-249z
M224.003 465.001c-28.667 0 -49.5 -14.333 -62.5 -43s-20.833 -67 -23.5 -115h159c0 48.667 -5 87.167 -15 115.5s-29.333 42.5 -58 42.5zM223.003 618.001c-15.333 0 -28.5 5.16699 -39.5 15.5s-16.5 24.166 -16.5 41.499s5.5 31.166 16.5 41.499s24.167 15.5 39.5 15.5
s28.5 -5.16699 39.5 -15.5s16.5 -24.166 16.5 -41.499s-5.5 -31.166 -16.5 -41.499s-24.167 -15.5 -39.5 -15.5z" />
    <glyph glyph-name="Eogonek" unicode="&#x118;" horiz-adv-x="456" 
d="M413 -176c-18.667 -7.33301 -39.333 -10.999 -62 -10.999c-29.333 0 -53.333 7.16699 -72 21.5s-28 34.166 -28 59.499c0 21.333 5.5 40.333 16.5 57s26.167 33 45.5 49h-229v693h311v-77h-221v-215h200v-75h-200v-249h237v-77c-26 -14 -46.167 -27.833 -60.5 -41.5
s-21.5 -27.5 -21.5 -41.5c0 -13.333 4.16699 -22.833 12.5 -28.5s18.5 -8.5 30.5 -8.5c12.667 0 24.667 2.33301 36 7z" />
    <glyph glyph-name="eogonek" unicode="&#x119;" horiz-adv-x="436" 
d="M364 -176c-18.667 -7.33301 -39.332 -11 -61.999 -11c-29.333 0 -53.333 7.66699 -72 23s-28 36.666 -28 63.999c0 16.667 3.33301 32 10 46s16 27.667 28 41c-35.333 0.666992 -65.166 7.83398 -89.499 21.501s-44 32.334 -59 56.001s-25.833 52 -32.5 85
s-10 69.5 -10 109.5c0 96.667 16 167.334 48 212.001s74.333 67 127 67c59.333 0 101.333 -22.333 126 -67s37 -107.334 37 -188.001v-22.5c0 -7.66699 -0.333008 -15.5 -1 -23.5h-249c0.666992 -25.333 3 -48.5 7 -69.5s10.5 -39.333 19.5 -55s21 -27.834 36 -36.501
s34.167 -13 57.5 -13c19.333 0 37.166 2.83301 53.499 8.5s28.166 10.5 35.499 14.5l16 -69l-9 -6c-23.333 -14.667 -41.333 -29.5 -54 -44.5s-19 -30.167 -19 -45.5c0 -14.667 4.16699 -25.167 12.5 -31.5s18.5 -9.5 30.5 -9.5c12.667 0 24.667 2.33301 36 7zM224.002 465
c-28.667 0 -49.5 -14.333 -62.5 -43s-20.833 -67 -23.5 -115h159c0 48.667 -5 87.167 -15 115.5s-29.333 42.5 -58 42.5z" />
    <glyph glyph-name="Ecaron" unicode="&#x11a;" horiz-adv-x="456" 
d="M84 0v693h311v-77h-221v-215h200v-75h-200v-249h237v-77h-327zM312 918l42 -35l-115 -152l-115 152l42 35l73 -85z" />
    <glyph glyph-name="ecaron" unicode="&#x11b;" horiz-adv-x="436" 
d="M137 237c0.666992 -25.333 3.00293 -48.499 7.00293 -69.499s10.5 -39.333 19.5 -55s21 -27.834 36 -36.501s34.167 -13 57.5 -13c19.333 0 37.166 2.83301 53.499 8.5s28.166 10.5 35.499 14.5l16 -69c-8.66699 -6 -23.167 -12.5 -43.5 -19.5s-44.5 -10.5 -72.5 -10.5
c-36.667 0 -67.5 6.66699 -92.5 20s-45.333 32 -61 56s-26.834 52.667 -33.501 86s-10 70 -10 110c0 96.667 16 167.334 48 212.001s74.333 67 127 67c59.333 0 101.333 -22.333 126 -67s37 -107.334 37 -188.001v-22.5c0 -7.66699 -0.333008 -15.5 -1 -23.5h-249z
M224.003 465.001c-28.667 0 -49.5 -14.333 -62.5 -43s-20.833 -67 -23.5 -115h159c0 48.667 -5 87.167 -15 115.5s-29.333 42.5 -58 42.5zM296.003 768.001l42 -35l-115 -152l-115 152l42 35l73 -85z" />
    <glyph glyph-name="Gcircumflex" unicode="&#x11c;" horiz-adv-x="525" 
d="M55 347c0 65.333 5.99805 120.999 17.998 166.999s29.167 83.5 51.5 112.5s49.333 50 81 63s67.167 19.5 106.5 19.5c30 0 57.333 -4.16699 82 -12.5s44.667 -17.833 60 -28.5l-28 -75c-15.333 10.667 -32 19.5 -50 26.5s-38.667 10.5 -62 10.5
c-58 0 -99.667 -23.5 -125 -70.5s-38 -117.833 -38 -212.5c0 -50.667 3.83301 -94 11.5 -130s18.5 -65.333 32.5 -88s31 -39.334 51 -50.001s42.333 -16 67 -16c20.667 0 38.334 2.33301 53.001 7v271h90v-326c-18 -8.66699 -40.333 -16 -67 -22s-54.667 -9 -84 -9
c-36 0 -69.333 7.16699 -100 21.5s-57.167 36.333 -79.5 66s-39.666 67.334 -51.999 113.001s-18.5 99.834 -18.5 162.501zM218.998 730.999l-42 35l115 152l115 -152l-42 -35l-73 85z" />
    <glyph glyph-name="gcircumflex" unicode="&#x11d;" horiz-adv-x="467" 
d="M390 15c0 -37.333 -4.83691 -68.834 -14.5039 -94.501s-22.834 -46.5 -39.501 -62.5s-36.167 -27.667 -58.5 -35s-46.166 -11 -71.499 -11c-21.333 0 -42.666 2.33301 -63.999 7s-41 11.667 -59 21l18 72c12 -6.66699 26.667 -12.667 44 -18s35.333 -8 54 -8
c32.667 0 58.334 9.33301 77.001 28s28 50.667 28 96v25c-10.667 -4.66699 -22 -8.5 -34 -11.5s-25.667 -4.5 -41 -4.5c-62.667 0 -108.5 21.5 -137.5 64.5s-43.5 103.833 -43.5 182.5c0 42 3.83301 79.833 11.5 113.5s19.667 62.334 36 86.001s37.5 41.667 63.5 54
s57.667 18.5 95 18.5c24.667 0 48.834 -2.5 72.501 -7.5s44.834 -11.5 63.501 -19.5v-496zM303.996 454.999c-9.33301 2.66699 -18.3311 4.5 -26.998 5.5s-16.667 1.5 -24 1.5c-40 0 -69.167 -15.333 -87.5 -46s-27.5 -80.667 -27.5 -150c0 -62.667 9 -106.834 27 -132.501
s43.667 -38.5 77 -38.5c11.333 0 22.166 1.33301 32.499 4s20.166 6.33398 29.499 11.001v345zM166.998 580.999l-42 35l115 152l115 -152l-42 -35l-73 85z" />
    <glyph glyph-name="Gbreve" unicode="&#x11e;" horiz-adv-x="525" 
d="M55 347c0 65.333 5.99805 120.999 17.998 166.999s29.167 83.5 51.5 112.5s49.333 50 81 63s67.167 19.5 106.5 19.5c30 0 57.333 -4.16699 82 -12.5s44.667 -17.833 60 -28.5l-28 -75c-15.333 10.667 -32 19.5 -50 26.5s-38.667 10.5 -62 10.5
c-58 0 -99.667 -23.5 -125 -70.5s-38 -117.833 -38 -212.5c0 -50.667 3.83301 -94 11.5 -130s18.5 -65.333 32.5 -88s31 -39.334 51 -50.001s42.333 -16 67 -16c20.667 0 38.334 2.33301 53.001 7v271h90v-326c-18 -8.66699 -40.333 -16 -67 -22s-54.667 -9 -84 -9
c-36 0 -69.333 7.16699 -100 21.5s-57.167 36.333 -79.5 66s-39.666 67.334 -51.999 113.001s-18.5 99.834 -18.5 162.501zM292.998 764.999c-37.333 0 -65.833 12.167 -85.5 36.5s-29.5 58.5 -29.5 102.5h58c1.33301 -22 5.83301 -41 13.5 -57s22.167 -24 43.5 -24
s35.833 8 43.5 24s12.167 35 13.5 57h58c0 -44 -10 -78.167 -30 -102.5s-48.333 -36.5 -85 -36.5z" />
    <glyph glyph-name="gbreve" unicode="&#x11f;" horiz-adv-x="467" 
d="M390 15c0 -37.333 -4.83691 -68.834 -14.5039 -94.501s-22.834 -46.5 -39.501 -62.5s-36.167 -27.667 -58.5 -35s-46.166 -11 -71.499 -11c-21.333 0 -42.666 2.33301 -63.999 7s-41 11.667 -59 21l18 72c12 -6.66699 26.667 -12.667 44 -18s35.333 -8 54 -8
c32.667 0 58.334 9.33301 77.001 28s28 50.667 28 96v25c-10.667 -4.66699 -22 -8.5 -34 -11.5s-25.667 -4.5 -41 -4.5c-62.667 0 -108.5 21.5 -137.5 64.5s-43.5 103.833 -43.5 182.5c0 42 3.83301 79.833 11.5 113.5s19.667 62.334 36 86.001s37.5 41.667 63.5 54
s57.667 18.5 95 18.5c24.667 0 48.834 -2.5 72.501 -7.5s44.834 -11.5 63.501 -19.5v-496zM303.996 454.999c-9.33301 2.66699 -18.3311 4.5 -26.998 5.5s-16.667 1.5 -24 1.5c-40 0 -69.167 -15.333 -87.5 -46s-27.5 -80.667 -27.5 -150c0 -62.667 9 -106.834 27 -132.501
s43.667 -38.5 77 -38.5c11.333 0 22.166 1.33301 32.499 4s20.166 6.33398 29.499 11.001v345zM240.998 614.999c-37.333 0 -65.833 12.167 -85.5 36.5s-29.5 58.5 -29.5 102.5h58c1.33301 -22 5.83301 -41 13.5 -57s22.167 -24 43.5 -24s35.833 8 43.5 24
s12.167 35 13.5 57h58c0 -44 -10 -78.167 -30 -102.5s-48.333 -36.5 -85 -36.5z" />
    <glyph glyph-name="Gdotaccent" unicode="&#x120;" horiz-adv-x="525" 
d="M55 347c0 65.333 5.99805 120.999 17.998 166.999s29.167 83.5 51.5 112.5s49.333 50 81 63s67.167 19.5 106.5 19.5c30 0 57.333 -4.16699 82 -12.5s44.667 -17.833 60 -28.5l-28 -75c-15.333 10.667 -32 19.5 -50 26.5s-38.667 10.5 -62 10.5
c-58 0 -99.667 -23.5 -125 -70.5s-38 -117.833 -38 -212.5c0 -50.667 3.83301 -94 11.5 -130s18.5 -65.333 32.5 -88s31 -39.334 51 -50.001s42.333 -16 67 -16c20.667 0 38.334 2.33301 53.001 7v271h90v-326c-18 -8.66699 -40.333 -16 -67 -22s-54.667 -9 -84 -9
c-36 0 -69.333 7.16699 -100 21.5s-57.167 36.333 -79.5 66s-39.666 67.334 -51.999 113.001s-18.5 99.834 -18.5 162.501zM292.998 767.999c-15.333 0 -28.5 5.16699 -39.5 15.5s-16.5 24.166 -16.5 41.499s5.5 31.166 16.5 41.499s24.167 15.5 39.5 15.5
s28.5 -5.16699 39.5 -15.5s16.5 -24.166 16.5 -41.499s-5.5 -31.166 -16.5 -41.499s-24.167 -15.5 -39.5 -15.5z" />
    <glyph glyph-name="gdotaccent" unicode="&#x121;" horiz-adv-x="467" 
d="M390 15c0 -37.333 -4.83691 -68.834 -14.5039 -94.501s-22.834 -46.5 -39.501 -62.5s-36.167 -27.667 -58.5 -35s-46.166 -11 -71.499 -11c-21.333 0 -42.666 2.33301 -63.999 7s-41 11.667 -59 21l18 72c12 -6.66699 26.667 -12.667 44 -18s35.333 -8 54 -8
c32.667 0 58.334 9.33301 77.001 28s28 50.667 28 96v25c-10.667 -4.66699 -22 -8.5 -34 -11.5s-25.667 -4.5 -41 -4.5c-62.667 0 -108.5 21.5 -137.5 64.5s-43.5 103.833 -43.5 182.5c0 42 3.83301 79.833 11.5 113.5s19.667 62.334 36 86.001s37.5 41.667 63.5 54
s57.667 18.5 95 18.5c24.667 0 48.834 -2.5 72.501 -7.5s44.834 -11.5 63.501 -19.5v-496zM303.996 454.999c-9.33301 2.66699 -18.3311 4.5 -26.998 5.5s-16.667 1.5 -24 1.5c-40 0 -69.167 -15.333 -87.5 -46s-27.5 -80.667 -27.5 -150c0 -62.667 9 -106.834 27 -132.501
s43.667 -38.5 77 -38.5c11.333 0 22.166 1.33301 32.499 4s20.166 6.33398 29.499 11.001v345zM238.998 617.999c-15.333 0 -28.5 5.16699 -39.5 15.5s-16.5 24.166 -16.5 41.499s5.5 31.166 16.5 41.499s24.167 15.5 39.5 15.5s28.5 -5.16699 39.5 -15.5
s16.5 -24.166 16.5 -41.499s-5.5 -31.166 -16.5 -41.499s-24.167 -15.5 -39.5 -15.5z" />
    <glyph glyph-name="Gcommaaccent" unicode="&#x122;" horiz-adv-x="525" 
d="M55 347c0 65.333 5.99805 120.999 17.998 166.999s29.167 83.5 51.5 112.5s49.333 50 81 63s67.167 19.5 106.5 19.5c30 0 57.333 -4.16699 82 -12.5s44.667 -17.833 60 -28.5l-28 -75c-15.333 10.667 -32 19.5 -50 26.5s-38.667 10.5 -62 10.5
c-58 0 -99.667 -23.5 -125 -70.5s-38 -117.833 -38 -212.5c0 -50.667 3.83301 -94 11.5 -130s18.5 -65.333 32.5 -88s31 -39.334 51 -50.001s42.333 -16 67 -16c20.667 0 38.334 2.33301 53.001 7v271h90v-326c-18 -8.66699 -40.333 -16 -67 -22s-54.667 -9 -84 -9
c-36 0 -69.333 7.16699 -100 21.5s-57.167 36.333 -79.5 66s-39.666 67.334 -51.999 113.001s-18.5 99.834 -18.5 162.501zM269.998 -50.001l73.999 -0.000976562c0.666992 -3.33301 1 -7.16602 1 -11.499v-9.5c0 -42 -10 -72 -30 -90s-44.667 -27 -74 -27
c-7.33301 0 -14 0.333008 -20 1s-10.667 1.66699 -14 3v52c2.66699 -0.666992 6.66699 -1 12 -1c16.667 0 29.334 5 38.001 15s13 28.333 13 55v13z" />
    <glyph glyph-name="gcommaaccent" unicode="&#x123;" horiz-adv-x="467" 
d="M390 15c0 -37.333 -4.83691 -68.834 -14.5039 -94.501s-22.834 -46.5 -39.501 -62.5s-36.167 -27.667 -58.5 -35s-46.166 -11 -71.499 -11c-21.333 0 -42.666 2.33301 -63.999 7s-41 11.667 -59 21l18 72c12 -6.66699 26.667 -12.667 44 -18s35.333 -8 54 -8
c32.667 0 58.334 9.33301 77.001 28s28 50.667 28 96v25c-10.667 -4.66699 -22 -8.5 -34 -11.5s-25.667 -4.5 -41 -4.5c-62.667 0 -108.5 21.5 -137.5 64.5s-43.5 103.833 -43.5 182.5c0 42 3.83301 79.833 11.5 113.5s19.667 62.334 36 86.001s37.5 41.667 63.5 54
s57.667 18.5 95 18.5c24.667 0 48.834 -2.5 72.501 -7.5s44.834 -11.5 63.501 -19.5v-496zM303.996 454.999c-9.33301 2.66699 -18.3311 4.5 -26.998 5.5s-16.667 1.5 -24 1.5c-40 0 -69.167 -15.333 -87.5 -46s-27.5 -80.667 -27.5 -150c0 -62.667 9 -106.834 27 -132.501
s43.667 -38.5 77 -38.5c11.333 0 22.166 1.33301 32.499 4s20.166 6.33398 29.499 11.001v345zM276.998 608.999l-83.002 0.000976562c-0.666992 3.33301 -1 7.16602 -1 11.499v9.5c0 24 3.33301 44.833 10 62.5s15.334 32.5 26.001 44.5s22.334 21.5 35.001 28.5
s24.667 12.167 36 15.5l36 -45c-8.66699 -6 -16.5 -12 -23.5 -18s-13.167 -13.167 -18.5 -21.5s-9.5 -18.333 -12.5 -30s-4.5 -26.5 -4.5 -44.5v-13z" />
    <glyph glyph-name="Hcircumflex" unicode="&#x124;" horiz-adv-x="576" 
d="M402 693h90v-693h-90v322h-228v-322h-90v693h90v-293h228v293zM214 731l-42 35l115 152l115 -152l-42 -35l-73 85z" />
    <glyph glyph-name="hcircumflex" unicode="&#x125;" horiz-adv-x="482" 
d="M78 0l0.00195312 761l86 15v-254c12.667 4 26.5 7.33301 41.5 10s30.167 4 45.5 4c22 0 42.667 -3.5 62 -10.5s36.166 -18.833 50.499 -35.5s25.666 -39.167 33.999 -67.5s12.5 -63.5 12.5 -105.5v-317h-86v310c0 52 -6.66699 90 -20 114s-38.333 36 -75 36
c-19.333 0 -41 -3.33301 -65 -10v-450h-86zM78.002 827l-32 42l118 95l118 -95l-31 -42l-87 60z" />
    <glyph glyph-name="Hbar" unicode="&#x126;" horiz-adv-x="576" 
d="M16 582h68v111h90v-111h228v111h90v-111h68v-66h-68v-516h-90v322h-228v-322h-90v516h-68v66zM402 516h-228v-116h228v116z" />
    <glyph glyph-name="hbar" unicode="&#x127;" horiz-adv-x="482" 
d="M15 683h63.002v78l86 15v-93h128v-66h-128v-95c12.667 4 26.5 7.33301 41.5 10s30.167 4 45.5 4c22 0 42.667 -3.5 62 -10.5s36.166 -18.833 50.499 -35.5s25.666 -39.167 33.999 -67.5s12.5 -63.5 12.5 -105.5v-317h-86v310c0 52 -6.66699 90 -20 114s-38.333 36 -75 36
c-19.333 0 -41 -3.33301 -65 -10v-451h-86v618h-63v66z" />
    <glyph glyph-name="Itilde" unicode="&#x128;" horiz-adv-x="258" 
d="M84 693h90v-693h-90v693zM258 871c-6 -32 -15.498 -56.5 -28.498 -73.5s-29.167 -25.5 -48.5 -25.5c-11.333 0 -21.833 2.33301 -31.5 7s-18.5 10 -26.5 16s-15.5 11.333 -22.5 16s-13.833 7 -20.5 7c-6 0 -11.167 -3.33301 -15.5 -10s-8.5 -18.667 -12.5 -36l-50 17
c5.33301 32 14.666 56.5 27.999 73.5s29.666 25.5 48.999 25.5c12 0 22.667 -2.33301 32 -7s18 -10 26 -16l22 -16c6.66699 -4.66699 13.667 -7 21 -7c6 0 11.167 3.33301 15.5 10s8.5 18.667 12.5 36z" />
    <glyph glyph-name="itilde" unicode="&#x129;" horiz-adv-x="242" 
d="M164 0h-86v525h86v-525zM250 721c-6 -32 -15.498 -56.5 -28.498 -73.5s-29.167 -25.5 -48.5 -25.5c-11.333 0 -21.833 2.33301 -31.5 7s-18.5 10 -26.5 16s-15.5 11.333 -22.5 16s-13.833 7 -20.5 7c-6 0 -11.167 -3.33301 -15.5 -10s-8.5 -18.667 -12.5 -36l-50 17
c5.33301 32 14.666 56.5 27.999 73.5s29.666 25.5 48.999 25.5c12 0 22.667 -2.33301 32 -7s18 -10 26 -16l22 -16c6.66699 -4.66699 13.667 -7 21 -7c6 0 11.167 3.33301 15.5 10s8.5 18.667 12.5 36z" />
    <glyph glyph-name="Imacron" unicode="&#x12a;" horiz-adv-x="258" 
d="M84 693h90v-693h-90v693zM23 861h213v-68h-213v68z" />
    <glyph glyph-name="imacron" unicode="&#x12b;" horiz-adv-x="242" 
d="M164 0h-86v525h86v-525zM15 711h213v-68h-213v68z" />
    <glyph glyph-name="Ibreve" unicode="&#x12c;" horiz-adv-x="258" 
d="M84 693h90v-693h-90v693zM130 765c-37.333 0 -65.833 12.167 -85.5 36.5s-29.5 58.5 -29.5 102.5h58c1.33301 -22 5.83301 -41 13.5 -57s22.167 -24 43.5 -24s35.833 8 43.5 24s12.167 35 13.5 57h58c0 -44 -10 -78.167 -30 -102.5s-48.333 -36.5 -85 -36.5z" />
    <glyph glyph-name="ibreve" unicode="&#x12d;" horiz-adv-x="242" 
d="M164 0h-86v525h86v-525zM122 615c-37.333 0 -65.833 12.167 -85.5 36.5s-29.5 58.5 -29.5 102.5h58c1.33301 -22 5.83301 -41 13.5 -57s22.167 -24 43.5 -24s35.833 8 43.5 24s12.167 35 13.5 57h58c0 -44 -10 -78.167 -30 -102.5s-48.333 -36.5 -85 -36.5z" />
    <glyph glyph-name="Iogonek" unicode="&#x12e;" horiz-adv-x="258" 
d="M176 -176c-18.667 -7.33301 -39.333 -11 -62 -11c-29.333 0 -53.333 7.16699 -72 21.5s-28 34.166 -28 59.499c0 22 6 42.833 18 62.5s29.333 37.834 52 54.501v682h90v-693c-26 -14 -46.167 -27.833 -60.5 -41.5s-21.5 -27.5 -21.5 -41.5
c0 -13.333 4.16699 -22.833 12.5 -28.5s18.5 -8.5 30.5 -8.5c12.667 0 24.667 2.33301 36 7z" />
    <glyph glyph-name="iogonek" unicode="&#x12f;" horiz-adv-x="242" 
d="M166 -176c-18.667 -7.33301 -39.333 -11 -62 -11c-29.333 0 -53.333 7.16699 -72 21.5s-28 34.166 -28 59.499c0 24 6.66699 45.333 20 64s31.333 36.334 54 53.001v514h86v-525c-26 -14 -46.167 -27.833 -60.5 -41.5s-21.5 -27.5 -21.5 -41.5
c0 -13.333 4.16699 -22.833 12.5 -28.5s18.5 -8.5 30.5 -8.5c12.667 0 24.667 2.33301 36 7zM121.001 618c-15.333 0 -28.5 5.16699 -39.5 15.5s-16.5 24.166 -16.5 41.499s5.5 31.166 16.5 41.499s24.167 15.5 39.5 15.5s28.5 -5.16699 39.5 -15.5
s16.5 -24.166 16.5 -41.499s-5.5 -31.166 -16.5 -41.499s-24.167 -15.5 -39.5 -15.5z" />
    <glyph glyph-name="Idotaccent" unicode="&#x130;" horiz-adv-x="258" 
d="M84 693h90v-693h-90v693zM130 768c-15.333 0 -28.5 5.16699 -39.5 15.5s-16.5 24.166 -16.5 41.499s5.5 31.166 16.5 41.499s24.167 15.5 39.5 15.5s28.5 -5.16699 39.5 -15.5s16.5 -24.166 16.5 -41.499s-5.5 -31.166 -16.5 -41.499s-24.167 -15.5 -39.5 -15.5z" />
    <glyph glyph-name="dotlessi" unicode="&#x131;" horiz-adv-x="242" 
d="M164 0h-86v525h86v-525z" />
    <glyph glyph-name="IJ" unicode="&#x132;" horiz-adv-x="653" 
d="M84 693h90v-693h-90v693zM574 184c0 -30.667 -3.16797 -58.168 -9.50098 -82.501s-16.333 -45.166 -30 -62.499s-31.667 -30.666 -54 -39.999s-49.5 -14 -81.5 -14c-25.333 0 -49.666 3.83301 -72.999 11.5s-44.333 18.5 -63 32.5l30 71
c11.333 -8.66699 26.5 -16.834 45.5 -24.501s37.5 -11.5 55.5 -11.5c14 0 26.5 1.66699 37.5 5s20.5 9.5 28.5 18.5s14 21.333 18 37s6 35.5 6 59.5v509h90v-509z" />
    <glyph glyph-name="ij" unicode="&#x133;" horiz-adv-x="484" 
d="M164 0h-86v525h86v-525zM121 618c-15.333 0 -28.5 5.16699 -39.5 15.5s-16.5 24.166 -16.5 41.499s5.5 31.166 16.5 41.499s24.167 15.5 39.5 15.5s28.5 -5.16699 39.5 -15.5s16.5 -24.166 16.5 -41.499s-5.5 -31.166 -16.5 -41.499s-24.167 -15.5 -39.5 -15.5zM406 -28
c0 -57.333 -12.667 -98.332 -38 -122.999s-59 -37 -101 -37c-22 0 -41.667 3.33301 -59 10l12 73c6 -1.33301 12 -2.5 18 -3.5s12.667 -1.5 20 -1.5c9.33301 0 17.833 1.16699 25.5 3.5s14.167 6.83301 19.5 13.5s9.5 15.667 12.5 27s4.5 25.666 4.5 42.999v548h86v-553z
M363 618.001c-15.333 0 -28.5 5.16699 -39.5 15.5s-16.5 24.166 -16.5 41.499s5.5 31.166 16.5 41.499s24.167 15.5 39.5 15.5s28.5 -5.16699 39.5 -15.5s16.5 -24.166 16.5 -41.499s-5.5 -31.166 -16.5 -41.499s-24.167 -15.5 -39.5 -15.5z" />
    <glyph glyph-name="Jcircumflex" unicode="&#x134;" horiz-adv-x="395" 
d="M316 184c0 -30.667 -3.16797 -58.168 -9.50098 -82.501s-16.333 -45.166 -30 -62.499s-31.667 -30.666 -54 -39.999s-49.5 -14 -81.5 -14c-25.333 0 -49.666 3.83301 -72.999 11.5s-44.333 18.5 -63 32.5l30 71c11.333 -8.66699 26.5 -16.834 45.5 -24.501
s37.5 -11.5 55.5 -11.5c14 0 26.5 1.66699 37.5 5s20.5 9.5 28.5 18.5s14 21.333 18 37s6 35.5 6 59.5v509h90v-509zM196.999 730.999l-42 35l115 152l115 -152l-42 -35l-73 85z" />
    <glyph glyph-name="jcircumflex" unicode="&#x135;" horiz-adv-x="242" 
d="M164 -26c0 -57.333 -12.667 -98.332 -38 -122.999s-59 -37 -101 -37c-22 0 -41.667 3.33301 -59 10l12 73c6 -1.33301 12 -2.5 18 -3.5s12.667 -1.5 20 -1.5c9.33301 0 17.833 1.16699 25.5 3.5s14.167 6.83301 19.5 13.5s9.5 15.667 12.5 27s4.5 25.666 4.5 42.999v546
h86v-551zM48 581.001l-42 35l115 152l115 -152l-42 -35l-73 85z" />
    <glyph glyph-name="Kcommaaccent" unicode="&#x136;" horiz-adv-x="515" 
d="M480 693l-49.5 -74.998l-56.5 -84.5l-58.5 -85.5l-56.5 -78c20 -20 41.667 -45.167 65 -75.5s46.333 -62.333 69 -96s44 -67.834 64 -102.501s36 -66.667 48 -96h-101c-14 30.667 -30.167 62 -48.5 94s-37.666 62.833 -57.999 92.5s-41 57.167 -62 82.5
s-41.5 46.666 -61.5 63.999v-333h-90v693h90v-306c17.333 22 35.666 47 54.999 75l57.5 84l53.5 80.5l42 66.5h98zM240 -49.998l73.999 -0.000976562c0.666992 -3.33301 1 -7.16602 1 -11.499v-9.5c0 -42 -10 -72 -30 -90s-44.667 -27 -74 -27
c-7.33301 0 -14 0.333008 -20 1s-10.667 1.66699 -14 3v52c2.66699 -0.666992 6.66699 -1 12 -1c16.667 0 29.334 5 38.001 15s13 28.333 13 55v13z" />
    <glyph glyph-name="kcommaaccent" unicode="&#x137;" horiz-adv-x="427" 
d="M403 525c-28 -48 -54.8291 -91.8311 -80.4961 -131.498s-51.167 -76.834 -76.5 -111.501c16 -18.667 32.333 -39.667 49 -63s32.667 -47.5 48 -72.5s29.666 -50 42.999 -75s24.666 -48.833 33.999 -71.5h-94c-10 22 -21.667 45 -35 69s-27.333 47.5 -42 70.5
s-29.334 44.833 -44.001 65.5s-28.334 38 -41.001 52v-257h-86v761l86 15v-477l38.5 54l40.5 60.5l38 59.5c12 19.333 22 36.666 30 51.999h92zM195.004 -49.998l73.999 -0.000976562c0.666992 -3.33301 1 -7.16602 1 -11.499v-9.5c0 -42 -10 -72 -30 -90
s-44.667 -27 -74 -27c-7.33301 0 -14 0.333008 -20 1s-10.667 1.66699 -14 3v52c2.66699 -0.666992 6.66699 -1 12 -1c16.667 0 29.334 5 38.001 15s13 28.333 13 55v13z" />
    <glyph glyph-name="kgreenlandic" unicode="&#x138;" horiz-adv-x="427" 
d="M403 525c-28 -48 -54.8291 -91.8311 -80.4961 -131.498s-51.167 -76.834 -76.5 -111.501c16 -18.667 32.333 -39.667 49 -63s32.667 -47.5 48 -72.5s29.666 -50 42.999 -75s24.666 -48.833 33.999 -71.5h-94c-10 22 -21.667 45 -35 69s-27.333 47.5 -42 70.5
s-29.334 44.833 -44.001 65.5s-28.334 38 -41.001 52v-257h-86v525h86v-226l38.5 54l40.5 60.5l38 59.5c12 19.333 22 36.666 30 51.999h92z" />
    <glyph glyph-name="Lacute" unicode="&#x139;" horiz-adv-x="417" 
d="M393 77v-77h-309v693h90v-616h219zM247 876l-136 -144l-43 37l118 159z" />
    <glyph glyph-name="lacute" unicode="&#x13a;" horiz-adv-x="243" 
d="M214 -10c-49.333 1.33301 -84.666 13.499 -105.999 36.499s-32 59.5 -32 109.5v625l86 15v-642c0 -23.333 4.66699 -40.166 14 -50.499s25.666 -17.5 48.999 -21.5zM219 878.999l-157 -57l-21 50l151 78z" />
    <glyph glyph-name="Lcommaaccent" unicode="&#x13b;" horiz-adv-x="417" 
d="M393 77v-77h-309v693h90v-616h219zM208 -50l73.999 -0.000976562c0.666992 -3.33301 1 -7.16602 1 -11.499v-9.5c0 -42 -10 -72 -30 -90s-44.667 -27 -74 -27c-7.33301 0 -14 0.333008 -20 1s-10.667 1.66699 -14 3v52c2.66699 -0.666992 6.66699 -1 12 -1
c16.667 0 29.334 5 38.001 15s13 28.333 13 55v13z" />
    <glyph glyph-name="lcommaaccent" unicode="&#x13c;" horiz-adv-x="243" 
d="M214 -10c-49.333 1.33301 -84.666 13.499 -105.999 36.499s-32 59.5 -32 109.5v625l86 15v-642c0 -23.333 4.66699 -40.166 14 -50.499s25.666 -17.5 48.999 -21.5zM104 -50.001l73.999 -0.000976562c0.666992 -3.33301 1 -7.16602 1 -11.499v-9.5c0 -42 -10 -72 -30 -90
s-44.667 -27 -74 -27c-7.33301 0 -14 0.333008 -20 1s-10.667 1.66699 -14 3v52c2.66699 -0.666992 6.66699 -1 12 -1c16.667 0 29.334 5 38.001 15s13 28.333 13 55v13z" />
    <glyph glyph-name="Lcaron" unicode="&#x13d;" horiz-adv-x="417" 
d="M393 77v-77h-309v693h90v-616h219zM329 694l-27 -223h-57v223h84z" />
    <glyph glyph-name="lcaron" unicode="&#x13e;" horiz-adv-x="271" 
d="M214 -10c-49.333 1.33301 -84.666 13.499 -105.999 36.499s-32 59.5 -32 109.5v625l86 15v-642c0 -23.333 4.66699 -40.166 14 -50.499s25.666 -17.5 48.999 -21.5zM301 775.999l-27 -223h-57v223h84z" />
    <glyph glyph-name="Ldot" unicode="&#x13f;" horiz-adv-x="417" 
d="M393 77v-77h-309v693h90v-616h219zM372 360c0 -15.333 -5.5 -29 -16.5 -41s-25.5 -18 -43.5 -18s-32.333 6 -43 18s-16 25.667 -16 41c0 16 5.33301 30 16 42s25 18 43 18s32.5 -6 43.5 -18s16.5 -26 16.5 -42z" />
    <glyph glyph-name="ldot" unicode="&#x140;" horiz-adv-x="331" 
d="M214 -10c-49.333 1.33301 -84.666 13.499 -105.999 36.499s-32 59.5 -32 109.5v625l86 15v-642c0 -23.333 4.66699 -40.166 14 -50.499s25.666 -17.5 48.999 -21.5zM341 363.999c0 -15.333 -5.5 -29 -16.5 -41s-25.5 -18 -43.5 -18s-32.333 6 -43 18s-16 25.667 -16 41
c0 16 5.33301 30 16 42s25 18 43 18s32.5 -6 43.5 -18s16.5 -26 16.5 -42z" />
    <glyph glyph-name="Lslash" unicode="&#x141;" horiz-adv-x="417" 
d="M11 310l83 50v333h90v-279l100 60l34 -56l-134 -81v-260h219v-77h-309v283l-49 -29z" />
    <glyph glyph-name="lslash" unicode="&#x142;" horiz-adv-x="243" 
d="M-8 371l84 46.999v343l86 15v-309l56 32l33 -59l-89 -50v-256c0 -23.333 4.66699 -40.166 14 -50.499s25.666 -17.5 48.999 -21.5l-11 -72c-49.333 1.33301 -84.666 13.5 -105.999 36.5s-32 59.5 -32 109.5v205l-51 -28z" />
    <glyph glyph-name="Nacute" unicode="&#x143;" horiz-adv-x="581" 
d="M424 0c-16 39.333 -34.167 81.832 -54.5 127.499l-64 138l-68.5 138c-23.333 45.667 -46.333 88.167 -69 127.5v-531h-84v693h75c25.333 -41.333 49.833 -83.666 73.5 -126.999l67.5 -128.5l60.5 -125l52.5 -116.5v497h84v-693h-73zM420 875.999l-136 -144l-43 37
l118 159z" />
    <glyph glyph-name="nacute" unicode="&#x144;" horiz-adv-x="482" 
d="M78 510c24.667 7.33301 51.333 13.5 80 18.5s55 7.5 79 7.5c26 0 49.667 -3.5 71 -10.5s39.5 -18.833 54.5 -35.5s26.667 -39.167 35 -67.5s12.5 -63.5 12.5 -105.5v-317h-86v310c0 52 -6.66699 90 -20 114s-38.333 36 -75 36c-19.333 0 -41 -3.33301 -65 -10v-450h-86
v510zM362.999 726l-136 -144l-43 37l118 159z" />
    <glyph glyph-name="Ncommaaccent" unicode="&#x145;" horiz-adv-x="581" 
d="M424 0c-16 39.333 -34.167 81.832 -54.5 127.499l-64 138l-68.5 138c-23.333 45.667 -46.333 88.167 -69 127.5v-531h-84v693h75c25.333 -41.333 49.833 -83.666 73.5 -126.999l67.5 -128.5l60.5 -125l52.5 -116.5v497h84v-693h-73zM263 -50.001l73.999 -0.000976562
c0.666992 -3.33301 1 -7.16602 1 -11.499v-9.5c0 -42 -10 -72 -30 -90s-44.667 -27 -74 -27c-7.33301 0 -14 0.333008 -20 1s-10.667 1.66699 -14 3v52c2.66699 -0.666992 6.66699 -1 12 -1c16.667 0 29.334 5 38.001 15s13 28.333 13 55v13z" />
    <glyph glyph-name="ncommaaccent" unicode="&#x146;" horiz-adv-x="482" 
d="M78 510c24.667 7.33301 51.333 13.5 80 18.5s55 7.5 79 7.5c26 0 49.667 -3.5 71 -10.5s39.5 -18.833 54.5 -35.5s26.667 -39.167 35 -67.5s12.5 -63.5 12.5 -105.5v-317h-86v310c0 52 -6.66699 90 -20 114s-38.333 36 -75 36c-19.333 0 -41 -3.33301 -65 -10v-450h-86
v510zM211.999 -50l73.999 -0.000976562c0.666992 -3.33301 1 -7.16602 1 -11.499v-9.5c0 -42 -10 -72 -30 -90s-44.667 -27 -74 -27c-7.33301 0 -14 0.333008 -20 1s-10.667 1.66699 -14 3v52c2.66699 -0.666992 6.66699 -1 12 -1c16.667 0 29.334 5 38.001 15
s13 28.333 13 55v13z" />
    <glyph glyph-name="Ncaron" unicode="&#x147;" horiz-adv-x="581" 
d="M424 0c-16 39.333 -34.167 81.832 -54.5 127.499l-64 138l-68.5 138c-23.333 45.667 -46.333 88.167 -69 127.5v-531h-84v693h75c25.333 -41.333 49.833 -83.666 73.5 -126.999l67.5 -128.5l60.5 -125l52.5 -116.5v497h84v-693h-73zM364 917.999l42 -35l-115 -152
l-115 152l42 35l73 -85z" />
    <glyph glyph-name="ncaron" unicode="&#x148;" horiz-adv-x="482" 
d="M78 510c24.667 7.33301 51.333 13.5 80 18.5s55 7.5 79 7.5c26 0 49.667 -3.5 71 -10.5s39.5 -18.833 54.5 -35.5s26.667 -39.167 35 -67.5s12.5 -63.5 12.5 -105.5v-317h-86v310c0 52 -6.66699 90 -20 114s-38.333 36 -75 36c-19.333 0 -41 -3.33301 -65 -10v-450h-86
v510zM313.999 768l42 -35l-115 -152l-115 152l42 35l73 -85z" />
    <glyph glyph-name="napostrophe" unicode="&#x149;" horiz-adv-x="482" 
d="M78 510c24.667 7.33301 51.333 13.5 80 18.5s55 7.5 79 7.5c26 0 49.667 -3.5 71 -10.5s39.5 -18.833 54.5 -35.5s26.667 -39.167 35 -67.5s12.5 -63.5 12.5 -105.5v-317h-86v310c0 52 -6.66699 90 -20 114s-38.333 36 -75 36c-19.333 0 -41 -3.33301 -65 -10v-450h-86
v510zM145.999 781c0.666992 -4.66699 1 -8.83398 1 -12.501v-11.5c0 -33.333 -6 -65.166 -18 -95.499s-28.333 -59.833 -49 -88.5l-60 18c16.667 26 27.667 52.333 33 79s8 51.667 8 75c0 6.66699 -0.166992 13 -0.5 19s-0.833008 11.667 -1.5 17h87z" />
    <glyph glyph-name="Eng" unicode="&#x14a;" horiz-adv-x="581" 
d="M497 -30c0 -57.333 -11.166 -98.333 -33.499 -123s-53.5 -37 -93.5 -37c-10 0 -19.833 0.833008 -29.5 2.5s-18.834 4.16699 -27.501 7.5l12 73c6 -1.33301 11.833 -2.5 17.5 -3.5s11.5 -1.5 17.5 -1.5c8.66699 0 16.334 1.16699 23.001 3.5s12.167 6.83301 16.5 13.5
s7.66602 15.667 9.99902 27s3.5 25.666 3.5 42.999v52c-16 38.667 -33.833 79.667 -53.5 123l-61.5 131l-65 130c-22 42.667 -43.667 82.667 -65 120v-531h-84v693h75c25.333 -41.333 49.833 -83.666 73.5 -126.999l67.5 -128.5l60.5 -125l52.5 -116.5v497h84v-723z" />
    <glyph glyph-name="eng" unicode="&#x14b;" horiz-adv-x="482" 
d="M78 510c24.667 7.33301 51.332 13.501 79.999 18.501s55 7.5 79 7.5c26 0 49.667 -3.5 71 -10.5s39.5 -18.833 54.5 -35.5s26.667 -39.167 35 -67.5s12.5 -63.5 12.5 -105.5v-347c0 -57.333 -12 -98.333 -36 -123s-56 -37 -96 -37c-21.333 0 -40 3.33301 -56 10l12 68
c12 -3.33301 23.333 -5 34 -5c8.66699 0 16.334 1.16699 23.001 3.5s12.5 6.83301 17.5 13.5s8.83301 15.667 11.5 27s4 25.666 4 42.999v340c0 52 -6.66699 90 -20 114s-38.333 36 -75 36c-19.333 0 -41 -3.33301 -65 -10v-450h-86v510z" />
    <glyph glyph-name="Omacron" unicode="&#x14c;" horiz-adv-x="605" 
d="M549 346c0 -54 -4.83301 -103.167 -14.5 -147.5s-24.667 -82.333 -45 -114s-46 -56.167 -77 -73.5s-67.5 -26 -109.5 -26s-78.5 8.66699 -109.5 26s-56.667 41.833 -77 73.5s-35.5 69.667 -45.5 114s-15 93.5 -15 147.5s5 103.333 15 148s25.167 82.834 45.5 114.501
s46 56.334 77 74.001s67.5 26.5 109.5 26.5s78.5 -8.83301 109.5 -26.5s56.667 -42.334 77 -74.001s35.333 -69.834 45 -114.501s14.5 -94 14.5 -148zM453 346c0 42 -2.66699 80.333 -8 115s-14 64.5 -26 89.5s-27.5 44.5 -46.5 58.5s-42.167 21 -69.5 21
s-50.5 -7 -69.5 -21s-34.5 -33.5 -46.5 -58.5s-20.833 -54.833 -26.5 -89.5s-8.5 -73 -8.5 -115s2.83301 -80.333 8.5 -115s14.5 -64.334 26.5 -89.001s27.5 -43.834 46.5 -57.501s42.167 -20.5 69.5 -20.5s50.5 6.83301 69.5 20.5s34.5 32.834 46.5 57.501
s20.667 54.334 26 89.001s8 73 8 115zM195 861h213v-68h-213v68z" />
    <glyph glyph-name="omacron" unicode="&#x14d;" horiz-adv-x="463" 
d="M415 262c0 -41.333 -3.66699 -78.833 -11 -112.5s-18.5 -62.5 -33.5 -86.5s-34 -42.667 -57 -56s-50.167 -20 -81.5 -20s-58.666 6.66699 -81.999 20s-42.5 32 -57.5 56s-26.167 52.833 -33.5 86.5s-11 71.167 -11 112.5c0 40.667 3.66699 78 11 112
s18.5 63.167 33.5 87.5s34.167 43.166 57.5 56.499s50.666 20 81.999 20s58.5 -6.66699 81.5 -20s42 -32.166 57 -56.499s26.167 -53.5 33.5 -87.5s11 -71.333 11 -112zM325 262c0 29.333 -1.66699 56.166 -5 80.499s-8.66602 45.333 -15.999 63s-17 31.334 -29 41.001
s-26.333 14.5 -43 14.5c-17.333 0 -31.833 -4.83301 -43.5 -14.5s-21.334 -23.334 -29.001 -41.001s-13.167 -38.667 -16.5 -63s-5 -51.166 -5 -80.499s1.66699 -56.166 5 -80.499s8.83301 -45.166 16.5 -62.499s17.334 -30.833 29.001 -40.5s26.167 -14.5 43.5 -14.5
c16.667 0 31 4.83301 43 14.5s21.667 23.167 29 40.5s12.666 38.166 15.999 62.499s5 51.166 5 80.499zM124 711h213v-68h-213v68z" />
    <glyph glyph-name="Obreve" unicode="&#x14e;" horiz-adv-x="605" 
d="M549 346c0 -54 -4.83301 -103.167 -14.5 -147.5s-24.667 -82.333 -45 -114s-46 -56.167 -77 -73.5s-67.5 -26 -109.5 -26s-78.5 8.66699 -109.5 26s-56.667 41.833 -77 73.5s-35.5 69.667 -45.5 114s-15 93.5 -15 147.5s5 103.333 15 148s25.167 82.834 45.5 114.501
s46 56.334 77 74.001s67.5 26.5 109.5 26.5s78.5 -8.83301 109.5 -26.5s56.667 -42.334 77 -74.001s35.333 -69.834 45 -114.501s14.5 -94 14.5 -148zM453 346c0 42 -2.66699 80.333 -8 115s-14 64.5 -26 89.5s-27.5 44.5 -46.5 58.5s-42.167 21 -69.5 21
s-50.5 -7 -69.5 -21s-34.5 -33.5 -46.5 -58.5s-20.833 -54.833 -26.5 -89.5s-8.5 -73 -8.5 -115s2.83301 -80.333 8.5 -115s14.5 -64.334 26.5 -89.001s27.5 -43.834 46.5 -57.501s42.167 -20.5 69.5 -20.5s50.5 6.83301 69.5 20.5s34.5 32.834 46.5 57.501
s20.667 54.334 26 89.001s8 73 8 115zM302 765c-37.333 0 -65.833 12.167 -85.5 36.5s-29.5 58.5 -29.5 102.5h58c1.33301 -22 5.83301 -41 13.5 -57s22.167 -24 43.5 -24s35.833 8 43.5 24s12.167 35 13.5 57h58c0 -44 -10 -78.167 -30 -102.5s-48.333 -36.5 -85 -36.5z
" />
    <glyph glyph-name="obreve" unicode="&#x14f;" horiz-adv-x="463" 
d="M415 262c0 -41.333 -3.66699 -78.833 -11 -112.5s-18.5 -62.5 -33.5 -86.5s-34 -42.667 -57 -56s-50.167 -20 -81.5 -20s-58.666 6.66699 -81.999 20s-42.5 32 -57.5 56s-26.167 52.833 -33.5 86.5s-11 71.167 -11 112.5c0 40.667 3.66699 78 11 112
s18.5 63.167 33.5 87.5s34.167 43.166 57.5 56.499s50.666 20 81.999 20s58.5 -6.66699 81.5 -20s42 -32.166 57 -56.499s26.167 -53.5 33.5 -87.5s11 -71.333 11 -112zM325 262c0 29.333 -1.66699 56.166 -5 80.499s-8.66602 45.333 -15.999 63s-17 31.334 -29 41.001
s-26.333 14.5 -43 14.5c-17.333 0 -31.833 -4.83301 -43.5 -14.5s-21.334 -23.334 -29.001 -41.001s-13.167 -38.667 -16.5 -63s-5 -51.166 -5 -80.499s1.66699 -56.166 5 -80.499s8.83301 -45.166 16.5 -62.499s17.334 -30.833 29.001 -40.5s26.167 -14.5 43.5 -14.5
c16.667 0 31 4.83301 43 14.5s21.667 23.167 29 40.5s12.666 38.166 15.999 62.499s5 51.166 5 80.499zM231 615c-37.333 0 -65.833 12.167 -85.5 36.5s-29.5 58.5 -29.5 102.5h58c1.33301 -22 5.83301 -41 13.5 -57s22.167 -24 43.5 -24s35.833 8 43.5 24
s12.167 35 13.5 57h58c0 -44 -10 -78.167 -30 -102.5s-48.333 -36.5 -85 -36.5z" />
    <glyph glyph-name="Ohungarumlaut" unicode="&#x150;" horiz-adv-x="605" 
d="M549 346c0 -54 -4.83301 -103.167 -14.5 -147.5s-24.667 -82.333 -45 -114s-46 -56.167 -77 -73.5s-67.5 -26 -109.5 -26s-78.5 8.66699 -109.5 26s-56.667 41.833 -77 73.5s-35.5 69.667 -45.5 114s-15 93.5 -15 147.5s5 103.333 15 148s25.167 82.834 45.5 114.501
s46 56.334 77 74.001s67.5 26.5 109.5 26.5s78.5 -8.83301 109.5 -26.5s56.667 -42.334 77 -74.001s35.333 -69.834 45 -114.501s14.5 -94 14.5 -148zM453 346c0 42 -2.66699 80.333 -8 115s-14 64.5 -26 89.5s-27.5 44.5 -46.5 58.5s-42.167 21 -69.5 21
s-50.5 -7 -69.5 -21s-34.5 -33.5 -46.5 -58.5s-20.833 -54.833 -26.5 -89.5s-8.5 -73 -8.5 -115s2.83301 -80.333 8.5 -115s14.5 -64.334 26.5 -89.001s27.5 -43.834 46.5 -57.501s42.167 -20.5 69.5 -20.5s50.5 6.83301 69.5 20.5s34.5 32.834 46.5 57.501
s20.667 54.334 26 89.001s8 73 8 115zM359 893l-112 -157l-46 28l96 170zM496 893l-112 -157l-46 28l96 170z" />
    <glyph glyph-name="ohungarumlaut" unicode="&#x151;" horiz-adv-x="463" 
d="M415 262c0 -41.333 -3.66699 -78.833 -11 -112.5s-18.5 -62.5 -33.5 -86.5s-34 -42.667 -57 -56s-50.167 -20 -81.5 -20s-58.666 6.66699 -81.999 20s-42.5 32 -57.5 56s-26.167 52.833 -33.5 86.5s-11 71.167 -11 112.5c0 40.667 3.66699 78 11 112
s18.5 63.167 33.5 87.5s34.167 43.166 57.5 56.499s50.666 20 81.999 20s58.5 -6.66699 81.5 -20s42 -32.166 57 -56.499s26.167 -53.5 33.5 -87.5s11 -71.333 11 -112zM325 262c0 29.333 -1.66699 56.166 -5 80.499s-8.66602 45.333 -15.999 63s-17 31.334 -29 41.001
s-26.333 14.5 -43 14.5c-17.333 0 -31.833 -4.83301 -43.5 -14.5s-21.334 -23.334 -29.001 -41.001s-13.167 -38.667 -16.5 -63s-5 -51.166 -5 -80.499s1.66699 -56.166 5 -80.499s8.83301 -45.166 16.5 -62.499s17.334 -30.833 29.001 -40.5s26.167 -14.5 43.5 -14.5
c16.667 0 31 4.83301 43 14.5s21.667 23.167 29 40.5s12.666 38.166 15.999 62.499s5 51.166 5 80.499zM272 743l-112 -157l-46 28l96 170zM409 743l-112 -157l-46 28l96 170z" />
    <glyph glyph-name="OE" unicode="&#x152;" horiz-adv-x="756" 
d="M56 347c0 63.333 6.83301 117.5 20.5 162.5s33 81.667 58 110s55.167 49 90.5 62s74.666 19.5 117.999 19.5c14.667 0 29.667 -0.666992 45 -2s31.333 -3.33301 48 -6h269v-77h-221v-215h200v-75h-200v-249h237v-77h-296c-14 -2 -27.667 -3.66699 -41 -5
s-26.666 -2 -39.999 -2c-43.333 0 -82.833 6.5 -118.5 19.5s-66 33.667 -91 62s-44.333 65 -58 110s-20.5 99.167 -20.5 162.5zM152 347c0 -96 14.833 -165.667 44.5 -209s77.167 -65 142.5 -65c9.33301 0 18.5 0.333008 27.5 1s18.167 1.66699 27.5 3v540
c-9.33301 1.33301 -18.5 2.33301 -27.5 3s-17.833 1 -26.5 1c-66 0 -113.833 -21.5 -143.5 -64.5s-44.5 -112.833 -44.5 -209.5z" />
    <glyph glyph-name="oe" unicode="&#x153;" horiz-adv-x="713" 
d="M411 237c0.666992 -25.333 3.00195 -48.4971 7.00195 -69.4971s10.5 -39.333 19.5 -55s21 -27.834 36 -36.501s34.167 -13 57.5 -13c19.333 0 37.166 2.83301 53.499 8.5s28.166 10.5 35.499 14.5l16 -69c-8.66699 -6 -23.167 -12.5 -43.5 -19.5s-44.5 -10.5 -72.5 -10.5
c-36 0 -66.333 7.33301 -91 22s-44.667 36 -60 64c-15.333 -28 -34.166 -49.333 -56.499 -64s-48.833 -22 -79.5 -22c-31.333 0 -58.666 6.66699 -81.999 20s-42.5 32 -57.5 56s-26.167 52.833 -33.5 86.5s-11 71.167 -11 112.5c0 40.667 3.66699 78 11 112
s18.5 63.167 33.5 87.5s34.167 43.166 57.5 56.499s50.666 20 81.999 20c30.667 0 57.167 -7.66699 79.5 -23s41.166 -37.333 56.499 -66c31.333 59.333 74.333 89 129 89c30 0 55.333 -6 76 -18s37.5 -29 50.5 -51s22.333 -48.833 28 -80.5s8.5 -66.834 8.5 -105.501v-22.5
c0 -7.66699 -0.333008 -15.5 -1 -23.5h-249zM326.002 262.003c0 29.333 -1.66699 56.166 -5 80.499s-8.66602 45.333 -15.999 63s-17 31.334 -29 41.001s-26.333 14.5 -43 14.5c-17.333 0 -31.833 -4.83301 -43.5 -14.5s-21.334 -23.334 -29.001 -41.001
s-13.167 -38.667 -16.5 -63s-5 -51.166 -5 -80.499s1.66699 -56.166 5 -80.499s8.83301 -45.166 16.5 -62.499s17.334 -30.833 29.001 -40.5s26.167 -14.5 43.5 -14.5c16.667 0 31 4.83301 43 14.5s21.667 23.167 29 40.5s12.666 38.166 15.999 62.499s5 51.166 5 80.499z
M498.002 465.003c-14 0 -26.168 -4 -36.501 -12s-18.833 -19.167 -25.5 -33.5s-12 -31.166 -16 -50.499s-6.66699 -40 -8 -62h159c0 22 -1.16699 42.5 -3.5 61.5s-6.16602 35.667 -11.499 50s-12.833 25.666 -22.5 33.999s-21.5 12.5 -35.5 12.5z" />
    <glyph glyph-name="Racute" unicode="&#x154;" horiz-adv-x="514" 
d="M84 683c46.667 11.333 91.665 16.999 134.998 16.999c34.667 0 66 -4 94 -12s52 -20.667 72 -38s35.5 -39.666 46.5 -66.999s16.5 -60.333 16.5 -99c0 -48 -9.16699 -86.833 -27.5 -116.5s-43.166 -52.167 -74.499 -67.5c8 -13.333 18.167 -31.5 30.5 -54.5
s25 -48.333 38 -76s25.667 -56.167 38 -85.5s22.833 -57.333 31.5 -84h-90c-7.33301 20 -16.5 42.667 -27.5 68s-22.5 50.5 -34.5 75.5l-36 72c-12 23 -22.667 42.5 -32 58.5c-10.667 -1.33301 -21.667 -2.33301 -33 -3s-22.666 -1 -33.999 -1h-25v-270h-88v683z
M171.998 343.999h38c46 0 81.333 10.5 106 31.5s37 57.167 37 108.5c0 26 -3.16699 47.833 -9.5 65.5s-15.333 31.667 -27 42s-25.667 17.833 -42 22.5s-34.5 7 -54.5 7c-17.333 0 -33.333 -1 -48 -3v-274zM347.998 875.999l-136 -144l-43 37l118 159z" />
    <glyph glyph-name="racute" unicode="&#x155;" horiz-adv-x="328" 
d="M305 447c-21.333 9.33301 -45.333 14.001 -72 14.001c-24.667 0 -47.667 -4.33301 -69 -13v-448h-86v502c19.333 9.33301 41.5 17.166 66.5 23.499s52.5 9.5 82.5 9.5c16 0 32 -1 48 -3s31 -5.66699 45 -11zM321 726.001l-136 -144l-43 37l118 159z" />
    <glyph glyph-name="Rcommaaccent" unicode="&#x156;" horiz-adv-x="514" 
d="M84 683c46.667 11.333 91.665 16.999 134.998 16.999c34.667 0 66 -4 94 -12s52 -20.667 72 -38s35.5 -39.666 46.5 -66.999s16.5 -60.333 16.5 -99c0 -48 -9.16699 -86.833 -27.5 -116.5s-43.166 -52.167 -74.499 -67.5c8 -13.333 18.167 -31.5 30.5 -54.5
s25 -48.333 38 -76s25.667 -56.167 38 -85.5s22.833 -57.333 31.5 -84h-90c-7.33301 20 -16.5 42.667 -27.5 68s-22.5 50.5 -34.5 75.5l-36 72c-12 23 -22.667 42.5 -32 58.5c-10.667 -1.33301 -21.667 -2.33301 -33 -3s-22.666 -1 -33.999 -1h-25v-270h-88v683z
M171.998 343.999h38c46 0 81.333 10.5 106 31.5s37 57.167 37 108.5c0 26 -3.16699 47.833 -9.5 65.5s-15.333 31.667 -27 42s-25.667 17.833 -42 22.5s-34.5 7 -54.5 7c-17.333 0 -33.333 -1 -48 -3v-274zM237.998 -50.001l73.999 -0.000976562
c0.666992 -3.33301 1 -7.16602 1 -11.499v-9.5c0 -42 -10 -72 -30 -90s-44.667 -27 -74 -27c-7.33301 0 -14 0.333008 -20 1s-10.667 1.66699 -14 3v52c2.66699 -0.666992 6.66699 -1 12 -1c16.667 0 29.334 5 38.001 15s13 28.333 13 55v13z" />
    <glyph glyph-name="rcommaaccent" unicode="&#x157;" horiz-adv-x="328" 
d="M305 447c-21.333 9.33301 -45.333 14.001 -72 14.001c-24.667 0 -47.667 -4.33301 -69 -13v-448h-86v502c19.333 9.33301 41.5 17.166 66.5 23.499s52.5 9.5 82.5 9.5c16 0 32 -1 48 -3s31 -5.66699 45 -11zM82 -49.999l73.999 -0.000976562
c0.666992 -3.33301 1 -7.16602 1 -11.499v-9.5c0 -42 -10 -72 -30 -90s-44.667 -27 -74 -27c-7.33301 0 -14 0.333008 -20 1s-10.667 1.66699 -14 3v52c2.66699 -0.666992 6.66699 -1 12 -1c16.667 0 29.334 5 38.001 15s13 28.333 13 55v13z" />
    <glyph glyph-name="Rcaron" unicode="&#x158;" horiz-adv-x="514" 
d="M84 683c46.667 11.333 91.665 16.999 134.998 16.999c34.667 0 66 -4 94 -12s52 -20.667 72 -38s35.5 -39.666 46.5 -66.999s16.5 -60.333 16.5 -99c0 -48 -9.16699 -86.833 -27.5 -116.5s-43.166 -52.167 -74.499 -67.5c8 -13.333 18.167 -31.5 30.5 -54.5
s25 -48.333 38 -76s25.667 -56.167 38 -85.5s22.833 -57.333 31.5 -84h-90c-7.33301 20 -16.5 42.667 -27.5 68s-22.5 50.5 -34.5 75.5l-36 72c-12 23 -22.667 42.5 -32 58.5c-10.667 -1.33301 -21.667 -2.33301 -33 -3s-22.666 -1 -33.999 -1h-25v-270h-88v683z
M171.998 343.999h38c46 0 81.333 10.5 106 31.5s37 57.167 37 108.5c0 26 -3.16699 47.833 -9.5 65.5s-15.333 31.667 -27 42s-25.667 17.833 -42 22.5s-34.5 7 -54.5 7c-17.333 0 -33.333 -1 -48 -3v-274zM318.998 917.999l42 -35l-115 -152l-115 152l42 35l73 -85z" />
    <glyph glyph-name="rcaron" unicode="&#x159;" horiz-adv-x="328" 
d="M305 447c-21.333 9.33301 -45.333 14.001 -72 14.001c-24.667 0 -47.667 -4.33301 -69 -13v-448h-86v502c19.333 9.33301 41.5 17.166 66.5 23.499s52.5 9.5 82.5 9.5c16 0 32 -1 48 -3s31 -5.66699 45 -11zM272 768.001l42 -35l-115 -152l-115 152l42 35l73 -85z" />
    <glyph glyph-name="Sacute" unicode="&#x15a;" horiz-adv-x="400" 
d="M170 62c36 0 63.8389 10 83.5059 30s29.5 47 29.5 81c0 18 -3 34 -9 48s-13.833 26.667 -23.5 38s-20.834 21.666 -33.501 30.999l-39 28l-48 34c-16.667 12 -31.834 26 -45.501 42s-24.834 34.667 -33.501 56s-13 46.333 -13 75c0 28 4.83301 53.333 14.5 76
s23 42 40 58s37.333 28.333 61 37s49.167 13 76.5 13c26.667 0 51.334 -3.33301 74.001 -10s41.667 -14.667 57 -24l-28 -71c-14 9.33301 -29.167 16.5 -45.5 21.5s-33.5 7.5 -51.5 7.5c-32.667 0 -58.834 -8.83301 -78.501 -26.5s-29.5 -43.5 -29.5 -77.5
c0 -18.667 3.16699 -35 9.5 -49s14.666 -26.667 24.999 -38s22.333 -21.666 36 -30.999l43.5 -29c15.333 -10 31 -21 47 -33s30.5 -25.833 43.5 -41.5s23.667 -34 32 -55s12.5 -45.833 12.5 -74.5c0 -26 -4 -50.667 -12 -74s-20.5 -43.833 -37.5 -61.5
s-38.333 -31.667 -64 -42s-55.834 -15.5 -90.501 -15.5c-32 0 -60 3.66699 -84 11s-45.333 17 -64 29l28 72c17.333 -10.667 35.166 -19.167 53.499 -25.5s39.5 -9.5 63.5 -9.5zM338.006 876l-136 -144l-43 37l118 159z" />
    <glyph glyph-name="sacute" unicode="&#x15b;" horiz-adv-x="341" 
d="M151 61c25.333 0 44.498 7.17188 57.498 21.5049s19.5 33.166 19.5 56.499c0 14.667 -2.66699 27.167 -8 37.5s-12.333 19.5 -21 27.5s-18.667 15.167 -30 21.5s-22.666 13.166 -33.999 20.499c-11.333 6.66699 -22.333 14.5 -33 23.5s-20.167 19.333 -28.5 31
s-15 25 -20 40s-7.5 32.5 -7.5 52.5c0 43.333 13.5 78.333 40.5 105s63.5 40 109.5 40c19.333 0 37.666 -2.5 54.999 -7.5s31.666 -10.5 42.999 -16.5l-19 -69c-12 6.66699 -24 11.667 -36 15s-25 5 -39 5c-21.333 0 -38.333 -6.16699 -51 -18.5s-19 -30.166 -19 -53.499
c0 -13.333 2.33301 -24.833 7 -34.5s10.834 -18.334 18.501 -26.001s16.334 -14.834 26.001 -21.501s19.834 -13 30.501 -19c12.667 -7.33301 25.167 -15.333 37.5 -24s23.333 -18.834 33 -30.501s17.5 -25.334 23.5 -41.001s9 -34.5 9 -56.5c0 -46 -13.5 -83 -40.5 -111
s-66.5 -42 -118.5 -42c-26.667 0 -50.667 3.66699 -72 11s-37.333 14 -48 20l18 71c10 -5.33301 23.5 -11.333 40.5 -18s35.833 -10 56.5 -10zM302.998 726.005l-136 -144l-43 37l118 159z" />
    <glyph glyph-name="Scircumflex" unicode="&#x15c;" horiz-adv-x="400" 
d="M170 62c36 0 63.8389 10 83.5059 30s29.5 47 29.5 81c0 18 -3 34 -9 48s-13.833 26.667 -23.5 38s-20.834 21.666 -33.501 30.999l-39 28l-48 34c-16.667 12 -31.834 26 -45.501 42s-24.834 34.667 -33.501 56s-13 46.333 -13 75c0 28 4.83301 53.333 14.5 76
s23 42 40 58s37.333 28.333 61 37s49.167 13 76.5 13c26.667 0 51.334 -3.33301 74.001 -10s41.667 -14.667 57 -24l-28 -71c-14 9.33301 -29.167 16.5 -45.5 21.5s-33.5 7.5 -51.5 7.5c-32.667 0 -58.834 -8.83301 -78.501 -26.5s-29.5 -43.5 -29.5 -77.5
c0 -18.667 3.16699 -35 9.5 -49s14.666 -26.667 24.999 -38s22.333 -21.666 36 -30.999l43.5 -29c15.333 -10 31 -21 47 -33s30.5 -25.833 43.5 -41.5s23.667 -34 32 -55s12.5 -45.833 12.5 -74.5c0 -26 -4 -50.667 -12 -74s-20.5 -43.833 -37.5 -61.5
s-38.333 -31.667 -64 -42s-55.834 -15.5 -90.501 -15.5c-32 0 -60 3.66699 -84 11s-45.333 17 -64 29l28 72c17.333 -10.667 35.166 -19.167 53.499 -25.5s39.5 -9.5 63.5 -9.5zM137.006 731l-42 35l115 152l115 -152l-42 -35l-73 85z" />
    <glyph glyph-name="scircumflex" unicode="&#x15d;" horiz-adv-x="341" 
d="M151 61c25.333 0 44.498 7.17188 57.498 21.5049s19.5 33.166 19.5 56.499c0 14.667 -2.66699 27.167 -8 37.5s-12.333 19.5 -21 27.5s-18.667 15.167 -30 21.5s-22.666 13.166 -33.999 20.499c-11.333 6.66699 -22.333 14.5 -33 23.5s-20.167 19.333 -28.5 31
s-15 25 -20 40s-7.5 32.5 -7.5 52.5c0 43.333 13.5 78.333 40.5 105s63.5 40 109.5 40c19.333 0 37.666 -2.5 54.999 -7.5s31.666 -10.5 42.999 -16.5l-19 -69c-12 6.66699 -24 11.667 -36 15s-25 5 -39 5c-21.333 0 -38.333 -6.16699 -51 -18.5s-19 -30.166 -19 -53.499
c0 -13.333 2.33301 -24.833 7 -34.5s10.834 -18.334 18.501 -26.001s16.334 -14.834 26.001 -21.501s19.834 -13 30.501 -19c12.667 -7.33301 25.167 -15.333 37.5 -24s23.333 -18.834 33 -30.501s17.5 -25.334 23.5 -41.001s9 -34.5 9 -56.5c0 -46 -13.5 -83 -40.5 -111
s-66.5 -42 -118.5 -42c-26.667 0 -50.667 3.66699 -72 11s-37.333 14 -48 20l18 71c10 -5.33301 23.5 -11.333 40.5 -18s35.833 -10 56.5 -10zM111.998 581.005l-42 35l115 152l115 -152l-42 -35l-73 85z" />
    <glyph glyph-name="Scedilla" unicode="&#x15e;" horiz-adv-x="400" 
d="M170 62c36 0 63.8379 10 83.5049 30s29.5 47 29.5 81c0 18 -3 34 -9 48s-13.833 26.667 -23.5 38s-20.834 21.666 -33.501 30.999l-39 28l-48 34c-16.667 12 -31.834 26 -45.501 42s-24.834 34.667 -33.501 56s-13 46.333 -13 75c0 28 4.83301 53.333 14.5 76
s23 42 40 58s37.333 28.333 61 37s49.167 13 76.5 13c26.667 0 51.334 -3.33301 74.001 -10s41.667 -14.667 57 -24l-28 -71c-14 9.33301 -29.167 16.5 -45.5 21.5s-33.5 7.5 -51.5 7.5c-32.667 0 -58.834 -8.83301 -78.501 -26.5s-29.5 -43.5 -29.5 -77.5
c0 -18.667 3.16699 -35 9.5 -49s14.666 -26.667 24.999 -38s22.333 -21.666 36 -30.999l43.5 -29c15.333 -10 31 -21 47 -33s30.5 -25.833 43.5 -41.5s23.667 -34 32 -55s12.5 -45.833 12.5 -74.5c0 -23.333 -3.16699 -45.333 -9.5 -66s-16 -39.5 -29 -56.5
s-29.333 -31.333 -49 -43s-42.834 -19.5 -69.501 -23.5l-7.5 -15c-2.33301 -4.66699 -4.16602 -9.33398 -5.49902 -14.001c19.333 -7.33301 33 -16.833 41 -28.5s12 -25.167 12 -40.5c0 -25.333 -10 -45 -30 -59s-44.667 -21 -74 -21c-10 0 -21 0.833008 -33 2.5
s-23.667 4.5 -35 8.5l10 55c6.66699 -1.33301 13.667 -2.83301 21 -4.5s15 -2.5 23 -2.5c12 0 22.333 1.83301 31 5.5s13 10.834 13 21.501c0 7.33301 -3.66699 13.666 -11 18.999s-21 10 -41 14c2.66699 8.66699 6 17.834 10 27.501l12 28.5
c-28 1.33301 -52.667 5.33301 -74 12s-40.333 15.667 -57 27l28 72c17.333 -10.667 35.166 -19.167 53.499 -25.5s39.5 -9.5 63.5 -9.5z" />
    <glyph glyph-name="scedilla" unicode="&#x15f;" horiz-adv-x="341" 
d="M151 61c25.333 0 44.4971 7.17285 57.4971 21.5059s19.5 33.166 19.5 56.499c0 14.667 -2.66699 27.167 -8 37.5s-12.333 19.5 -21 27.5s-18.667 15.167 -30 21.5s-22.666 13.166 -33.999 20.499c-11.333 6.66699 -22.333 14.5 -33 23.5s-20.167 19.333 -28.5 31
s-15 25 -20 40s-7.5 32.5 -7.5 52.5c0 43.333 13.5 78.333 40.5 105s63.5 40 109.5 40c19.333 0 37.666 -2.5 54.999 -7.5s31.666 -10.5 42.999 -16.5l-19 -69c-12 6.66699 -24 11.667 -36 15s-25 5 -39 5c-21.333 0 -38.333 -6.16699 -51 -18.5s-19 -30.166 -19 -53.499
c0 -13.333 2.33301 -24.833 7 -34.5s10.834 -18.334 18.501 -26.001s16.334 -14.834 26.001 -21.501s19.834 -13 30.501 -19c12.667 -7.33301 25.167 -15.333 37.5 -24s23.333 -18.834 33 -30.501s17.5 -25.334 23.5 -41.001s9 -34.5 9 -56.5c0 -38 -9 -69.833 -27 -95.5
s-45 -42.834 -81 -51.501c-3.33301 -5.33301 -6.16602 -10.833 -8.49902 -16.5s-4.5 -11.167 -6.5 -16.5c19.333 -7.33301 33 -16.833 41 -28.5s12 -25.167 12 -40.5c0 -25.333 -10 -45 -30 -59s-44.667 -21 -74 -21c-10 0 -21 0.833008 -33 2.5s-23.667 4.5 -35 8.5l10 55
c6.66699 -1.33301 13.667 -2.83301 21 -4.5s15 -2.5 23 -2.5c12 0 22.333 1.83301 31 5.5s13 10.834 13 21.501c0 7.33301 -3.66699 13.666 -11 18.999s-21 10 -41 14c2.66699 9.33301 6 19 10 29s8.33301 19.667 13 29c-23.333 1.33301 -44.5 5.33301 -63.5 12
s-33.167 12.667 -42.5 18l18 71c10 -5.33301 23.5 -11.333 40.5 -18s35.833 -10 56.5 -10z" />
    <glyph glyph-name="Scaron" unicode="&#x160;" horiz-adv-x="400" 
d="M170 62c36 0 63.8389 10 83.5059 30s29.5 47 29.5 81c0 18 -3 34 -9 48s-13.833 26.667 -23.5 38s-20.834 21.666 -33.501 30.999l-39 28l-48 34c-16.667 12 -31.834 26 -45.501 42s-24.834 34.667 -33.501 56s-13 46.333 -13 75c0 28 4.83301 53.333 14.5 76
s23 42 40 58s37.333 28.333 61 37s49.167 13 76.5 13c26.667 0 51.334 -3.33301 74.001 -10s41.667 -14.667 57 -24l-28 -71c-14 9.33301 -29.167 16.5 -45.5 21.5s-33.5 7.5 -51.5 7.5c-32.667 0 -58.834 -8.83301 -78.501 -26.5s-29.5 -43.5 -29.5 -77.5
c0 -18.667 3.16699 -35 9.5 -49s14.666 -26.667 24.999 -38s22.333 -21.666 36 -30.999l43.5 -29c15.333 -10 31 -21 47 -33s30.5 -25.833 43.5 -41.5s23.667 -34 32 -55s12.5 -45.833 12.5 -74.5c0 -26 -4 -50.667 -12 -74s-20.5 -43.833 -37.5 -61.5
s-38.333 -31.667 -64 -42s-55.834 -15.5 -90.501 -15.5c-32 0 -60 3.66699 -84 11s-45.333 17 -64 29l28 72c17.333 -10.667 35.166 -19.167 53.499 -25.5s39.5 -9.5 63.5 -9.5zM284.006 918l42 -35l-115 -152l-115 152l42 35l73 -85z" />
    <glyph glyph-name="scaron" unicode="&#x161;" horiz-adv-x="341" 
d="M151 61c25.333 0 44.498 7.17188 57.498 21.5049s19.5 33.166 19.5 56.499c0 14.667 -2.66699 27.167 -8 37.5s-12.333 19.5 -21 27.5s-18.667 15.167 -30 21.5s-22.666 13.166 -33.999 20.499c-11.333 6.66699 -22.333 14.5 -33 23.5s-20.167 19.333 -28.5 31
s-15 25 -20 40s-7.5 32.5 -7.5 52.5c0 43.333 13.5 78.333 40.5 105s63.5 40 109.5 40c19.333 0 37.666 -2.5 54.999 -7.5s31.666 -10.5 42.999 -16.5l-19 -69c-12 6.66699 -24 11.667 -36 15s-25 5 -39 5c-21.333 0 -38.333 -6.16699 -51 -18.5s-19 -30.166 -19 -53.499
c0 -13.333 2.33301 -24.833 7 -34.5s10.834 -18.334 18.501 -26.001s16.334 -14.834 26.001 -21.501s19.834 -13 30.501 -19c12.667 -7.33301 25.167 -15.333 37.5 -24s23.333 -18.834 33 -30.501s17.5 -25.334 23.5 -41.001s9 -34.5 9 -56.5c0 -46 -13.5 -83 -40.5 -111
s-66.5 -42 -118.5 -42c-26.667 0 -50.667 3.66699 -72 11s-37.333 14 -48 20l18 71c10 -5.33301 23.5 -11.333 40.5 -18s35.833 -10 56.5 -10zM248.998 768.005l42 -35l-115 -152l-115 152l42 35l73 -85z" />
    <glyph glyph-name="uni0162" unicode="&#x162;" horiz-adv-x="426" 
d="M412 693l0.00195312 -77h-154v-616h-11c-3.33301 -6.66699 -6.5 -13.5 -9.5 -20.5l-8.5 -19.5c19.333 -7.33301 33 -16.833 41 -28.5s12 -25.167 12 -40.5c0 -25.333 -10 -45 -30 -59s-44.667 -21 -74 -21c-10 0 -21 0.833008 -33 2.5s-23.667 4.5 -35 8.5l10 55
c6.66699 -1.33301 13.667 -2.83301 21 -4.5s15 -2.5 23 -2.5c12 0 22.333 1.83301 31 5.5s13 10.834 13 21.501c0 7.33301 -3.66699 13.666 -11 18.999s-21 10 -41 14c3.33301 11.333 7.66602 23.333 12.999 36s10.666 24 15.999 34h-17v616h-154v77h398z" />
    <glyph glyph-name="uni0163" unicode="&#x163;" horiz-adv-x="321" 
d="M158 525l132.001 0.000976562v-74h-132v-289c0 -36 6.5 -61.167 19.5 -75.5s30.5 -21.5 52.5 -21.5c11.333 0 22.166 1.66699 32.499 5s19.166 7.33301 26.499 12l17 -69c-26 -14.667 -53.667 -22.667 -83 -24l-7.5 -15
c-2.33301 -4.66699 -4.16602 -9.33398 -5.49902 -14.001c19.333 -7.33301 33 -16.833 41 -28.5s12 -25.167 12 -40.5c0 -25.333 -10 -45 -30 -59s-44.667 -21 -74 -21c-10 0 -21 0.833008 -33 2.5s-23.667 4.5 -35 8.5l10 55c6.66699 -1.33301 13.667 -2.83301 21 -4.5
s15 -2.5 23 -2.5c12 0 22.333 1.83301 31 5.5s13 10.834 13 21.501c0 7.33301 -3.66699 13.666 -11 18.999s-21 10 -41 14c3.33301 10.667 7.33301 21.834 12 33.501s9.66699 22.5 15 32.5c-31.333 8.66699 -54.5 26.667 -69.5 54s-22.5 66.666 -22.5 117.999v498l86 15
v-156z" />
    <glyph glyph-name="Tcaron" unicode="&#x164;" horiz-adv-x="426" 
d="M412 693v-77h-154v-616h-90v616h-154v77h398zM286 918l42 -35l-115 -152l-115 152l42 35l73 -85z" />
    <glyph glyph-name="tcaron" unicode="&#x165;" horiz-adv-x="321" 
d="M158 525h132.001v-74h-132v-289c0 -36 6.5 -61.167 19.5 -75.5s30.5 -21.5 52.5 -21.5c11.333 0 22.166 1.66699 32.499 5s19.166 7.33301 26.499 12l17 -69c-27.333 -16 -56.333 -24 -87 -24c-49.333 0 -86.166 13.833 -110.499 41.5s-36.5 73.5 -36.5 137.5v498l86 15
v-156zM309.001 776l-27 -194h-57v194h84z" />
    <glyph glyph-name="Tbar" unicode="&#x166;" horiz-adv-x="426" 
d="M79 384h89v232h-154v77h398v-77h-154v-232h89v-66h-89v-318h-90v318h-89v66z" />
    <glyph glyph-name="tbar" unicode="&#x167;" horiz-adv-x="351" 
d="M158 525h132.001v-74h-132v-145h132v-66h-132v-78c0 -36 6.5 -61.167 19.5 -75.5s30.5 -21.5 52.5 -21.5c11.333 0 22.166 1.66699 32.499 5s19.166 7.33301 26.499 12l17 -69c-27.333 -16 -56.333 -24 -87 -24c-49.333 0 -86.166 13.833 -110.499 41.5
s-36.5 73.5 -36.5 137.5v498l86 15v-156z" />
    <glyph glyph-name="Utilde" unicode="&#x168;" horiz-adv-x="549" 
d="M272 -15c-64.667 0 -113.167 18.333 -145.5 55s-48.5 94.667 -48.5 174v479h90v-471c0 -52.667 7.66699 -92.167 23 -118.5s43 -39.5 83 -39.5c41.333 0 69.5 13.5 84.5 40.5s22.5 66.167 22.5 117.5v471h90v-479c0 -78 -16.667 -135.667 -50 -173s-83 -56 -149 -56z
M403 871c-6 -32 -15.498 -56.5 -28.498 -73.5s-29.167 -25.5 -48.5 -25.5c-11.333 0 -21.833 2.33301 -31.5 7s-18.5 10 -26.5 16s-15.5 11.333 -22.5 16s-13.833 7 -20.5 7c-6 0 -11.167 -3.33301 -15.5 -10s-8.5 -18.667 -12.5 -36l-50 17
c5.33301 32 14.666 56.5 27.999 73.5s29.666 25.5 48.999 25.5c12 0 22.667 -2.33301 32 -7s18 -10 26 -16l22 -16c6.66699 -4.66699 13.667 -7 21 -7c6 0 11.167 3.33301 15.5 10s8.5 18.667 12.5 36z" />
    <glyph glyph-name="utilde" unicode="&#x169;" horiz-adv-x="480" 
d="M403 15c-8.66699 -3.33301 -19.167 -6.5 -31.5 -9.5s-25.333 -5.66699 -39 -8s-27.334 -4.33301 -41.001 -6s-26.167 -2.5 -37.5 -2.5c-27.333 0 -52.333 3.16699 -75 9.5s-42 17.5 -58 33.5s-28.333 37.833 -37 65.5s-13 62.5 -13 104.5v323h86v-320
c0 -51.333 7.83301 -87.5 23.5 -108.5s39.5 -31.5 71.5 -31.5c10.667 0 21.334 0.5 32.001 1.5s21.667 3.16699 33 6.5v452h86v-510zM369 721c-6 -32 -15.498 -56.5 -28.498 -73.5s-29.167 -25.5 -48.5 -25.5c-11.333 0 -21.833 2.33301 -31.5 7s-18.5 10 -26.5 16
s-15.5 11.333 -22.5 16s-13.833 7 -20.5 7c-6 0 -11.167 -3.33301 -15.5 -10s-8.5 -18.667 -12.5 -36l-50 17c5.33301 32 14.666 56.5 27.999 73.5s29.666 25.5 48.999 25.5c12 0 22.667 -2.33301 32 -7s18 -10 26 -16l22 -16c6.66699 -4.66699 13.667 -7 21 -7
c6 0 11.167 3.33301 15.5 10s8.5 18.667 12.5 36z" />
    <glyph glyph-name="Umacron" unicode="&#x16a;" horiz-adv-x="549" 
d="M272 -15c-64.667 0 -113.167 18.333 -145.5 55s-48.5 94.667 -48.5 174v479h90v-471c0 -52.667 7.66699 -92.167 23 -118.5s43 -39.5 83 -39.5c41.333 0 69.5 13.5 84.5 40.5s22.5 66.167 22.5 117.5v471h90v-479c0 -78 -16.667 -135.667 -50 -173s-83 -56 -149 -56z
M168 861h213v-68h-213v68z" />
    <glyph glyph-name="umacron" unicode="&#x16b;" horiz-adv-x="480" 
d="M403 15c-8.66699 -3.33301 -19.167 -6.5 -31.5 -9.5s-25.333 -5.66699 -39 -8s-27.334 -4.33301 -41.001 -6s-26.167 -2.5 -37.5 -2.5c-27.333 0 -52.333 3.16699 -75 9.5s-42 17.5 -58 33.5s-28.333 37.833 -37 65.5s-13 62.5 -13 104.5v323h86v-320
c0 -51.333 7.83301 -87.5 23.5 -108.5s39.5 -31.5 71.5 -31.5c10.667 0 21.334 0.5 32.001 1.5s21.667 3.16699 33 6.5v452h86v-510zM134 711h213v-68h-213v68z" />
    <glyph glyph-name="Ubreve" unicode="&#x16c;" horiz-adv-x="549" 
d="M272 -15c-64.667 0 -113.167 18.333 -145.5 55s-48.5 94.667 -48.5 174v479h90v-471c0 -52.667 7.66699 -92.167 23 -118.5s43 -39.5 83 -39.5c41.333 0 69.5 13.5 84.5 40.5s22.5 66.167 22.5 117.5v471h90v-479c0 -78 -16.667 -135.667 -50 -173s-83 -56 -149 -56z
M275 765c-37.333 0 -65.833 12.167 -85.5 36.5s-29.5 58.5 -29.5 102.5h58c1.33301 -22 5.83301 -41 13.5 -57s22.167 -24 43.5 -24s35.833 8 43.5 24s12.167 35 13.5 57h58c0 -44 -10 -78.167 -30 -102.5s-48.333 -36.5 -85 -36.5z" />
    <glyph glyph-name="ubreve" unicode="&#x16d;" horiz-adv-x="480" 
d="M403 15c-8.66699 -3.33301 -19.167 -6.5 -31.5 -9.5s-25.333 -5.66699 -39 -8s-27.334 -4.33301 -41.001 -6s-26.167 -2.5 -37.5 -2.5c-27.333 0 -52.333 3.16699 -75 9.5s-42 17.5 -58 33.5s-28.333 37.833 -37 65.5s-13 62.5 -13 104.5v323h86v-320
c0 -51.333 7.83301 -87.5 23.5 -108.5s39.5 -31.5 71.5 -31.5c10.667 0 21.334 0.5 32.001 1.5s21.667 3.16699 33 6.5v452h86v-510zM241 615c-37.333 0 -65.833 12.167 -85.5 36.5s-29.5 58.5 -29.5 102.5h58c1.33301 -22 5.83301 -41 13.5 -57s22.167 -24 43.5 -24
s35.833 8 43.5 24s12.167 35 13.5 57h58c0 -44 -10 -78.167 -30 -102.5s-48.333 -36.5 -85 -36.5z" />
    <glyph glyph-name="Uring" unicode="&#x16e;" horiz-adv-x="549" 
d="M272 -15c-64.667 0 -113.167 18.333 -145.5 55s-48.5 94.667 -48.5 174v479h90v-471c0 -52.667 7.66699 -92.167 23 -118.5s43 -39.5 83 -39.5c41.333 0 69.5 13.5 84.5 40.5s22.5 66.167 22.5 117.5v471h90v-479c0 -78 -16.667 -135.667 -50 -173s-83 -56 -149 -56z
M360 832c0 -26 -8.33301 -46.667 -25 -62s-36.667 -23 -60 -23s-43.333 7.66699 -60 23s-25 36 -25 62s8.33301 46.667 25 62s36.667 23 60 23s43.333 -7.66699 60 -23s25 -36 25 -62zM315 832c0 13.333 -3.83301 23.5 -11.5 30.5s-17.167 10.5 -28.5 10.5
s-20.833 -3.5 -28.5 -10.5s-11.5 -17.167 -11.5 -30.5s3.83301 -23.5 11.5 -30.5s17.167 -10.5 28.5 -10.5s20.833 3.5 28.5 10.5s11.5 17.167 11.5 30.5z" />
    <glyph glyph-name="uring" unicode="&#x16f;" horiz-adv-x="480" 
d="M403 15c-8.66699 -3.33301 -19.167 -6.5 -31.5 -9.5s-25.333 -5.66699 -39 -8s-27.334 -4.33301 -41.001 -6s-26.167 -2.5 -37.5 -2.5c-27.333 0 -52.333 3.16699 -75 9.5s-42 17.5 -58 33.5s-28.333 37.833 -37 65.5s-13 62.5 -13 104.5v323h86v-320
c0 -51.333 7.83301 -87.5 23.5 -108.5s39.5 -31.5 71.5 -31.5c10.667 0 21.334 0.5 32.001 1.5s21.667 3.16699 33 6.5v452h86v-510zM326 682c0 -26 -8.33301 -46.667 -25 -62s-36.667 -23 -60 -23s-43.333 7.66699 -60 23s-25 36 -25 62s8.33301 46.667 25 62
s36.667 23 60 23s43.333 -7.66699 60 -23s25 -36 25 -62zM281 682c0 13.333 -3.83301 23.5 -11.5 30.5s-17.167 10.5 -28.5 10.5s-20.833 -3.5 -28.5 -10.5s-11.5 -17.167 -11.5 -30.5s3.83301 -23.5 11.5 -30.5s17.167 -10.5 28.5 -10.5s20.833 3.5 28.5 10.5
s11.5 17.167 11.5 30.5z" />
    <glyph glyph-name="Uhungarumlaut" unicode="&#x170;" horiz-adv-x="549" 
d="M272 -15c-64.667 0 -113.167 18.333 -145.5 55s-48.5 94.667 -48.5 174v479h90v-471c0 -52.667 7.66699 -92.167 23 -118.5s43 -39.5 83 -39.5c41.333 0 69.5 13.5 84.5 40.5s22.5 66.167 22.5 117.5v471h90v-479c0 -78 -16.667 -135.667 -50 -173s-83 -56 -149 -56z
M325 893l-112 -157l-46 28l96 170zM462 893l-112 -157l-46 28l96 170z" />
    <glyph glyph-name="uhungarumlaut" unicode="&#x171;" horiz-adv-x="480" 
d="M403 15c-8.66699 -3.33301 -19.167 -6.5 -31.5 -9.5s-25.333 -5.66699 -39 -8s-27.334 -4.33301 -41.001 -6s-26.167 -2.5 -37.5 -2.5c-27.333 0 -52.333 3.16699 -75 9.5s-42 17.5 -58 33.5s-28.333 37.833 -37 65.5s-13 62.5 -13 104.5v323h86v-320
c0 -51.333 7.83301 -87.5 23.5 -108.5s39.5 -31.5 71.5 -31.5c10.667 0 21.334 0.5 32.001 1.5s21.667 3.16699 33 6.5v452h86v-510zM281 743l-112 -157l-46 28l96 170zM418 743l-112 -157l-46 28l96 170z" />
    <glyph glyph-name="Uogonek" unicode="&#x172;" horiz-adv-x="549" 
d="M395 -176c-18.667 -7.33301 -39.332 -11.002 -61.999 -11.002c-29.333 0 -53.333 7.66699 -72 23s-28 36.666 -28 63.999c0 16.667 3.16699 31.834 9.5 45.501s15.166 26.834 26.499 39.501c-63.333 0.666992 -111 19.334 -143 56.001s-48 94.334 -48 173.001v479h90
v-471c0 -52.667 7.66699 -92.167 23 -118.5s43 -39.5 83 -39.5c41.333 0 69.5 13.5 84.5 40.5s22.5 66.167 22.5 117.5v471h90v-479c0 -31.333 -2.5 -58.166 -7.5 -80.499s-12 -41.5 -21 -57.5s-19.5 -30 -31.5 -42s-25.333 -23.333 -40 -34
c-6.66699 -4.66699 -13.5 -9.83398 -20.5 -15.501s-13.5 -11.667 -19.5 -18s-10.833 -13.333 -14.5 -21s-5.5 -15.834 -5.5 -24.501c0 -14.667 4.16699 -25.167 12.5 -31.5s18.5 -9.5 30.5 -9.5c12.667 0 24.667 2.33301 36 7z" />
    <glyph glyph-name="uogonek" unicode="&#x173;" horiz-adv-x="480" 
d="M403 15c-26 -16 -46.1689 -31.666 -60.502 -46.999s-21.5 -31 -21.5 -47c0 -14.667 4.16699 -25.167 12.5 -31.5s18.5 -9.5 30.5 -9.5c12.667 0 24.667 2.33301 36 7l5 -63c-18.667 -7.33301 -39.334 -11 -62.001 -11c-29.333 0 -53.333 7.66699 -72 23
s-28 36.666 -28 63.999c0 17.333 3.83301 33.5 11.5 48.5s18.167 29.167 31.5 42.5c-5.33301 -0.666992 -10.666 -1.16699 -15.999 -1.5s-10.666 -0.5 -15.999 -0.5c-27.333 0 -52.333 3.16699 -75 9.5s-42 17.5 -58 33.5s-28.333 37.833 -37 65.5s-13 62.5 -13 104.5v323
h86v-320c0 -51.333 7.83301 -87.5 23.5 -108.5s39.5 -31.5 71.5 -31.5c10.667 0 21.334 0.5 32.001 1.5s21.667 3.16699 33 6.5v452h86v-510z" />
    <glyph glyph-name="Wcircumflex" unicode="&#x174;" horiz-adv-x="756" 
d="M424 611l28.002 -126.999c10 -44.667 20.5 -89 31.5 -133l33.5 -128l32 -113c8 37.333 15.667 78.833 23 124.5s14.5 93.5 21.5 143.5s13.5 101.667 19.5 155s11 106.666 15 159.999h88c-15.333 -134 -32.5 -257.333 -51.5 -370s-41.167 -220.334 -66.5 -323.001h-91
l-32.5 109c-11.667 40 -23.167 81.5 -34.5 124.5l-33 130.5c-10.667 44 -20.334 86.667 -29.001 128c-8.66699 -41.333 -18.334 -84 -29.001 -128l-33 -130.5c-11.333 -43 -22.833 -84.5 -34.5 -124.5l-32.5 -109h-91c-25.333 102.667 -47.5 210.334 -66.5 323.001
s-36.167 236 -51.5 370h91c4 -53.333 9 -106.5 15 -159.5s12.5 -104.667 19.5 -155s14.167 -98.333 21.5 -144s15 -87.167 23 -124.5l32 113l33.5 128c11 44 21.5 88.333 31.5 133l28 127h89zM304.002 731.001l-42 35l115 152l115 -152l-42 -35l-73 85z" />
    <glyph glyph-name="wcircumflex" unicode="&#x175;" horiz-adv-x="573" 
d="M216 0h-87.0039c-20.667 68.667 -40.167 147.667 -58.5 237s-35.166 185.333 -50.499 288h85c2.66699 -28.667 6.66699 -62.167 12 -100.5s11.166 -77.666 17.499 -117.999s12.833 -79.333 19.5 -117s13 -69.834 19 -96.501c6 26.667 12.833 59.334 20.5 98.001l23 119
l21.5 118.5c6.66699 38.333 12 70.5 16 96.5h81c2.66699 -26 6.83398 -58 12.501 -96l18 -118.5c6.33301 -41 12.833 -80.833 19.5 -119.5s12.667 -71.334 18 -98.001c6 26.667 12.333 59 19 97s13.167 77 19.5 117s12.166 79.167 17.499 117.5s9.33301 71.833 12 100.5h82
c-15.333 -102.667 -32.166 -198.667 -50.499 -288s-37.833 -168.333 -58.5 -237h-84c-5.33301 20.667 -11.166 47.167 -17.499 79.5s-12.666 66.833 -18.999 103.5s-12.166 73.5 -17.499 110.5s-10 70.833 -14 101.5c-4 -30.667 -9.33301 -64.5 -16 -101.5
s-13.667 -73.833 -21 -110.5l-21.5 -103.5zM211.996 581l-42 35l115 152l115 -152l-42 -35l-73 85z" />
    <glyph glyph-name="Ycircumflex" unicode="&#x176;" horiz-adv-x="451" 
d="M448 693l-37.5 -100l-43.5 -107.5l-47 -108.5l-48 -103v-274h-90v268l-49 104l-48 110l-44 109c-14 36 -26.667 70 -38 102h97c17.333 -52.667 37 -108.334 59 -167.001s44.667 -113.334 68 -164.001c23.333 50.667 46 105.334 68 164.001s41.667 114.334 59 167.001h94z
M151 731l-42 35l115 152l115 -152l-42 -35l-73 85z" />
    <glyph glyph-name="ycircumflex" unicode="&#x177;" horiz-adv-x="396" 
d="M199 109c19.333 66.667 37.002 133.666 53.002 200.999s31.333 139 46 215h85c-10 -48.667 -20.833 -96.667 -32.5 -144s-23.667 -93 -36 -137s-24.666 -85.5 -36.999 -124.5l-34.5 -106.5c-12.667 -37.333 -24.834 -68.833 -36.501 -94.5
s-24.334 -46.334 -38.001 -62.001s-28.5 -27 -44.5 -34s-35 -10.5 -57 -10.5c-12 0 -24 1.5 -36 4.5s-22 6.16699 -30 9.5l16 70c17.333 -7.33301 33.666 -11 48.999 -11c19.333 0 35 7 47 21s23.667 35 35 63l10 25c-12.667 34.667 -25.5 73.167 -38.5 115.5
s-25.667 86.5 -38 132.5s-24.166 93.167 -35.499 141.5s-21.666 95.5 -30.999 141.5h91c5.33301 -31.333 11.666 -65.666 18.999 -102.999s15.166 -74.666 23.499 -111.999s16.833 -73.5 25.5 -108.5s17 -65.833 25 -92.5zM123.002 580.999l-42 35l115 152l115 -152l-42 -35
l-73 85z" />
    <glyph glyph-name="Ydieresis" unicode="&#x178;" horiz-adv-x="451" 
d="M448 693l-37.5 -100l-43.5 -107.5l-47 -108.5l-48 -103v-274h-90v268l-49 104l-48 110l-44 109c-14 36 -26.667 70 -38 102h97c17.333 -52.667 37 -108.334 59 -167.001s44.667 -113.334 68 -164.001c23.333 50.667 46 105.334 68 164.001s41.667 114.334 59 167.001h94z
M142 768c-15.333 0 -28.5 5.16699 -39.5 15.5s-16.5 24.166 -16.5 41.499s5.5 31.166 16.5 41.499s24.167 15.5 39.5 15.5s28.5 -5.16699 39.5 -15.5s16.5 -24.166 16.5 -41.499s-5.5 -31.166 -16.5 -41.499s-24.167 -15.5 -39.5 -15.5zM308 768
c-15.333 0 -28.5 5.16699 -39.5 15.5s-16.5 24.166 -16.5 41.499s5.5 31.166 16.5 41.499s24.167 15.5 39.5 15.5s28.5 -5.16699 39.5 -15.5s16.5 -24.166 16.5 -41.499s-5.5 -31.166 -16.5 -41.499s-24.167 -15.5 -39.5 -15.5z" />
    <glyph glyph-name="Zacute" unicode="&#x179;" horiz-adv-x="432" 
d="M390 622l-67 -124.5l-73.5 -147l-69 -147.5c-21.667 -48 -39.5 -90 -53.5 -126h270v-77h-366v55c10 26.667 21.667 56 35 88l43 99.5l47.5 103.5l49 101l47 92.5c15 29 28.833 54.5 41.5 76.5h-250v77h346v-71zM313 876l-136 -144l-43 37l118 159z" />
    <glyph glyph-name="zacute" unicode="&#x17a;" horiz-adv-x="356" 
d="M319 461l-50.001 -88.001l-55.5 -104.5l-52 -105c-16.333 -34.333 -29.5 -64.166 -39.5 -89.499h204v-74h-293v62c10.667 29.333 24.334 62 41.001 98l52.5 108l54 102.5l45.5 80.5h-181v74h274v-64zM300.999 725.999l-136 -144l-43 37l118 159z" />
    <glyph glyph-name="Zdotaccent" unicode="&#x17b;" horiz-adv-x="432" 
d="M390 622l-67 -124.5l-73.5 -147l-69 -147.5c-21.667 -48 -39.5 -90 -53.5 -126h270v-77h-366v55c10 26.667 21.667 56 35 88l43 99.5l47.5 103.5l49 101l47 92.5c15 29 28.833 54.5 41.5 76.5h-250v77h346v-71zM216 768c-15.333 0 -28.5 5.16699 -39.5 15.5
s-16.5 24.166 -16.5 41.499s5.5 31.166 16.5 41.499s24.167 15.5 39.5 15.5s28.5 -5.16699 39.5 -15.5s16.5 -24.166 16.5 -41.499s-5.5 -31.166 -16.5 -41.499s-24.167 -15.5 -39.5 -15.5z" />
    <glyph glyph-name="zdotaccent" unicode="&#x17c;" horiz-adv-x="356" 
d="M319 461l-50.001 -88.001l-55.5 -104.5l-52 -105c-16.333 -34.333 -29.5 -64.166 -39.5 -89.499h204v-74h-293v62c10.667 29.333 24.334 62 41.001 98l52.5 108l54 102.5l45.5 80.5h-181v74h274v-64zM178.999 617.999c-15.333 0 -28.5 5.16699 -39.5 15.5
s-16.5 24.166 -16.5 41.499s5.5 31.166 16.5 41.499s24.167 15.5 39.5 15.5s28.5 -5.16699 39.5 -15.5s16.5 -24.166 16.5 -41.499s-5.5 -31.166 -16.5 -41.499s-24.167 -15.5 -39.5 -15.5z" />
    <glyph glyph-name="Zcaron" unicode="&#x17d;" horiz-adv-x="432" 
d="M390 622l-67 -124.5l-73.5 -147l-69 -147.5c-21.667 -48 -39.5 -90 -53.5 -126h270v-77h-366v55c10 26.667 21.667 56 35 88l43 99.5l47.5 103.5l49 101l47 92.5c15 29 28.833 54.5 41.5 76.5h-250v77h346v-71zM289 918l42 -35l-115 -152l-115 152l42 35l73 -85z" />
    <glyph glyph-name="zcaron" unicode="&#x17e;" horiz-adv-x="356" 
d="M319 461l-50.001 -88.001l-55.5 -104.5l-52 -105c-16.333 -34.333 -29.5 -64.166 -39.5 -89.499h204v-74h-293v62c10.667 29.333 24.334 62 41.001 98l52.5 108l54 102.5l45.5 80.5h-181v74h274v-64zM251.999 767.999l42 -35l-115 -152l-115 152l42 35l73 -85z" />
    <glyph glyph-name="longs" unicode="&#x17f;" horiz-adv-x="238" 
d="M231 776c19.333 0 36.334 -2.00098 51.001 -6.00098s26.667 -8.33301 36 -13l-18 -68c-9.33301 4.66699 -19 8.16699 -29 10.5s-20.667 3.5 -32 3.5c-15.333 0 -28 -2.66699 -38 -8s-17.667 -12.666 -23 -21.999s-9 -20.5 -11 -33.5s-3 -26.833 -3 -41.5v-598h-86v598
c0 56.667 12.667 100.5 38 131.5s63.666 46.5 114.999 46.5z" />
    <glyph glyph-name="uni0180" unicode="&#x180;" horiz-adv-x="467" 
d="M163 683l129 0.000976562v-66h-129v-96c10.667 5.33301 21.5 9.5 32.5 12.5s24.167 4.5 39.5 4.5c32.667 0 60.667 -6.5 84 -19.5s42.333 -31.333 57 -55s25.5 -52.334 32.5 -86.001s10.5 -71.5 10.5 -113.5c0 -92.667 -16.5 -162 -49.5 -208s-84.833 -69 -155.5 -69
c-24.667 0 -49 2.5 -73 7.5s-45.333 11.5 -64 19.5v603h-62v66h62v78l86 15v-93zM163 70.001c9.33301 -2.66699 18.334 -4.49805 27.001 -5.49805s16.667 -1.5 24 -1.5c38.667 0 67.5 15.5 86.5 46.5s28.5 82.5 28.5 154.5c0 37.333 -2.33301 68.666 -7 93.999
s-11.5 45.666 -20.5 60.999s-19.833 26.333 -32.5 33s-27.334 10 -44.001 10c-22 0 -42.667 -5.33301 -62 -16v-376z" />
    <glyph glyph-name="uni0181" unicode="&#x181;" horiz-adv-x="575" 
d="M228 326l-0.00195312 -249.998c12.667 -2 25.167 -3.66699 37.5 -5s24.5 -2 36.5 -2c18.667 0 36.334 2 53.001 6s31.167 10.667 43.5 20s22 22.166 29 38.499s10.5 36.5 10.5 60.5c0 41.333 -11.167 73.666 -33.5 96.999s-57.166 35 -104.499 35h-72zM4.99805 492.002
c-1.33301 4.66699 -2.5 11.666 -3.5 20.999s-1.5 18.666 -1.5 27.999c0 38.667 8.66699 68.834 26 90.501s39.166 38 65.499 49s55.166 17.833 86.499 20.5s61 4 89 4c30.667 0 60.5 -3 89.5 -9s54.667 -16 77 -30s40.166 -32.5 53.499 -55.5s20 -51.5 20 -85.5
c0 -41.333 -8.66699 -75.166 -26 -101.499s-39.666 -45.833 -66.999 -58.5c34 -13.333 62 -33.666 84 -60.999s33 -65 33 -113c0 -36 -5.83301 -66.333 -17.5 -91s-28.167 -44.834 -49.5 -60.501s-46.833 -27 -76.5 -34s-62.167 -10.5 -97.5 -10.5
c-23.333 0 -47.666 1.33301 -72.999 4s-51.666 6.66699 -78.999 12v604c-25.333 -6 -42.5 -15.5 -51.5 -28.5s-13.5 -31.167 -13.5 -54.5c0 -5.33301 0.166992 -10.833 0.5 -16.5s0.5 -10.5 0.5 -14.5zM262.998 624.001h-18.5c-5.66699 0 -11.167 -0.333008 -16.5 -1v-225
h62c82.667 0 124 37.333 124 112c0 42 -11.833 71.5 -35.5 88.5s-62.167 25.5 -115.5 25.5z" />
    <glyph glyph-name="uni0182" unicode="&#x182;" horiz-adv-x="501" 
d="M84 693h311.002v-77h-221v-180h43c36 0 68.667 -4 98 -12s54.5 -20.833 75.5 -38.5s37.333 -40.667 49 -69s17.5 -62.5 17.5 -102.5c0 -39.333 -5.66699 -73 -17 -101s-27.333 -50.833 -48 -68.5s-45.334 -30.667 -74.001 -39s-60.334 -12.5 -95.001 -12.5
c-46 0 -92.333 5.66699 -139 17v683zM174.002 75c16 -2 32.667 -3 50 -3c20.667 0 39.5 2.33301 56.5 7s31.5 12.5 43.5 23.5s21.333 25.5 28 43.5s10 40.667 10 68c0 52.667 -13.333 89.667 -40 111s-63.667 32 -111 32h-37v-282z" />
    <glyph glyph-name="uni0183" unicode="&#x183;" horiz-adv-x="467" 
d="M163 697v-175.999c10.667 5.33301 21.5 9.5 32.5 12.5s24.167 4.5 39.5 4.5c32.667 0 60.667 -6.5 84 -19.5s42.333 -31.333 57 -55s25.5 -52.334 32.5 -86.001s10.5 -71.5 10.5 -113.5c0 -92.667 -16.5 -162 -49.5 -208s-84.833 -69 -155.5 -69
c-24.667 0 -49 2.5 -73 7.5s-45.333 11.5 -64 19.5v757h280v-74h-194zM163 70.001c9.33301 -2.66699 18.334 -4.49805 27.001 -5.49805s16.667 -1.5 24 -1.5c38.667 0 67.5 15.5 86.5 46.5s28.5 82.5 28.5 154.5c0 37.333 -2.33301 68.666 -7 93.999
s-11.5 45.666 -20.5 60.999s-19.833 26.333 -32.5 33s-27.334 10 -44.001 10c-22 0 -42.667 -5.33301 -62 -16v-376z" />
    <glyph glyph-name="uni0184" unicode="&#x184;" horiz-adv-x="467" 
d="M163 521c10.667 5.33301 21.501 9.50098 32.501 12.501s24.167 4.5 39.5 4.5c32.667 0 60.667 -6.5 84 -19.5s42.333 -31.333 57 -55s25.5 -52.334 32.5 -86.001s10.5 -71.5 10.5 -113.5c0 -92.667 -16.5 -162 -49.5 -208s-84.833 -69 -155.5 -69
c-24.667 0 -49 2.5 -73 7.5s-45.333 11.5 -64 19.5v618l-61 76c22 14 45.167 27 69.5 39s50.166 21.667 77.499 29v-255zM163.001 70.001c9.33301 -2.66699 18.334 -4.49805 27.001 -5.49805s16.667 -1.5 24 -1.5c38.667 0 67.5 15.5 86.5 46.5s28.5 82.5 28.5 154.5
c0 37.333 -2.33301 68.666 -7 93.999s-11.5 45.666 -20.5 60.999s-19.833 26.333 -32.5 33s-27.334 10 -44.001 10c-22 0 -42.667 -5.33301 -62 -16v-376z" />
    <glyph glyph-name="uni0185" unicode="&#x185;" horiz-adv-x="490" 
d="M174 436h42.998c36 0 68.667 -4 98 -12s54.5 -20.833 75.5 -38.5s37.333 -40.667 49 -69s17.5 -62.5 17.5 -102.5c0 -39.333 -5.66699 -73 -17 -101s-27.166 -50.833 -47.499 -68.5s-45 -30.667 -74 -39s-60.833 -12.5 -95.5 -12.5
c-45.333 0 -91.666 5.66699 -138.999 17v546l-61 76c22 14 45.667 27 71 39s52 21.667 80 29v-264zM173.998 75c14.667 -2 31 -3 49 -3c20.667 0 39.5 2.33301 56.5 7s31.667 12.5 44 23.5s21.833 25.5 28.5 43.5s10 40.667 10 68c0 26.667 -3.5 49 -10.5 67
s-17 32.667 -30 44s-28.833 19.5 -47.5 24.5s-39.667 7.5 -63 7.5h-37v-282z" />
    <glyph glyph-name="uni0186" unicode="&#x186;" horiz-adv-x="460" 
d="M159 709c78.667 0 139.334 -29.665 182.001 -88.998s64 -150.333 64 -273c0 -66 -6.66699 -122 -20 -168s-31.333 -83.333 -54 -112s-49.167 -49.5 -79.5 -62.5s-62.833 -19.5 -97.5 -19.5c-28 0 -54.333 4.16699 -79 12.5s-44.667 18.166 -60 29.499l27 71
c15.333 -10.667 31.666 -19 48.999 -25s37.666 -9 60.999 -9c55.333 0 95.333 23 120 69s37 117.333 37 214c0 90.667 -12.167 160.5 -36.5 209.5s-64.166 73.5 -119.499 73.5c-26 0 -47.333 -3.33301 -64 -10s-32.667 -15.334 -48 -26.001l-25 71
c14.667 12 34.167 22.333 58.5 31s52.5 13 84.5 13z" />
    <glyph glyph-name="uni0187" unicode="&#x187;" horiz-adv-x="491" 
d="M307 -15c-81.333 0 -143.667 29.499 -187 88.499s-65 150.167 -65 273.5c0 66 6.16699 122 18.5 168s29.5 83.333 51.5 112s48.333 49.5 79 62.5s64.667 19.5 102 19.5c12.667 0 25 -1 37 -3s23.667 -4.33301 35 -7c9.33301 30 23.666 52 42.999 66s45 21 77 21
c10.667 0 20.834 -1.16699 30.501 -3.5s18.5 -5.16602 26.5 -8.49902l-12 -72c-8.66699 4 -16.834 6.83301 -24.501 8.5s-14.5 2.5 -20.5 2.5c-11.333 0 -21 -3 -29 -9s-14.5 -13.833 -19.5 -23.5s-9.16699 -20.834 -12.5 -33.501s-6.33301 -26 -9 -40l-1 -6
c-15.333 7.33301 -33.166 14 -53.499 20s-42.166 9 -65.499 9c-55.333 0 -95.333 -23 -120 -69s-37 -117.333 -37 -214c0 -91.333 12.667 -161.333 38 -210s66.666 -73 123.999 -73c27.333 0 49.5 3.33301 66.5 10s33.5 15.334 49.5 26.001l25 -71
c-15.333 -12 -35.5 -22.333 -60.5 -31s-53.833 -13 -86.5 -13z" />
    <glyph glyph-name="uni0188" unicode="&#x188;" horiz-adv-x="378" 
d="M236 -13c-36 0 -65.999 7.00195 -89.999 21.002s-43.167 33.167 -57.5 57.5s-24.666 53.166 -30.999 86.499s-9.5 69.666 -9.5 108.999c0 86.667 15.5 154.5 46.5 203.5s78.5 73.5 142.5 73.5h12c4 0 7.66699 -0.333008 11 -1c9.33301 34 24.166 57.833 44.499 71.5
s47.166 20.5 80.499 20.5c10.667 0 20.834 -1.16699 30.501 -3.5s18.5 -5.16602 26.5 -8.49902l-12 -67c-8.66699 4 -16.834 6.83301 -24.501 8.5s-14.5 2.5 -20.5 2.5c-12 0 -22 -3.16699 -30 -9.5s-14.5 -14.5 -19.5 -24.5s-9 -21.333 -12 -34
s-5.83301 -25.334 -8.5 -38.001l-2 -9c-21.333 10.667 -45.333 16 -72 16c-36 0 -62.167 -16.333 -78.5 -49s-24.5 -83.334 -24.5 -152.001c0 -28.667 1.5 -55.167 4.5 -79.5s8.5 -45.166 16.5 -62.499s18.833 -31 32.5 -41s31.167 -15 52.5 -15
c14.667 0 27.667 1.83301 39 5.5s22.333 8.5 33 14.5l19 -67c-10.667 -7.33301 -24.667 -14 -42 -20s-36.333 -9 -57 -9z" />
    </font>
</defs>
</svg>
